<?xml version="1.0" encoding="UTF-8"?>
<svg width="24px" height="24px" viewBox="0 0 24 24" version="1.1" xmlns="http://www.w3.org/2000/svg" xmlns:xlink="http://www.w3.org/1999/xlink">
    <title>Group 8</title>
    <g id="Page-1" stroke="none" stroke-width="1" fill="none" fill-rule="evenodd" stroke-linecap="round" stroke-linejoin="round">
        <g id="Products-dropdown-menu-V1" transform="translate(-1006, -84)">
            <g id="advertising-megaphone" transform="translate(1007, 85)">
                <path d="M2.3290849,11.7834465 L2.76713277,10.6344944 L1.74436921,7.95132451 C1.5930862,7.55260624 1.739512,7.10232565 2.09637196,6.86886494 L4.49976856,5.29944524 L5.24972998,2.52827053 C5.36136446,2.11651563 5.74473508,1.83813147 6.17080386,1.85943372 L9.03767074,2.00513063 L11.2728882,0.201031352 C11.6052955,-0.0670104508 12.079601,-0.0670104508 12.4120083,0.201031352 L14.6472258,2.00513063 L17.5140926,1.86236722 C17.9401614,1.84106496 18.323532,2.11944912 18.4351665,2.53120402 L19.1851279,5.30237874 L21.5885245,6.87179843 C21.9456957,7.10502102 22.092202,7.55554927 21.9405273,7.954258 L20.9187415,10.6374279 L21.9405273,13.3196199 C22.092337,13.7186164 21.9458502,14.1694916 21.5885245,14.4030573 L19.1851279,15.9675879 L18.4312554,18.7397404 C18.3203268,19.1521084 17.9366451,19.4311258 17.5101815,19.409555 L14.6433146,19.2667916 L12.4080971,21.0669796" id="Shape" stroke="#3A56BC" stroke-width="1.5"></path>
                <line x1="0" y1="18.5979548" x2="1.61921267" y2="21.1491174" id="Shape" stroke="#FFAF24" stroke-width="1.49334502"></line>
                <line x1="8.95455898" y1="7.23359612" x2="15.1087405" y2="16.9297741" id="Shape" stroke="#FFAF24" stroke-width="1.49334502"></line>
                <polygon id="Shape" stroke="#FFAF24" stroke-width="1.5" points="14.7850935 16.419346 1.2955657 20.6396672 0.323646978 19.1083829 9.27820596 7.74402421"></polygon>
                <path d="M4.21034407,19.7273503 L5.06688411,21.0435116 C5.3531261,21.5128025 5.82025036,21.843244 6.35805658,21.9568808 C6.8958628,22.0705176 7.45672486,21.9572866 7.90832857,21.6439002 C8.85665601,20.9614025 9.10835796,19.6578079 8.48228862,18.6712922 L8.32290959,18.4405239" id="Shape" stroke="#FFAF24" stroke-width="1.5"></path>
            </g>
        </g>
    </g>
</svg>