<?xml version="1.0" encoding="utf-8" ?>
<svg xmlns="http://www.w3.org/2000/svg" xmlns:xlink="http://www.w3.org/1999/xlink" width="25" height="22">
	<path fill="none" stroke="#3A56BC" stroke-width="1.5" stroke-linecap="round" stroke-linejoin="round" transform="translate(0.75 5.25)" d="M1.5 0L21 0C21 0 22.5 0 22.5 1.5L22.5 13.5C22.5 13.5 22.5 15 21 15L1.5 15C1.5 15 0 15 0 13.5L0 1.5C0 1.5 0 0 1.5 0" fill-rule="evenodd"/>
	<path fill="none" stroke="#3A56BC" stroke-width="1.5" stroke-linecap="round" stroke-linejoin="round" transform="translate(7.5 0.75)" d="M9 4.5C9 2.0147185 6.9852815 0 4.5 0C2.0147185 0 0 2.0147185 0 4.5" fill-rule="evenodd"/>
	<path fill="none" stroke="#3A56BC" stroke-width="1.5" stroke-linecap="round" stroke-linejoin="round" transform="translate(0.75 10.75)" d="M0 0.5L9 0.5" fill-rule="evenodd"/>
	<path fill="none" stroke="#3A56BC" stroke-width="1.5" stroke-linecap="round" stroke-linejoin="round" transform="translate(14.25 10.75)" d="M0 0.5L9 0.5" fill-rule="evenodd"/>
	<path fill="none" stroke="#FFAF24" stroke-width="1.5" stroke-linecap="round" stroke-linejoin="round" transform="translate(9.75 8.8)" d="M0 3.45C0 4.6926408 1.0073593 5.6999998 2.25 5.6999998C3.4926407 5.6999998 4.5 4.6926408 4.5 3.45L4.5 2.25C4.5 1.0073593 3.4926407 0 2.25 0C1.0073593 0 0 1.0073593 0 2.25L0 3.45Z" fill-rule="evenodd"/>
</svg>
