<svg xmlns="http://www.w3.org/2000/svg" width="19.7" height="16" viewBox="0 0 19.7 16"><path id="Fill_1" data-name="Fill 1" d="M19.7,1.9a8.648,8.648,0,0,1-2.3.6A4.327,4.327,0,0,0,19.2.3a7.421,7.421,0,0,1-2.6,1,4.153,4.153,0,0,0-3-1.3,4.012,4.012,0,0,0-4,4,2.769,2.769,0,0,0,.1.9A10.918,10.918,0,0,1,1.4.7,3.7,3.7,0,0,0,.8,2.8,4.172,4.172,0,0,0,2.6,6.2,5.462,5.462,0,0,1,.8,5.6,4.087,4.087,0,0,0,4,9.6a3.553,3.553,0,0,1-1,.2,2.2,2.2,0,0,1-.8-.1A3.992,3.992,0,0,0,6,12.5a7.955,7.955,0,0,1-5,1.7,3.751,3.751,0,0,1-1-.1A11.074,11.074,0,0,0,6.2,16,11.47,11.47,0,0,0,17.7,4.5V4a9.993,9.993,0,0,0,2-2.1" fill="#6a7a8e"/></svg>