<svg xmlns="http://www.w3.org/2000/svg" width="14.033" height="13.707" viewBox="0 0 14.033 13.707"><g id="Stroke_1" data-name="Stroke 1" fill="none" stroke-miterlimit="10"><path d="M6.942,0H5.091A5,5,0,0,0,0,4.893,4.813,4.813,0,0,0,1.947,8.737c-.1,1.972-.706,2.971-1.832,2.971q3.175,0,4.3-1.968a5.25,5.25,0,0,0,.673.047H6.942a5,5,0,0,0,5.091-4.893A5,5,0,0,0,6.942,0Z" transform="translate(1 1)"/><path d="M 5.090764999389648 -1.9073486328125e-06 C 2.278815269470215 -1.9073486328125e-06 -4.76837158203125e-06 2.19130802154541 -4.76837158203125e-06 4.893297672271729 C -4.76837158203125e-06 6.453817844390869 0.7617654800415039 7.840837478637695 1.946524620056152 8.736757278442383 C 1.846554756164551 10.70919799804688 1.24029541015625 11.70743751525879 0.1147747039794922 11.70743751525879 C 2.23160457611084 11.70743751525879 3.662574768066406 11.04817771911621 4.417855262756348 9.739438056945801 C 4.639074802398682 9.767908096313477 4.862144947052002 9.786598205566406 5.090764999389648 9.786598205566406 L 6.94194507598877 9.786598205566406 C 9.752975463867188 9.786598205566406 12.03270530700684 7.596177577972412 12.03270530700684 4.893297672271729 C 12.03270530700684 2.19130802154541 9.752975463867188 -1.9073486328125e-06 6.94194507598877 -1.9073486328125e-06 L 5.090764999389648 -1.9073486328125e-06 M 5.090764999389648 -1.000001907348633 L 6.94194507598877 -1.000001907348633 C 10.30040550231934 -1.000001907348633 13.03270530700684 1.643717765808105 13.03270530700684 4.893297672271729 C 13.03270530700684 8.142877578735352 10.30040550231934 10.78659820556641 6.94194507598877 10.78659820556641 L 5.090764999389648 10.78659820556641 C 5.033726215362549 10.78659820556641 4.976028919219971 10.7856502532959 4.917500495910645 10.7837438583374 C 3.919271469116211 12.06083869934082 2.307235717773438 12.70743751525879 0.1147747039794922 12.70743751525879 L 0.1147747039794922 10.70743751525879 C 0.2983646392822266 10.70743751525879 0.4241952896118164 10.66455745697021 0.5631551742553711 10.43834781646729 C 0.6844339370727539 10.24091339111328 0.8322544097900391 9.86744213104248 0.9092226028442383 9.173958778381348 C -0.3106832504272461 8.063013076782227 -1.000004768371582 6.531307697296143 -1.000004768371582 4.893297672271729 C -1.000004768371582 1.643717765808105 1.732304573059082 -1.000001907348633 5.090764999389648 -1.000001907348633 Z" fill="#6a7a8e" transform="translate(1 1)"/></g></svg>