<?xml version="1.0" encoding="UTF-8"?>
<svg id="Layer_1" data-name="Layer 1" xmlns="http://www.w3.org/2000/svg" version="1.1" width="20px" height="24px" viewBox="0 0 20 24">
  <defs>
    <style>
      .cls-1 {
        fill: #3a56bc;
      }

      .cls-1, .cls-2 {
        stroke-width: 0px;
      }

      .cls-2 {
        fill: #ffaf24;
      }
    </style>
  </defs>
  <path class="cls-2" d="M11.143,13.395h-.286V.837c0-.462-.384-.837-.857-.837s-.857.375-.857.837v12.558h-.286c-1.102.006-1.994.877-2,1.953v3.349c.006,1.076.898,1.947,2,1.953h.286v2.512c.006.46.386.831.857.837.471-.006.851-.377.857-.837v-2.512h.286c1.102-.006,1.994-.877,2-1.953v-3.349c-.006-1.076-.898-1.947-2-1.953ZM11.429,18.698c0,.154-.128.279-.286.279h-2.286c-.158,0-.286-.125-.286-.279v-3.349c0-.154.128-.279.286-.279h2.286c.158,0,.286.125.286.279v3.349Z"/>
  <path class="cls-1" d="M4.286,4.465h-.286V.837c0-.462-.384-.837-.857-.837s-.857.375-.857.837v3.628h-.286c-1.102.006-1.994.877-2,1.953v3.349c.006,1.076.898,1.947,2,1.953h.286v11.442c.006.46.386.831.857.837.471-.006.851-.377.857-.837v-11.442h.286c1.102-.006,1.994-.877,2-1.953v-3.349c-.006-1.076-.898-1.947-2-1.953ZM4.571,9.767c0,.154-.128.279-.286.279h-2.286c-.158,0-.286-.125-.286-.279v-3.349c0-.154.128-.279.286-.279h2.286c.158,0,.286.125.286.279v3.349ZM18,5.581h-2.286c-1.102.006-1.994.877-2,1.953v3.349c.006,1.076.898,1.947,2,1.953h.286v10.326c.006.46.386.831.857.837.471-.006.851-.377.857-.837v-10.326h.286c1.102-.006,1.994-.877,2-1.953v-3.349c-.006-1.076-.898-1.947-2-1.953ZM18.286,10.884c0,.154-.128.279-.286.279h-2.286c-.158,0-.286-.125-.286-.279v-3.349c0-.154.128-.279.286-.279h2.286c.158,0,.286.125.286.279v3.349ZM16,4.186V.837c0-.462.384-.837.857-.837s.857.375.857.837v3.349c-.006.46-.386.831-.857.837-.471-.006-.851-.377-.857-.837Z"/>
</svg>