<?xml version="1.0" encoding="UTF-8"?>
<svg width="22px" height="24px" id="Layer_1" data-name="Layer 1" xmlns="http://www.w3.org/2000/svg" version="1.1" viewBox="0 0 22 24">
  <defs>
    <style>
      .cls-1 {
        fill: #3a56bc;
      }

      .cls-1, .cls-2 {
        stroke-width: 0px;
      }

      .cls-2 {
        fill: #ffaf24;
      }
    </style>
  </defs>
  <path class="cls-2" d="M18.333,13.842h-2.256c-.467,0-.846-.379-.846-.846s.379-.846.846-.846h2.256c.467,0,.846.379.846.846s-.379.846-.846.846ZM18.333,17.228h-2.256c-.467,0-.846-.379-.846-.846s.379-.846.846-.846h2.256c.467,0,.846.379.846.846s-.379.846-.846.846ZM18.333,20.614h-2.256c-.467,0-.846-.379-.846-.846s.379-.846.846-.846h2.256c.467,0,.846.379.846.846s-.379.846-.846.846Z"/>
  <path class="cls-1" d="M20.026,8.763h-5.923v-2.878c-.002-.828-.52-1.567-1.297-1.851L1.895.084C1.461-.072.978-.009.598.253.231.514.01.932,0,1.382v20.643c.006,1.088.887,1.969,1.974,1.975h18.051c1.088-.006,1.968-.887,1.974-1.975v-11.286c-.006-1.088-.887-1.969-1.974-1.975ZM5.077,22.307v-3.95h3.949v3.95h-3.949ZM20.308,22.025c0,.156-.126.282-.282.282h-5.923v-9.311c0-.467-.379-.846-.846-.846s-.846.379-.846.846v9.311h-1.692v-4.232c0-.779-.631-1.411-1.41-1.411h-4.513c-.779,0-1.41.632-1.41,1.411v4.232h-1.41c-.156,0-.282-.126-.282-.282V1.788l10.537,3.837c.108.042.179.144.181.26v3.724c0,.468.379.846.846.846h6.769c.156,0,.282.126.282.282v11.286ZM3.949,7.353c0-.467.379-.846.846-.846h2.82c.467,0,.846.379.846.846s-.379.846-.846.846h-2.82c-.467,0-.846-.379-.846-.846ZM10.154,10.739c0,.468-.379.846-.846.846h-4.513c-.467,0-.846-.379-.846-.846s.379-.846.846-.846h4.513c.467,0,.846.379.846.846ZM10.154,14.124c0,.467-.379.846-.846.846h-4.513c-.467,0-.846-.379-.846-.846s.379-.846.846-.846h4.513c.467,0,.846.379.846.846Z"/>
</svg>