<?xml version="1.0" encoding="UTF-8"?>
<!-- Generator: Adobe Illustrator 24.2.1, SVG Export Plug-In . SVG Version: 6.00 Build 0)  -->
<svg xmlns="http://www.w3.org/2000/svg" xmlns:xlink="http://www.w3.org/1999/xlink" version="1.1" id="Layer_1" x="0px" y="0px" viewBox="0 0 31.669 32.341" style="enable-background:new 0 0 31.669 32.341;" xml:space="preserve">
<style type="text/css">
	.st0{fill:#3A56BC;}
	.st1{fill:#FFAF24;}
</style>
<g id="Group-15" transform="translate(392.000000, 2519.000000)">
	<path class="st0" d="M-381.597-2491.257c-0.786,0-1.571-0.299-2.169-0.896l-7.335-7.337c-0.579-0.578-0.898-1.349-0.898-2.168   c0-0.82,0.319-1.59,0.898-2.169l14.319-14.273c0.568-0.57,1.358-0.898,2.166-0.899h7.16c0.809,0,1.601,0.328,2.17,0.9   c0.579,0.579,0.898,1.349,0.898,2.168v7.289c0,0.82-0.318,1.591-0.897,2.17c-0.4,0.399-1.047,0.399-1.447,0   c-0.399-0.399-0.399-1.047,0-1.446c0.193-0.193,0.3-0.45,0.3-0.724v-7.289c0-0.273-0.106-0.53-0.301-0.723   c-0.189-0.191-0.453-0.299-0.723-0.299h-7.159c-0.268,0-0.531,0.109-0.721,0.299l-14.32,14.274   c-0.192,0.192-0.298,0.449-0.298,0.722c0,0.272,0.106,0.529,0.299,0.722l7.335,7.337c0.398,0.396,1.047,0.397,1.446-0.001   c0.399-0.398,1.046-0.399,1.447,0.001c0.399,0.399,0.399,1.047,0,1.446C-380.026-2491.556-380.812-2491.257-381.597-2491.257z"></path>
	<path class="st0" d="M-368.814-2512.91c0-0.843-0.683-1.529-1.526-1.533c-0.001,0-0.002-0.001-0.004-0.001   c-0.001,0-0.001,0-0.002,0c-0.001,0-0.001,0-0.002,0c-0.001,0-0.002,0.001-0.003,0.001c-0.406-0.007-0.798,0.164-1.083,0.448   c-0.285,0.285-0.448,0.681-0.448,1.085s0.163,0.8,0.447,1.083c0.285,0.287,0.681,0.451,1.085,0.451c0.002,0,0.004,0,0.006,0   c0.001,0,0.002-0.001,0.004-0.001C-369.498-2511.381-368.814-2512.067-368.814-2512.91z"></path>
	<path class="st1" d="M-368.771-2486.659c-0.256,0-0.5-0.104-0.677-0.289l-6.393-6.669c-1.425-1.424-1.78-3.613-0.87-5.433   c0.676-1.354,1.972-2.306,3.466-2.548c1.49-0.24,3.022,0.251,4.093,1.321l0.381,0.381l0.381-0.381   c1.07-1.07,2.598-1.561,4.094-1.321c1.492,0.242,2.788,1.194,3.465,2.547c0.91,1.821,0.555,4.011-0.884,5.448l-6.379,6.654   C-368.271-2486.763-368.515-2486.659-368.771-2486.659z M-372.49-2499.783c-0.151,0-0.303,0.012-0.454,0.037   c-0.9,0.146-1.681,0.719-2.089,1.534c-0.548,1.098-0.334,2.417,0.533,3.283l5.729,5.978l5.716-5.963   c0.881-0.881,1.096-2.2,0.547-3.298c-0.407-0.814-1.188-1.389-2.088-1.534c-0.899-0.152-1.823,0.15-2.468,0.796l-1.044,1.044   c-0.367,0.365-0.959,0.365-1.326,0l-1.044-1.044C-371.014-2499.487-371.742-2499.783-372.49-2499.783z"></path>
</g>
</svg>
