<?xml version="1.0" encoding="UTF-8"?>
<!-- Generator: Adobe Illustrator 24.2.1, SVG Export Plug-In . SVG Version: 6.00 Build 0)  -->
<svg xmlns="http://www.w3.org/2000/svg" xmlns:xlink="http://www.w3.org/1999/xlink" version="1.1" id="Layer_1" x="0px" y="0px" viewBox="0 0 30 30" style="enable-background:new 0 0 30 30;" xml:space="preserve">
<style type="text/css">
	.st0{fill:#FFAF24;}
	.st1{fill:#3A56BC;}
</style>
<g id="pie-line-graph-desktop" transform="translate(391.000000, 2224.000000)">
	<path class="st0" d="M-380.689-2211.259c-0.494,0-0.977-0.2-1.326-0.549l-2.424-2.424l-2.512,2.434   c-0.372,0.36-0.964,0.352-1.326-0.021c-0.36-0.372-0.351-0.965,0.021-1.326l2.501-2.424c0.68-0.682,1.94-0.694,2.643,0.011   l2.423,2.423l4.961-4.962c0.366-0.366,0.96-0.367,1.326,0c0.366,0.366,0.366,0.96,0,1.326l-4.961,4.963   C-379.717-2211.454-380.188-2211.259-380.689-2211.259z"></path>
	<path class="st1" d="M-365.69-2223.997h-20.625c-2.584,0-4.688,2.103-4.688,4.688v15c0,2.585,2.103,4.688,4.688,4.688h6.393   l-0.625,3.75h-2.018c-0.518,0-0.938,0.42-0.938,0.938s0.42,0.938,0.938,0.938h2.812h7.5h2.812c0.518,0,0.938-0.42,0.938-0.938   s-0.42-0.938-0.938-0.938h-2.018l-0.625-3.75h6.393c2.585,0,4.688-2.103,4.688-4.688v-15   C-361.003-2221.894-363.105-2223.997-365.69-2223.997z M-386.315-2222.122h20.625c1.551,0,2.812,1.262,2.812,2.812v14.063h-26.25   v-14.063C-389.127-2220.86-387.866-2222.122-386.315-2222.122z M-373.359-2195.871h-5.287l0.625-3.75h4.037L-373.359-2195.871z    M-365.69-2201.496h-7.5h-5.625h-7.5c-1.22,0-2.251-0.786-2.64-1.875h25.904C-363.439-2202.282-364.47-2201.496-365.69-2201.496z"></path>
	<path class="st0" d="M-373.19-2208.06c-0.518,0-0.938-0.419-0.938-0.937v-2.812c0-0.518,0.42-0.938,0.938-0.938   s0.938,0.42,0.938,0.938v2.812C-372.253-2208.479-372.673-2208.06-373.19-2208.06z"></path>
	<path class="st0" d="M-365.69-2208.06c-0.518,0-0.938-0.419-0.938-0.937v-2.812c0-0.518,0.42-0.938,0.938-0.938   s0.938,0.42,0.938,0.938v2.812C-364.753-2208.479-365.173-2208.06-365.69-2208.06z"></path>
	<path class="st0" d="M-369.44-2208.06c-0.518,0-0.938-0.419-0.938-0.937v-5.625c0-0.518,0.42-0.938,0.938-0.938   s0.938,0.42,0.938,0.938v5.625C-368.503-2208.479-368.923-2208.06-369.44-2208.06z"></path>
</g>
</svg>
