<?xml version="1.0" encoding="UTF-8"?>
<!-- Generator: Adobe Illustrator 25.3.1, SVG Export Plug-In . SVG Version: 6.00 Build 0)  -->
<svg xmlns="http://www.w3.org/2000/svg" xmlns:xlink="http://www.w3.org/1999/xlink" version="1.1" id="Layer_1" x="0px" y="0px" viewBox="0 0 43 38" style="enable-background:new 0 0 43 38;" xml:space="preserve">
<style type="text/css">
	.st0{fill:#3A56BC;}
	.st1{fill:#FEB22D;}
</style>
<path id="Path" class="st0" d="M17.083,31.5H2.917C1.308,31.5,0,30.207,0,28.618V6.382C0,4.793,1.308,3.5,2.917,3.5h24.167  C28.692,3.5,30,4.793,30,6.382v12.353c0,0.682-0.56,1.235-1.25,1.235s-1.25-0.553-1.25-1.235V6.382c0-0.227-0.187-0.412-0.417-0.412  H2.917C2.687,5.97,2.5,6.154,2.5,6.382v22.235c0,0.227,0.187,0.412,0.417,0.412h14.167c0.69,0,1.25,0.553,1.25,1.235  S17.773,31.5,17.083,31.5z"></path>
<path id="Shape" class="st1" d="M18.333,21.618h-1.25c-0.69,0-1.25-0.553-1.25-1.235v-7.412c0-0.682,0.56-1.235,1.25-1.235h1.25  c2.757,0,5,2.217,5,4.941S21.09,21.618,18.333,21.618z M18.333,14.206v4.941c1.378,0,2.5-1.108,2.5-2.471  S19.712,14.206,18.333,14.206z"></path>
<path class="st1" d="M10,11.735c-1.838,0-3.333,1.477-3.333,3.294v5.353c0,0.682,0.56,1.235,1.25,1.235s1.25-0.553,1.25-1.235  v-1.235h1.667v1.235c0,0.682,0.56,1.235,1.25,1.235s1.25-0.553,1.25-1.235v-5.353C13.333,13.213,11.838,11.735,10,11.735z   M9.167,16.676v-1.647c0-0.453,0.375-0.824,0.833-0.824s0.833,0.371,0.833,0.824v1.647H9.167z"></path>
<path id="Path_3_" class="st1" d="M42.987,33.108l-0.76-5.151c-0.098-0.661-0.7-1.116-1.347-1.017  c-0.646,0.1-1.092,0.717-0.994,1.378l0.281,1.903l-6.986-5.469c-0.442-0.35-1.063-0.336-1.489,0.034l-5.5,4.527l-6.17-3.717  c-0.632-0.473-1.212-0.473-1.674,0s-0.462,1.24,0,1.712l6.94,4.505c0.436,0.445,1.132,0.475,1.602,0.068l5.6-4.614l6.129,4.791  l-1.931-0.011c-0.655-0.003-1.187,0.535-1.191,1.204c-0.004,0.669,0.523,1.214,1.177,1.218l5.135,0.031c0.002,0,0.005,0,0.007,0  c0.343,0,0.67-0.153,0.895-0.418C42.938,33.814,43.038,33.458,42.987,33.108z"></path>
</svg>
