<?xml version="1.0" encoding="utf-8" ?>
<svg xmlns="http://www.w3.org/2000/svg" xmlns:xlink="http://www.w3.org/1999/xlink" width="34" height="34">
	<path fill="none" stroke="#3A56BC" stroke-width="2.1300001" stroke-linecap="round" stroke-linejoin="round" transform="translate(1.34814 1.15356)" d="M28.453278 11.494384C28.799955 11.161069 29.119968 10.827755 29.426645 10.481108C30.189661 9.6419926 30.189661 8.3603907 29.426645 7.5212755C25.933186 3.6681607 20.332981 -0.091625892 14.999454 0.0017021438C9.665926 0.095030181 4.065722 3.6681607 0.57226163 7.5212755C-0.19075388 8.3603907 -0.19075388 9.6419926 0.57226163 10.481108C2.9249682 13.099383 5.7881265 15.209122 8.9859018 16.680756" fill-rule="evenodd"/>
	<path fill="none" stroke="#3A56BC" stroke-width="2.1300001" stroke-linecap="round" stroke-linejoin="round" transform="translate(11.3515 5.15862)" d="M1.342666 8.409277C-0.2418876 6.7095451 -0.44642618 4.1422701 0.84900975 2.2131279C2.1444457 0.28398591 4.5983481 -0.49845499 6.7715325 0.32469752C8.9447174 1.14785 10.264279 3.3595932 9.9563131 5.662766" fill-rule="evenodd"/>
	<path fill="none" stroke="#FFAF24" stroke-width="2.1300001" stroke-linecap="round" stroke-linejoin="round" transform="translate(14.3475 14.1545)" d="M0 6.9996028C0 10.865376 3.1341209 13.999206 7.0002551 13.999206C10.866389 13.999206 14.00051 10.865376 14.00051 6.9996028C14.00051 3.1338289 10.866389 0 7.0002551 0C3.1341209 0 0 3.1338289 0 6.9996028" fill-rule="evenodd"/>
	<path fill="none" stroke="#FFAF24" stroke-width="2.1300001" stroke-linecap="round" stroke-linejoin="round" transform="translate(26.3346 26.1405)" d="M5.0135159 5.0130486L0 0" fill-rule="evenodd"/>
</svg>
