<?xml version="1.0" encoding="UTF-8"?>
<svg width="24px" height="24px" viewBox="0 0 24 24" version="1.1" xmlns="http://www.w3.org/2000/svg" xmlns:xlink="http://www.w3.org/1999/xlink">
    <title>Group 5</title>
    <g id="Page-1" stroke="none" stroke-width="1" fill="none" fill-rule="evenodd" stroke-linecap="round" stroke-linejoin="round">
        <g id="Products-dropdown-menu-V1" transform="translate(-748, -322)" stroke-width="1.5">
            <g id="gauge-dashboard-1" transform="translate(749, 323)">
                <path d="M8.06666667,14.212 L8.06666667,13.9333333 C8.06666667,12.3132981 9.37996473,11 11,11 C12.6200353,11 13.9333333,12.3132981 13.9333333,13.9333333 L13.9333333,14.212" id="Shape" stroke="#3A56BC"></path>
                <line x1="13.2019556" y1="4.4" x2="11.0019556" y2="11" id="Shape" stroke="#3A56BC"></line>
                <path d="M5.50195556,6.6 C5.29945115,6.6 5.13528889,6.76416226 5.13528889,6.96666667 C5.13528889,7.16917107 5.29945115,7.33333333 5.50195556,7.33333333 C5.70445996,7.33333333 5.86862222,7.16917107 5.86862222,6.96666667 C5.86862222,6.76416226 5.70445996,6.6 5.50195556,6.6 L5.50195556,6.6" id="Shape" stroke="#FFAF24"></path>
                <path d="M17.9686222,10.2666667 C17.7661178,10.2666667 17.6019556,10.4308289 17.6019556,10.6333333 C17.6019556,10.8358377 17.7661178,11 17.9686222,11 C18.1711266,11 18.3352889,10.8358377 18.3352889,10.6333333 C18.3352889,10.4308289 18.1711266,10.2666667 17.9686222,10.2666667 L17.9686222,10.2666667" id="Shape" stroke="#FFAF24"></path>
                <path d="M16.5019556,6.59999475 C16.3534773,6.5992081 16.2191784,6.68803974 16.1618087,6.82498909 C16.1044389,6.96193844 16.1353249,7.11996798 16.2400352,7.22523977 C16.3447455,7.33051157 16.5026077,7.3622421 16.6398618,7.30560556 C16.777116,7.24896902 16.8666646,7.11514699 16.8666667,6.96666667 C16.8666667,6.76416226 16.7025044,6.59999475 16.5,6.59999475 L16.5,6.59999475" id="Shape" stroke="#FFAF24"></path>
                <path d="M8.43528889,3.66666667 C8.23278448,3.66666667 8.06862222,3.83082893 8.06862222,4.03333333 C8.06862222,4.23583774 8.23278448,4.4 8.43528889,4.4 C8.6377933,4.4 8.80195556,4.23583774 8.80195556,4.03333333 C8.80195556,3.83082893 8.6377933,3.66666667 8.43528889,3.66666667 L8.43528889,3.66666667" id="Shape" stroke="#FFAF24"></path>
                <path d="M20.2214222,16.9986667 C14.7531263,12.9115206 7.24687373,12.9115206 1.77857778,16.9986667" id="Shape" stroke="#3A56BC"></path>
                <circle id="Oval" stroke="#3A56BC" cx="11" cy="11" r="11"></circle>
                <path d="M4.03528889,10.2666667 C3.83278448,10.2666667 3.66862222,10.4308289 3.66862222,10.6333333 C3.66862222,10.8358377 3.83278448,11 4.03528889,11 C4.2377933,11 4.40195556,10.8358377 4.40195556,10.6333333 C4.40195556,10.4308289 4.2377933,10.2666667 4.03528889,10.2666667" id="Shape" stroke="#FFAF24"></path>
            </g>
        </g>
    </g>
</svg>