<?xml version="1.0" encoding="UTF-8"?>
<svg width="44px" height="44px" viewBox="0 0 44 44" version="1.1" xmlns="http://www.w3.org/2000/svg" xmlns:xlink="http://www.w3.org/1999/xlink">
    <title>Group</title>
    <g id="New" stroke="none" stroke-width="1" fill="none" fill-rule="evenodd">
        <g id="Use-Case-page---Auditing" transform="translate(-938, -746)">
            <g id="Group-19" transform="translate(823, 732)">
                <g id="Group-26-Copy" transform="translate(101, 0)">
                    <g id="Group" transform="translate(16, 16)">
                        <path d="M18.0279815,7.03626525 C18.5312754,7.59492913 19.2479311,7.91388741 19.9998788,7.91388741 C20.7518264,7.91388741 21.4684821,7.59492913 21.971776,7.03626525 L23.2465926,5.62450806 C23.9998257,4.78954797 25.1971613,4.5192314 26.2360726,4.94958786 C27.274984,5.37994432 27.9304197,6.41774907 27.8725496,7.54075485 L27.774904,9.43937163 C27.7367229,10.1902773 28.0183531,10.9222262 28.5500224,11.4538826 C29.0816918,11.985539 29.8136586,12.2671623 30.5645825,12.2289821 L32.4632456,12.1326952 C33.5848702,12.0773992 34.6201263,12.7332741 35.0492336,13.7710188 C35.4783408,14.8087635 35.2086113,16.0042234 34.3754706,16.7571832 L32.9623228,18.0333249 C32.4044233,18.5370514 32.0860167,19.2535245 32.0860167,20.005174 C32.0860167,20.7568236 32.4044233,21.4732967 32.9623228,21.9770232 L34.3754706,23.2518087 C35.210451,24.0050235 35.4807742,25.2023299 35.0504072,26.2412159 C34.6200403,27.2801019 33.5822102,27.9355217 32.459177,27.8776529 L30.560514,27.7800098 C29.8098378,27.7418617 29.0781021,28.0233048 28.5464797,28.5546559 C28.0148573,29.0860069 27.7330515,29.8175878 27.7708355,30.5682641 L27.868481,32.4668809 C27.9229927,33.5874325 27.2677291,34.6214494 26.2311561,35.0506069 C25.1945832,35.4797644 24.0001496,35.2115512 23.2465926,34.3804154 L21.971776,32.9686582 C21.4680372,32.4107723 20.7515467,32.0923735 19.9998788,32.0923735 C19.2482109,32.0923735 18.5317203,32.4107723 18.0279815,32.9686582 L16.7531649,34.3804154 C15.9995069,35.2088639 14.807244,35.4757226 13.7723206,35.0476042 C12.7373972,34.6194857 12.0821057,33.588346 12.1339889,32.4695932 L12.2316344,30.5709764 C12.2712464,29.8183638 11.9891717,29.0843724 11.4557275,28.551976 C10.9222833,28.0195796 10.1877276,27.7389374 9.43517497,27.7800098 L7.53651191,27.8776529 C6.41423687,27.9336546 5.37809113,27.2775756 4.94882981,26.2391539 C4.51956849,25.2007321 4.79003141,24.0045555 5.62428696,23.2518087 L7.03743476,21.9770232 C7.59533426,21.4732967 7.9137408,20.7568236 7.9137408,20.005174 C7.9137408,19.2535245 7.59533426,18.5370514 7.03743476,18.0333249 L5.62428696,16.7571832 C4.79692082,16.003338 4.53077886,14.8118136 4.9587563,13.7775853 C5.38673374,12.743357 6.41702134,12.0882863 7.53515572,12.1394759 L9.43381879,12.2357629 C10.186201,12.2753398 10.9199776,11.9934518 11.4523396,11.4603268 C11.9847015,10.9272018 12.2655273,10.1930332 12.2248535,9.44072779 L12.1339889,7.54075485 C12.0821057,6.42200202 12.7373972,5.39086237 13.7723206,4.9627439 C14.807244,4.53462542 15.9995069,4.80148418 16.7531649,5.62993268 L18.0279815,7.03626525 Z" id="Shape" stroke="#2A4BC2" stroke-width="2.57449345" stroke-linecap="round" stroke-linejoin="round" transform="translate(20, 20) rotate(67) translate(-20, -20)"></path>
                        <circle id="Oval" fill="#FFAF24" cx="19.6160323" cy="26.7392946" r="1.31078618"></circle>
                        <line x1="19.7034181" y1="14.0683615" x2="19.7034181" y2="22.4573931" id="Shape" stroke="#FFAF24" stroke-width="2.45008405" stroke-linecap="round" stroke-linejoin="round"></line>
                    </g>
                </g>
            </g>
        </g>
    </g>
</svg>