<?xml version="1.0" encoding="UTF-8"?>
<svg width="36px" height="36px" viewBox="0 0 36 36" version="1.1" xmlns="http://www.w3.org/2000/svg" xmlns:xlink="http://www.w3.org/1999/xlink">
    <title>Group 26</title>
    <g id="Page-1" stroke="none" stroke-width="1" fill="none" fill-rule="evenodd" stroke-linecap="round" stroke-linejoin="round">
        <g id="Pricing---Anually-V2.3.3" transform="translate(-694, -1684)" stroke-width="2.14">
            <g id="Group-36" transform="translate(672, 1660)">
                <g id="task-list-check-1" transform="translate(24, 26)">
                    <line x1="6.4" y1="13.8666667" x2="13.8666667" y2="13.8666667" id="Shape" stroke="#3A56BC"></line>
                    <line x1="6.4" y1="19.2" x2="10.6666667" y2="19.2" id="Shape" stroke="#3A56BC"></line>
                    <line x1="6.4" y1="24.5333333" x2="10.6666667" y2="24.5333333" id="Shape" stroke="#3A56BC"></line>
                    <path d="M12.8,32 L2.13333333,32 C0.955125867,32 0,31.0448741 0,29.8666667 L0,7.46666667 C0,6.2884592 0.955125867,5.33333333 2.13333333,5.33333333 L7.46666667,5.33333333 C7.46666667,2.38781467 9.85448133,0 12.8,0 C15.7455187,0 18.1333333,2.38781467 18.1333333,5.33333333 L23.4666667,5.33333333 C24.6448741,5.33333333 25.6,6.2884592 25.6,7.46666667 L25.6,10.6666667" id="Shape" stroke="#3A56BC"></path>
                    <path d="M12.8,4.26666667 C13.0945519,4.26666667 13.3333333,4.50544813 13.3333333,4.8 C13.3333333,5.09455187 13.0945519,5.33333333 12.8,5.33333333 C12.5054481,5.33333333 12.2666667,5.09455187 12.2666667,4.8 C12.2666667,4.50544813 12.5054481,4.26666667 12.8,4.26666667" id="Shape" stroke="#3A56BC"></path>
                    <circle id="Oval" stroke="#FFAF24" cx="23.4666667" cy="23.4666667" r="8.53333333"></circle>
                    <path d="M27.2696889,20.9848889 L23.1381333,26.4945778 C22.9522525,26.7417942 22.6683322,26.8962928 22.3598012,26.9181163 C22.0512703,26.9399399 21.7484291,26.8269452 21.5296,26.6083556 L19.3962667,24.4750222" id="Shape" stroke="#FFAF24"></path>
                </g>
            </g>
        </g>
    </g>
</svg>