<?xml version="1.0" encoding="UTF-8"?>
<svg width="36px" height="37px" viewBox="0 0 36 37" version="1.1" xmlns="http://www.w3.org/2000/svg" xmlns:xlink="http://www.w3.org/1999/xlink">
    <title>startup-launch-1</title>
    <g id="New" stroke="none" stroke-width="1" fill="none" fill-rule="evenodd" stroke-linecap="round" stroke-linejoin="round">
        <g id="Agency-V3" transform="translate(-791, -7998)" stroke-width="2.28545159">
            <g id="startup-launch-1" transform="translate(793, 8000)">
                <path d="M6.15079649,31.6954606 C4.17007178,33.6815831 0.191862374,32.809217 0.191862374,32.809217 C0.191862374,32.809217 -0.682703768,28.8247496 1.30259185,26.8340436 C1.90333901,26.1830744 2.76532842,25.8392508 3.64785702,25.8985825 C4.53038562,25.9579143 5.33888666,26.4140439 5.84759324,27.139601 C6.57042614,27.6499783 7.0246333,28.460474 7.08349886,29.3449739 C7.14236442,30.2294738 6.79958736,31.0933002 6.15079649,31.6954606 L6.15079649,31.6954606 Z" id="Shape" stroke="#3A56BC"></path>
                <line x1="27.2897001" y1="5.62989358" x2="29.2810902" y2="3.63307651" id="Shape" stroke="#3A56BC"></line>
                <path d="M27.5548124,12.6072949 L27.2897001,5.62989358 L20.3312618,5.36405871 C18.2424422,5.40870325 16.3128186,6.49299335 15.1844248,8.25615873 L7.61958004,20.8099811 L12.1386797,25.3475073 L24.6583835,17.768158 C26.4224266,16.6404884 27.508949,14.7045207 27.5548124,12.6072949 L27.5548124,12.6072949 Z" id="Shape" stroke="#3A56BC"></path>
                <path d="M10.7841687,15.5650898 L9.10817085,14.969253 C8.06021669,14.5626834 6.87229643,14.8009149 6.06090206,15.5803676 L3.12942948,18.5121901 C2.93867196,18.7131187 2.87946388,19.00581 2.97706605,19.2653889 C3.07357342,19.5423405 3.30266242,19.7519539 3.5865198,19.823031 L7.62415095,20.8160923" id="Shape" stroke="#3A56BC"></path>
                <path d="M17.3236075,22.2124892 L17.9696285,23.8594432 C18.3778525,24.908222 18.1444796,26.0991066 17.3708402,26.9150163 L14.4424149,29.8621167 C14.2419079,30.0543438 13.9490187,30.1137947 13.6897395,30.0148953 C13.4142848,29.917461 13.205974,29.6879242 13.1351365,29.4037807 L12.1447742,25.3551462" id="Shape" stroke="#3A56BC"></path>
                <ellipse id="Oval" stroke="#3A56BC" cx="20.3922072" cy="12.5461835" rx="2.28545159" ry="2.29167988"></ellipse>
                <path d="M31.6168217,24.4445854 L28.9504616,24.4445854 C28.1523813,24.4945717 27.544074,25.1809531 27.5883324,25.9815387 C27.5718616,26.5843067 27.9060341,27.141785 28.4446149,27.4100192 L31.1414478,28.3541913 C31.6797609,28.6227163 32.0138194,29.1800044 31.9977303,29.7826718 C32.0419888,30.5832574 31.4336814,31.2696388 30.6356012,31.3196251 L27.4268272,31.3196251" id="Shape" stroke="#FFAF24"></path>
                <line x1="29.7122788" y1="24.4445854" x2="29.7122788" y2="22.9167988" id="Shape" stroke="#FFAF24"></line>
                <line x1="29.7122788" y1="32.8474117" x2="29.7122788" y2="31.3196251" id="Shape" stroke="#FFAF24"></line>
                <path d="M4.18987902,1.52778659 L1.52504247,1.52778659 C0.726355037,1.57697037 0.11715216,2.26359412 0.161389686,3.0647399 C0.144918875,3.66750787 0.479091414,4.22498618 1.01767222,4.49322036 L3.71450509,5.43739247 C4.25281819,5.70591743 4.58687673,6.26320557 4.57078762,6.86587293 C4.61504606,7.66645859 4.00673868,8.35283994 3.20865847,8.40282624 L0.00140807468,8.40282624" id="Shape" stroke="#FFAF24"></path>
                <line x1="2.28533603" y1="1.52778659" x2="2.28533603" y2="0" id="Shape" stroke="#FFAF24"></line>
                <line x1="2.28533603" y1="9.93061283" x2="2.28533603" y2="8.40282624" id="Shape" stroke="#FFAF24"></line>
            </g>
        </g>
    </g>
</svg>