<svg xmlns="http://www.w3.org/2000/svg" width="12.727" height="12.719" viewBox="0 0 12.727 12.719"><g id="Group_53" data-name="Group 53" transform="translate(-95.546 -.641)" fill="#6a7a8f"><circle id="Oval" cx="2.053" cy="2.053" r="2.053" transform="translate(95.577 9.232)"/><path id="Path" d="M6.877,7.9a1.026,1.026,0,0,0,2.053,0A7.913,7.913,0,0,0,1.026,0a1.026,1.026,0,0,0,0,2.053A5.854,5.854,0,0,1,6.877,7.9Z" transform="translate(95.546 4.43)"/><path id="Path-2" data-name="Path" d="M11.691,12.717a1.029,1.029,0,0,0,1.026-1.026A11.7,11.7,0,0,0,1.026,0a1.026,1.026,0,0,0,0,2.053,9.646,9.646,0,0,1,9.638,9.638A1.023,1.023,0,0,0,11.691,12.717Z" transform="translate(95.556 .641)"/></g></svg>