<?xml version="1.0" encoding="UTF-8"?>
<svg width="36px" height="32px" viewBox="0 0 36 32" version="1.1" xmlns="http://www.w3.org/2000/svg" xmlns:xlink="http://www.w3.org/1999/xlink">
    <title>Group</title>
    <g id="New" stroke="none" stroke-width="1" fill="none" fill-rule="evenodd" stroke-linecap="round" stroke-linejoin="round">
        <g id="Agency-V3" transform="translate(-488, -8347)" stroke-width="2.13333333">
            <g id="cash-payment-bill-1" transform="translate(490, 8349)">
                <path d="M4.36337778,19.9230769 L7.67857778,18.4254359 C8.34759027,17.9755032 8.80220708,17.2659689 8.9344,16.4654359 L9.45777778,13.3150769 L13.9392,10.0828718 C14.3213396,9.80730819 14.5480702,9.362323 14.5479112,8.88820513 L14.5479112,8.05538462 C14.5471485,7.57796972 14.3164059,7.13076944 13.9293361,6.85652968 C13.5422663,6.58228991 13.0472556,6.51529254 12.6023111,6.67692308 L6.62755556,8.83076923 C5.13007995,9.37019805 3.73866194,10.1722448 2.51733333,11.2 L0,13.3150769" id="Shape" stroke="#3A56BC"></path>
                <path d="M0,28 L3.27111111,25.5833846 C3.97035291,25.0585008 4.81756586,24.7732134 5.68888889,24.7692308 L14.9333333,24.7692308" id="Shape" stroke="#3A56BC"></path>
                <path d="M14.9333333,24.7693022 L20.0419556,24.7693022 C20.6599779,24.7753649 21.2141209,24.3858669 21.4229333,23.7985641 L24.0341333,16.1538462" id="Shape" stroke="#3A56BC"></path>
                <path d="M17.8901333,10.1862564 C18.5152345,11.0151753 19.5015323,11.4841251 20.5326222,11.4426667 C22.1525333,11.4426667 23.4666667,10.4475897 23.4666667,9.22133333 C23.4666667,7.99507692 22.1525333,7.0014359 20.5326222,7.0014359 C18.9127111,7.0014359 17.6,6.00635897 17.6,4.77866667 C17.6,3.55097436 18.9141333,2.55733333 20.5326222,2.55733333 C21.5638606,2.51513559 22.5504799,2.98423828 23.1751111,3.81374359" id="Shape" stroke="#FFAF24"></path>
                <line x1="20.5326222" y1="11.4426667" x2="20.5326222" y2="12.9230769" id="Shape" stroke="#FFAF24"></line>
                <line x1="20.5326222" y1="1.07692308" x2="20.5326222" y2="2.55733333" id="Shape" stroke="#FFAF24"></line>
                <path d="M18.1333333,20.4615385 L14.9333333,20.4615385 C13.7551259,20.4615385 12.8,21.4258482 12.8,22.6153846 L12.8,22.6153846 C12.8,23.804921 13.7551259,24.7692308 14.9333333,24.7692308" id="Shape" stroke="#3A56BC"></path>
                <path d="M24.5333333,16.1538462 L18.1333333,16.1538462 C16.9551259,16.1538462 16,17.1181559 16,18.3076923 L16,18.3076923 C16,19.4972287 16.9551259,20.4615385 18.1333333,20.4615385 L22.5621333,20.4615385" id="Shape" stroke="#3A56BC"></path>
                <path d="M25.6,0 L29.8666667,0 C31.0448741,0 32,0.96430977 32,2.15384615 L32,14 C32,15.1895364 31.0448741,16.1538462 29.8666667,16.1538462 L13.8666667,16.1538462" id="Shape" stroke="#FFAF24"></path>
                <path d="M6.4,4.30769231 L6.4,2.15384615 C6.4,0.96430977 7.35512587,0 8.53333333,0 L16,0" id="Shape" stroke="#FFAF24"></path>
            </g>
        </g>
    </g>
</svg>