<?xml version="1.0" encoding="UTF-8"?>
<svg width="34px" height="36px" viewBox="0 0 34 36" version="1.1" xmlns="http://www.w3.org/2000/svg" xmlns:xlink="http://www.w3.org/1999/xlink">
    <title>Group 26 Copy 2</title>
    <g id="Page-1" stroke="none" stroke-width="1" fill="none" fill-rule="evenodd" stroke-linecap="round" stroke-linejoin="round">
        <g id="Pricing---Anually-V2.3.3" transform="translate(-996, -2017)" stroke-width="2.13317719">
            <g id="Group-34" transform="translate(974, 1993)">
                <g id="currency-dollar-increase" transform="translate(24, 26)">
                    <polyline id="Shape" stroke="#2A4BC2" points="30 23.4616028 30 17.0620712 23.5714286 17.0620712"></polyline>
                    <path d="M30,17.0620712 L22.7857143,24.246612 C21.94967,25.07858 20.7226273,25.3870947 19.59,25.0501087 L11.4285714,22.8771122 C10.3197689,22.5825091 9.13728877,22.8984721 8.32571429,23.7062071 L0,32" id="Shape" stroke="#2A4BC2"></path>
                    <path d="M15,6.40187376 L12.0957143,6.40187376 C11.177683,6.40251206 10.3889526,7.0509186 10.2147448,7.94819782 C10.0405371,8.84547703 10.5297524,9.7397616 11.3814286,10.0808934 L14.33,11.2541408 C15.183654,11.5940892 15.6746799,12.4894712 15.5002728,13.3881244 C15.3258657,14.2867776 14.5351381,14.9356442 13.6157143,14.9345838 L10.7142857,14.9345838" id="Shape" stroke="#FFAF24"></path>
                    <line x1="12.8571429" y1="6.40187376" x2="12.8571429" y2="5.33528517" id="Shape" stroke="#FFAF24"></line>
                    <line x1="12.8571429" y1="16.0011711" x2="12.8571429" y2="14.9345825" id="Shape" stroke="#FFAF24"></line>
                    <path d="M23.36,12.7800736 C24.4111508,7.60184792 21.4960705,2.43783962 16.5063409,0.638948994 C11.5166113,-1.15994163 5.95587327,0.948376076 3.43246329,5.59582481 C0.909053302,10.2432735 2.18339385,16.0293576 6.42857143,19.1995148" id="Shape" stroke="#2A4BC2"></path>
                </g>
            </g>
        </g>
    </g>
</svg>