<?xml version="1.0" encoding="UTF-8"?>
<svg width="36px" height="36px" viewBox="0 0 36 36" version="1.1" xmlns="http://www.w3.org/2000/svg" xmlns:xlink="http://www.w3.org/1999/xlink">
    <title>Group</title>
    <g id="New" stroke="none" stroke-width="1" fill="none" fill-rule="evenodd" stroke-linecap="round" stroke-linejoin="round">
        <g id="Use-Case-page---Monitoring" transform="translate(-1345, -753)" stroke-width="2.13333333">
            <g id="Group-22" transform="translate(1208, 735)">
                <g id="Group-26-Copy-2" transform="translate(119, 0)">
                    <g id="monetization-user-monitor" transform="translate(20, 20)">
                        <path d="M26.6666667,0.000551800839 L29.3333333,0.000551800839 C30.7766012,-0.0288099268 31.9704534,1.11726846 32,2.56050766 L32,14.5069683 C31.9704534,15.9502075 30.7766012,17.0962859 29.3333333,17.0669242 L20.2666667,17.0669242" id="Shape" stroke="#2A4BC2"></path>
                        <path d="M10.6666667,4.26714489 L10.6666667,2.56050766 C10.6301156,1.89107328 10.8720338,1.23632583 11.3350737,0.751475615 C11.7981137,0.266625399 12.441048,-0.0051583168 13.1114667,0.000551800839 L16,0.000551800839" id="Shape" stroke="#2A4BC2"></path>
                        <line x1="21.3333333" y1="17.0669242" x2="21.3333333" y2="21.3335173" id="Shape" stroke="#2A4BC2"></line>
                        <line x1="19.2" y1="21.3335173" x2="24.5333333" y2="21.3335173" id="Shape" stroke="#2A4BC2"></line>
                        <path d="M19.2,32 C19.2,26.6981578 14.9019336,22.4001655 9.6,22.4001655 C4.2980664,22.4001655 0,26.6981578 0,32" id="Shape" stroke="#2A4BC2"></path>
                        <path d="M4.544,11.4222215 C7.3604717,14.3389589 11.6878907,15.2087313 15.4126222,13.6067172" id="Shape" stroke="#2A4BC2"></path>
                        <ellipse id="Oval" stroke="#2A4BC2" cx="9.6" cy="14.4003035" rx="5.86666667" ry="5.8665655"></ellipse>
                        <path d="M18.6908444,9.022974 C19.3154757,9.84456509 20.302095,10.3091921 21.3333333,10.267397 C22.9532444,10.267397 24.2659556,9.28181398 24.2659556,8.06725714 C24.2659556,6.85270031 22.9532444,5.8671173 21.3333333,5.8671173 C19.7134222,5.8671173 18.3992889,4.8815343 18.3992889,3.66555527 C18.3992889,2.44957624 19.7134222,1.46541543 21.3333333,1.46541543 C22.3644232,1.42435256 23.350721,1.88882816 23.9758222,2.70983842" id="Shape" stroke="#FFAF24"></path>
                        <line x1="21.3333333" y1="10.267397" x2="21.3333333" y2="11.7336828" id="Shape" stroke="#FFAF24"></line>
                        <line x1="21.3333333" y1="0.00055180084" x2="21.3333333" y2="1.46541543" id="Shape" stroke="#FFAF24"></line>
                    </g>
                </g>
            </g>
        </g>
    </g>
</svg>