<?xml version="1.0" encoding="UTF-8"?>
<svg width="260px" height="52px" viewBox="0 0 260 52" version="1.1" xmlns="http://www.w3.org/2000/svg" xmlns:xlink="http://www.w3.org/1999/xlink">
    <title>trueclicks copy</title>
    <g id="New" stroke="none" stroke-width="1" fill="none" fill-rule="evenodd">
        <g id="Comparison-home-page-V1.1" transform="translate(-830, -721)" fill-rule="nonzero">
            <g id="Group-7" transform="translate(774, 533)">
                <g id="trueclicks-copy" transform="translate(56, 188)">
                    <path d="M50.6659019,22.4329971 L50.6659019,11.6369677 C50.6659019,9.68160632 49.061432,8.10067527 47.0769074,8.10067527 L36.0987981,8.10067527 L50.6659019,22.4538556 C50.6659019,22.4434963 50.6659019,22.4434963 50.6659019,22.4329971 Z" id="Path" fill="#FF76DF"></path>
                    <path d="M5.6974386,8.10067527 C3.71292822,8.10067527 2.10842986,9.68160632 2.10842986,11.6369677 L2.10842986,22.4329971 C2.10842986,22.4434963 2.10842986,22.4538556 2.10842986,22.4538556 L16.6755195,8.10067527 L5.6974386,8.10067527 Z" id="Path" fill="#FF76DF"></path>
                    <path d="M51.7213883,23.5041979 L50.6657598,22.4640748 C50.6552462,24.4090909 49.0506342,25.9796347 47.0767653,25.9796347 L35.4546233,25.9796347 L35.4546233,43.0474522 C35.4546233,45.0028276 33.8501533,46.5837306 31.8656287,46.5837306 L20.9086889,46.5837306 C18.9241643,46.5837306 17.3195522,45.0028276 17.3195522,43.0474522 L17.3195522,25.9691355 L5.69755226,25.9691355 C3.72359816,25.9691355 2.11909981,24.3987317 2.10854352,22.4537156 L1.05295205,23.4938386 C-0.350984016,24.8770763 -0.350984016,27.1132709 1.05295205,28.4966486 L23.8537927,50.9624667 C25.2576506,52.3458444 27.5271806,52.3458444 28.9311806,50.9624667 L51.7319019,28.4966486 C53.1252462,27.1236301 53.1252462,24.8770763 51.7213883,23.5041979 Z" id="Path" fill="#00CDFA"></path>
                    <path d="M36.098514,8.10098324 L28.9203828,1.02838441 C27.5270386,-0.344523435 25.2469949,-0.344523435 23.8536506,1.03878564 L16.6755195,8.11138447 L2.10842986,22.4646348 C2.11898614,24.4095109 3.7234845,25.9800547 5.6974386,25.9800547 L17.3300659,25.9800547 L17.3300659,43.0478722 C17.3300659,45.0032476 18.9345358,46.5841506 20.9190604,46.5841506 L31.8761424,46.5841506 C33.860667,46.5841506 35.4651369,45.0032476 35.4651369,43.0478722 L35.4651369,25.9696955 L47.0766232,25.9696955 C49.0506342,25.9696955 50.6551041,24.3991517 50.6656178,22.4541355 L36.098514,8.10098324 Z" id="Path" fill="#3A00FF"></path>
                    <polygon id="Path" fill="#0D1247" points="88.4451806 20.2807963 79.7576287 20.2807963 79.7576287 42.3930006 74.1947653 42.3930006 74.1947653 20.2807963 65.5494101 20.2807963 65.5494101 15.5588056 88.4451806 15.5588056"></polygon>
                    <path d="M93.5649073,24.6185154 C94.9899347,22.6736393 97.1960986,21.3839147 100.172885,21.3423378 C100.563454,21.3423378 101.059585,21.4151324 101.481836,21.5710809 L101.481836,27.3123362 C101.481836,27.3123362 100.014612,27.0107985 98.8956177,27.0107985 C95.0321314,27.0107985 93.5649073,29.7149784 93.5649073,32.4087992 L93.5649073,42.3832014 L88.1603172,42.3832014 L88.1603172,21.7271693 L93.5649073,21.7271693 L93.5649073,24.6185154 Z" id="Path" fill="#0D1247"></path>
                    <path d="M123.838853,21.7271693 L123.838853,42.3935606 L118.465946,42.3935606 L118.465946,41.0206821 C116.882503,42.0816637 114.908634,42.6952383 112.755181,42.6952383 C106.61165,42.6952383 103.793137,39.8765468 103.793137,33.1784622 L103.793137,21.7271693 L109.166186,21.7271693 L109.166186,33.1784622 C109.166186,36.3714861 110.749487,37.9316706 113.726273,37.9316706 C115.658088,37.9316706 117.241388,37.317956 118.476459,36.2986914 L118.476459,21.7271693 L123.838853,21.7271693 Z" id="Path" fill="#0D1247"></path>
                    <path d="M132.685104,33.5520946 C133.265629,36.2562746 135.461279,38.1595738 138.670361,38.1595738 C140.876525,38.1595738 142.913333,37.1715269 144.075519,35.6114823 L147.516612,38.4300338 C145.584372,41.0198422 142.143279,42.6943983 138.058011,42.6943983 C131.724525,42.6943983 127.322711,37.9411899 127.322711,32.0439862 C127.322711,26.1050655 131.724525,21.3518571 138.058011,21.3518571 C144.507432,21.3518571 148.25541,25.9594762 148.25541,32.3871008 C148.25541,32.80315 148.212787,33.2191992 148.212787,33.5624538 L132.685104,33.5624538 L132.685104,33.5520946 Z M132.716787,30.1717647 L143.103716,30.1717647 C142.913333,27.8108393 141.636492,25.5641455 138.047497,25.5641455 C135.229126,25.5641455 133.223432,27.6235331 132.716787,30.1717647 Z" id="Shape" fill="#0D1247"></path>
                    <path d="M172.173989,34.0088808 L176.460437,37.5867362 C173.800765,40.7071053 169.778579,42.6831992 165.217924,42.6831992 C157.301421,42.6831992 150.851148,36.5571123 150.851148,28.9853524 C150.851148,21.4134525 157.301421,15.2457887 165.217924,15.2457887 C169.778579,15.2457887 173.789399,17.2634595 176.460437,20.3838287 L172.173989,23.961684 C170.63388,21.7879248 168.079344,20.4254056 165.217924,20.4254056 C160.468306,20.4254056 156.572568,23.8473125 156.572568,28.9853524 C156.572568,34.0504577 160.478252,37.5451592 165.217924,37.5451592 C168.079344,37.5556585 170.63388,36.18264 172.173989,34.0088808 Z" id="Path" fill="#0D1247"></path>
                    <polygon id="Path" fill="#0D1247" points="179.267869 13.6961034 184.672459 13.6961034 184.672459 42.3818015 179.267869 42.3818015"></polygon>
                    <path d="M188.904918,16.4001433 C188.904918,14.6840103 190.298689,13.2798722 191.997924,13.2798722 C193.697159,13.2798722 195.048306,14.6840103 195.048306,16.4001433 C195.048306,18.1162764 193.697159,19.4787956 191.997924,19.4787956 C190.298689,19.4787956 188.904918,18.1059172 188.904918,16.4001433 Z M189.338251,21.7253494 L194.711585,21.7253494 L194.711585,42.3918807 L189.338251,42.3918807 L189.338251,21.7253494 Z" id="Shape" fill="#0D1247"></path>
                    <path d="M217.595847,38.5444053 C215.70765,41.0926368 212.729727,42.6943983 209.488962,42.6943983 C203.156612,42.6943983 198.014863,37.9411899 198.014863,32.0439862 C198.014863,26.1050655 203.156612,21.3518571 209.488962,21.3518571 C212.84623,21.3518571 215.78153,22.9536186 217.681093,25.4601332 L214.208743,28.6220793 C213.16306,27.1034716 211.432568,26.1154247 209.500328,26.1154247 C206.100437,26.1154247 203.324262,28.7780277 203.324262,32.0543454 C203.324262,35.2889461 206.100437,37.9515492 209.500328,37.9515492 C211.432568,37.9515492 213.173006,36.9635023 214.208743,35.4034577 L217.595847,38.5444053 Z" id="Path" fill="#0D1247"></path>
                    <polygon id="Path" fill="#0D1247" points="241.326885 42.3818015 235.383825 42.3818015 230.010492 33.9362262 225.957049 37.7845415 225.957049 42.3921607 220.583716 42.3921607 220.583716 13.6961034 225.957049 13.6961034 225.957049 30.5871139 234.919235 21.7256294 241.210383 21.7256294 233.568087 29.7967324"></polygon>
                    <path d="M244.513661,36.7866953 C247.100874,37.8892538 249.074317,38.4612515 251.692787,38.4612515 C254.162077,38.4612515 255.13388,37.5459992 255.13388,36.4851576 C255.13388,35.3098046 253.940437,34.7688846 250.689727,34.0928746 C246.171694,33.1048277 242.888306,31.6591546 242.888306,27.6651101 C242.888306,23.9313063 246.012568,21.3518571 250.880109,21.3518571 C254.162077,21.3518571 256.790492,22.1111609 259.07082,23.0264132 L257.297705,26.9059462 C255.250383,26.1466424 252.853552,25.5746447 250.773552,25.5746447 C248.72623,25.5746447 247.680546,26.3025909 247.680546,27.4051493 C247.680546,28.5492847 248.957814,29.0797054 252.315082,29.7660747 C257.181202,30.7542616 260,32.4288177 260,36.1938392 C260,40.1149491 256.949617,42.7047576 251.576284,42.7047576 C247.944809,42.7047576 245.590601,42.2055545 242.497596,40.7286637 L244.513661,36.7866953 Z" id="Path" fill="#0D1247"></path>
                </g>
            </g>
        </g>
    </g>
</svg>