<?xml version="1.0" encoding="UTF-8"?>
<svg width="36px" height="36px" viewBox="0 0 36 36" version="1.1" xmlns="http://www.w3.org/2000/svg" xmlns:xlink="http://www.w3.org/1999/xlink">
    <title>Group</title>
    <g id="New" stroke="none" stroke-width="1" fill="none" fill-rule="evenodd" stroke-linecap="round" stroke-linejoin="round">
        <g id="Agency-V3" transform="translate(-489, -8694)" stroke-width="2.13335003">
            <g id="advertising-megaphone" transform="translate(491, 8696)">
                <path d="M3.38775985,17.1395585 L4.02492039,15.4683555 L2.5372643,11.5655629 C2.31721629,10.9856091 2.53019927,10.3306555 3.04926831,9.99107628 L6.5451179,7.70828399 L7.63597088,3.6774844 C7.7983483,3.07856819 8.35597829,2.67364577 8.9757147,2.70463087 L13.1457029,2.91655364 L16.3969283,0.29240924 C16.8804298,-0.0974697466 17.5703287,-0.0974697466 18.0538302,0.29240924 L21.3050557,2.91655364 L25.4750438,2.70889777 C26.0947803,2.67791267 26.6524102,3.08283509 26.8147877,3.68175131 L27.9056407,7.71255089 L31.4014902,9.99534318 C31.9210119,10.334576 32.134112,10.9898898 31.9134942,11.5698298 L30.4272604,15.4726224 L31.9134942,19.3739926 C32.1343084,19.9543512 31.9212366,20.6101697 31.4014902,20.9499015 L27.9056407,23.2255823 L26.8090987,27.2578042 C26.6477481,27.8576122 26.0896656,28.2634557 25.4693549,28.23208 L21.2993667,28.0244242 L18.0481413,30.6428794" id="Shape" stroke="#3A56BC"></path>
                <line x1="0" y1="27.0515706" x2="2.35521844" y2="30.7623526" id="Shape" stroke="#FFAF24"></line>
                <line x1="13.0248131" y1="10.5215944" x2="21.9763498" y2="24.625126" id="Shape" stroke="#FFAF24"></line>
                <polygon id="Shape" stroke="#FFAF24" points="21.5055906 23.8826852 1.88445919 30.0213341 0.47075924 27.7940115 13.4955723 11.2640352"></polygon>
                <path d="M6.12413683,28.6943277 L7.37001324,30.6087442 C7.78636523,31.2913491 8.46581871,31.7719912 9.2480823,31.9372811 C10.0303459,32.1025711 10.8461453,31.9378713 11.5030234,31.4820367 C12.8824087,30.4893127 13.2485207,28.5931751 12.3378744,27.1582432 L12.1060503,26.8225803" id="Shape" stroke="#FFAF24"></path>
            </g>
        </g>
    </g>
</svg>