<?xml version="1.0" encoding="UTF-8"?>
<svg width="36px" height="36px" viewBox="0 0 36 36" version="1.1" xmlns="http://www.w3.org/2000/svg" xmlns:xlink="http://www.w3.org/1999/xlink">
    <title>Group</title>
    <g id="New" stroke="none" stroke-width="1" fill="none" fill-rule="evenodd" stroke-linecap="round" stroke-linejoin="round">
        <g id="Agency-V3" transform="translate(-1396, -8347)" stroke-width="2.13333333">
            <g id="gauge-dashboard-1" transform="translate(1398, 8349)">
                <path d="M11.7333333,20.672 L11.7333333,20.2666667 C11.7333333,17.9102517 13.6435851,16 16,16 C18.3564149,16 20.2666667,17.9102517 20.2666667,20.2666667 L20.2666667,20.672" id="Shape" stroke="#3A56BC"></path>
                <line x1="19.2028444" y1="6.4" x2="16.0028444" y2="16" id="Shape" stroke="#3A56BC"></line>
                <path d="M8.00284444,9.6 C7.70829258,9.6 7.46951111,9.83878147 7.46951111,10.1333333 C7.46951111,10.4278852 7.70829258,10.6666667 8.00284444,10.6666667 C8.29739631,10.6666667 8.53617778,10.4278852 8.53617778,10.1333333 C8.53617778,9.83878147 8.29739631,9.6 8.00284444,9.6 L8.00284444,9.6" id="Shape" stroke="#FFAF24"></path>
                <path d="M26.1361778,14.9333333 C25.8416259,14.9333333 25.6028444,15.1721148 25.6028444,15.4666667 C25.6028444,15.7612185 25.8416259,16 26.1361778,16 C26.4307296,16 26.6695111,15.7612185 26.6695111,15.4666667 C26.6695111,15.1721148 26.4307296,14.9333333 26.1361778,14.9333333 L26.1361778,14.9333333" id="Shape" stroke="#FFAF24"></path>
                <path d="M24.0028444,9.59999236 C23.7868761,9.59884815 23.5915322,9.7280578 23.5080853,9.92725685 C23.4246385,10.1264559 23.4695634,10.3563171 23.6218694,10.5094397 C23.7741753,10.6625623 24.003793,10.7087158 24.2034354,10.6263354 C24.4030778,10.5439549 24.5333303,10.3493047 24.5333333,10.1333333 C24.5333333,9.83878147 24.2945519,9.59999236 24,9.59999236 L24,9.59999236" id="Shape" stroke="#FFAF24"></path>
                <path d="M12.2695111,5.33333333 C11.9749592,5.33333333 11.7361778,5.5721148 11.7361778,5.86666667 C11.7361778,6.16121853 11.9749592,6.4 12.2695111,6.4 C12.564063,6.4 12.8028444,6.16121853 12.8028444,5.86666667 C12.8028444,5.5721148 12.564063,5.33333333 12.2695111,5.33333333 L12.2695111,5.33333333" id="Shape" stroke="#FFAF24"></path>
                <path d="M29.4129778,24.7253333 C21.4590927,18.7803936 10.5409073,18.7803936 2.58702222,24.7253333" id="Shape" stroke="#3A56BC"></path>
                <circle id="Oval" stroke="#3A56BC" cx="16" cy="16" r="16"></circle>
                <path d="M5.86951111,14.9333333 C5.57495924,14.9333333 5.33617778,15.1721148 5.33617778,15.4666667 C5.33617778,15.7612185 5.57495924,16 5.86951111,16 C6.16406298,16 6.40284444,15.7612185 6.40284444,15.4666667 C6.40284444,15.1721148 6.16406298,14.9333333 5.86951111,14.9333333" id="Shape" stroke="#FFAF24"></path>
            </g>
        </g>
    </g>
</svg>