<?xml version="1.0" encoding="UTF-8"?>
<svg width="24px" height="24px" viewBox="0 0 24 24" version="1.1" xmlns="http://www.w3.org/2000/svg" xmlns:xlink="http://www.w3.org/1999/xlink">
    <title>Shape Copy 5</title>
    <g id="New" stroke="none" stroke-width="1" fill="none" fill-rule="evenodd">
        <g id="Comparison-page-Adalysis-vs.-TrueClick" transform="translate(-1117, -938)" fill="#3A56BC" fill-rule="nonzero">
            <path d="M1129,938 C1122.38293,938 1117,943.382935 1117,950 C1117,956.617065 1122.38293,962 1129,962 C1135.61707,962 1141,956.617065 1141,950 C1141,943.382935 1135.61707,938 1129,938 Z M1135.08203,947.457031 L1128.58197,953.956909 C1128.38696,954.151917 1128.13098,954.250061 1127.875,954.250061 C1127.61902,954.250061 1127.36304,954.151917 1127.16803,953.956909 L1123.91809,950.70697 C1123.52698,950.31604 1123.52698,949.68396 1123.91809,949.29303 C1124.30902,948.901917 1124.94092,948.901917 1125.33203,949.29303 L1127.875,951.835999 L1133.66809,946.043091 C1134.05902,945.651978 1134.69092,945.651978 1135.08203,946.043091 C1135.47296,946.434021 1135.47296,947.065918 1135.08203,947.457031 Z" id="Shape-Copy-5"></path>
        </g>
    </g>
</svg>