<?xml version="1.0" encoding="UTF-8"?>
<svg width="30px" height="30px" viewBox="0 0 30 30" version="1.1" xmlns="http://www.w3.org/2000/svg" xmlns:xlink="http://www.w3.org/1999/xlink">
    <title>Group 7</title>
    <g id="Page-1" stroke="none" stroke-width="1" fill="none" fill-rule="evenodd">
        <g id="Products-dropdown-menu-V1" transform="translate(-1003, -272)">
            <g id="Group" transform="translate(1004, 273)">
                <path d="M12.6195871,4.92538567 C12.9718928,5.31645039 13.4735518,5.53972119 13.9999151,5.53972119 C14.5262785,5.53972119 15.0279375,5.31645039 15.3802432,4.92538567 L16.2726148,3.93715564 C16.799878,3.35268358 17.6380129,3.16346198 18.3652509,3.4647115 C19.0924888,3.76596103 19.5512938,4.49242435 19.5107847,5.2785284 L19.4424328,6.60756014 C19.415706,7.13319411 19.6128472,7.64555836 19.9850157,8.01771784 C20.3571843,8.38987732 20.869561,8.58701364 21.3952078,8.5602875 L22.7242719,8.49288661 C23.5094092,8.45417947 24.2340884,8.91329188 24.5344635,9.63971317 C24.8348386,10.3661345 24.6460279,11.2029564 24.0628294,11.7300282 L23.0736259,12.6233274 C22.6830963,12.975936 22.4602117,13.4774671 22.4602117,14.0036218 C22.4602117,14.5297765 22.6830963,15.0313077 23.0736259,15.3839162 L24.0628294,16.2762661 C24.6473157,16.8035164 24.8365419,17.6416309 24.535285,18.3688511 C24.2340282,19.0960713 23.5075471,19.5548652 22.7214239,19.514357 L21.3923598,19.4460068 C20.8668865,19.4193032 20.3546715,19.6163134 19.9825358,19.9882591 C19.6104001,20.3602048 19.413136,20.8723114 19.4395848,21.3977849 L19.5079367,22.7268166 C19.5460949,23.5112028 19.0874104,24.2350146 18.3618093,24.5354248 C17.6362082,24.8358351 16.8001047,24.6480859 16.2726148,24.0662908 L15.3802432,23.0780607 C15.027626,22.6875406 14.5260827,22.4646615 13.9999151,22.4646615 C13.4737476,22.4646615 12.9722042,22.6875406 12.6195871,23.0780607 L11.7272154,24.0662908 C11.1996548,24.6462047 10.3650708,24.8330058 9.64062443,24.5333229 C8.91617805,24.23364 8.45747397,23.5118422 8.49379223,22.7287152 L8.5621441,21.3996835 C8.5898725,20.8728547 8.39242016,20.3590606 8.01900923,19.9863832 C7.6455983,19.6137057 7.1314093,19.4172562 6.60462248,19.4460068 L5.27555833,19.514357 C4.48996581,19.5535582 3.76466379,19.0943029 3.46418087,18.3674077 C3.16369794,17.6405125 3.35302199,16.8031888 3.93700087,16.2762661 L4.92620433,15.3839162 C5.31673398,15.0313077 5.53961856,14.5297765 5.53961856,14.0036218 C5.53961856,13.4774671 5.31673398,12.975936 4.92620433,12.6233274 L3.93700087,11.7300282 C3.35784457,11.2023366 3.1715452,10.3682695 3.47112941,9.64430974 C3.77071362,8.92034993 4.49191494,8.46180043 5.274609,8.49763315 L6.60367315,8.56503405 C7.13034069,8.59273789 7.64398433,8.39541624 8.0166377,8.02222874 C8.38929107,7.64904124 8.58586911,7.13512324 8.55739745,6.60850945 L8.49379223,5.2785284 C8.45747397,4.49540141 8.91617805,3.77360366 9.64062443,3.47392073 C10.3650708,3.1742378 11.1996548,3.36103893 11.7272154,3.94095287 L12.6195871,4.92538567 Z" id="Shape" stroke="#2A4BC2" stroke-width="1.5" stroke-linecap="round" stroke-linejoin="round" transform="translate(14, 14) rotate(67) translate(-14, -14)"></path>
                <circle id="Oval" fill="#FFAF24" cx="13.7312226" cy="18.7175062" r="1"></circle>
                <line x1="13.7923927" y1="9.84785308" x2="13.7923927" y2="15.7201752" id="Shape" stroke="#FFAF24" stroke-width="1.5" stroke-linecap="round" stroke-linejoin="round"></line>
            </g>
        </g>
    </g>
</svg>