<?xml version="1.0" encoding="utf-8" ?>
<svg xmlns="http://www.w3.org/2000/svg" xmlns:xlink="http://www.w3.org/1999/xlink" width="38" height="38">
	<path fill="none" stroke="#3A56BC" stroke-width="2.1300001" stroke-linecap="round" stroke-linejoin="round" transform="translate(1.4989 34.6689)" d="M14.299726 0.77854669L0.066402867 1.0570934" fill-rule="evenodd"/>
	<path fill="none" stroke="#3A56BC" stroke-width="2.1300001" stroke-linecap="round" stroke-linejoin="round" transform="translate(15.7986 22.6014)" d="M3.9288864 0.97474796C4.1277461 0.38954064 4.6644864 -0.0016730116 5.2662187 0L17.850744 0C18.302933 -0.0014745032 18.729025 0.21805394 18.999187 0.59170294C19.265186 0.96142769 19.338049 1.4421693 19.19412 1.8778621L15.564434 12.846028L0 12.846028L3.9288864 0.97474796L3.9288864 0.97474796Z" fill-rule="evenodd"/>
	<path fill="none" stroke="#3A56BC" stroke-width="2.1300001" stroke-miterlimit="10" transform="translate(25.1713 27.8145)" d="M1.0388882 1.3624568C0.72592705 1.3624568 0.47222191 1.1010313 0.47222191 0.77854669C0.47222191 0.45606211 0.72592705 0.19463667 1.0388882 0.19463667" fill-rule="evenodd"/>
	<path fill="none" stroke="#3A56BC" stroke-width="2.1300001" stroke-miterlimit="10" transform="translate(25.738 27.8145)" d="M0.47222191 1.3624568C0.78518307 1.3624568 1.0388882 1.1010313 1.0388882 0.77854669C1.0388882 0.45606211 0.78518307 0.19463667 0.47222191 0.19463667" fill-rule="evenodd"/>
	<path fill="none" stroke="#3A56BC" stroke-width="2.1300001" stroke-linecap="round" stroke-linejoin="round" transform="translate(1.06531 24.9321)" d="M0 10.515265C0.0018799658 7.1734776 1.5443121 4.0313358 4.155654 2.0496395C6.7669959 0.067943379 10.13667 -0.51761585 13.234303 0.47201324" fill-rule="evenodd"/>
	<path fill="none" stroke="#3A56BC" stroke-width="2.1300001" stroke-linecap="round" stroke-linejoin="round" transform="translate(5.8933 12.9178)" d="M0 0C2.9929841 3.1936576 7.5914288 4.1459208 11.549415 2.3916955" fill-rule="evenodd"/>
	<path fill="none" stroke="#3A56BC" stroke-width="2.1300001" stroke-linecap="round" stroke-linejoin="round" transform="translate(5.03197 9.75536)" d="M6.2333293 12.846021C9.6759024 12.846021 12.466659 9.9703407 12.466659 6.4230103C12.466659 2.8756797 9.6759024 0 6.2333293 0C2.7907565 0 0 2.8756797 0 6.4230103C0 9.9703407 2.7907565 12.846021 6.2333293 12.846021L6.2333293 12.846021Z" fill-rule="evenodd"/>
	<path fill="none" stroke="#FFAF24" stroke-width="1.8" stroke-linecap="round" stroke-linejoin="round" transform="translate(25.0653 1.22595)" d="M6.6672626 0L0.099324867 8.1564445C-0.0059916531 8.2884798 -0.029722685 8.4737806 0.038536213 8.6311064C0.10679511 8.7884321 0.25458512 8.8890667 0.41711038 8.8888893L3.3338482 8.8888893L3.3338482 16L9.9006748 7.8435555C10.005861 7.7116838 10.029675 7.5266595 9.9616966 7.369431C9.8937187 7.212203 9.7463245 7.1113949 9.5840006 7.1111112L6.6672626 7.1111112L6.6672626 0Z" fill-rule="evenodd"/>
</svg>
