<?xml version="1.0" encoding="UTF-8"?>
<svg width="32px" height="36px" viewBox="0 0 32 36" version="1.1" xmlns="http://www.w3.org/2000/svg" xmlns:xlink="http://www.w3.org/1999/xlink">
    <title>Group</title>
    <g id="New" stroke="none" stroke-width="1" fill="none" fill-rule="evenodd" stroke-linecap="round" stroke-linejoin="round">
        <g id="Use-Case-page---Optimization" transform="translate(-944, -1010)" stroke-width="2.10720537">
            <g id="Group-32" transform="translate(807, 992)">
                <g id="Group-26-Copy-4" transform="translate(117, 0)">
                    <g id="target-center" transform="translate(22, 20)">
                        <line x1="12.6378802" y1="15.7994667" x2="18.4002308" y2="9.87306667" id="Shape" stroke="#FFAF24"></line>
                        <polygon id="Shape" stroke="#FFAF24" points="18.4002308 9.87306667 19.1856916 4.53973333 23.6771999 0 24.3713923 3.73191111 28 4.44586667 23.5859315 9.06524444"></polygon>
                        <path d="M26.5203467,12.4629333 C28.0245676,18.3274052 25.6485028,24.5168056 20.6545845,27.7426306 C15.6606662,30.9684556 9.20781952,30.4820968 4.72452049,26.5419626 C0.24122145,22.6018284 -1.23210287,16.122295 1.08734267,10.5460174 C3.40678821,4.96973981 8.98073617,1.59078972 14.8476801,2.20444444" id="Shape" stroke="#3A56BC"></path>
                        <path d="M20.5284424,14.2037333 C21.2741592,17.2961561 20.0301528,20.5345968 17.4307255,22.2678175 C14.8312983,24.0010381 11.4489723,23.847298 9.0083507,21.8849873 C6.56772912,19.9226765 5.60635718,16.5839926 6.6144257,13.5712863 C7.62249423,10.55858 10.3779768,8.53539774 13.4758894,8.53333333" id="Shape" stroke="#3A56BC"></path>
                        <line x1="6.41503931" y1="27.7333333" x2="5.37789917" y2="32" id="Shape" stroke="#3A56BC"></line>
                        <line x1="20.9350013" y1="27.7333333" x2="21.9721415" y2="32" id="Shape" stroke="#3A56BC"></line>
                    </g>
                </g>
            </g>
        </g>
    </g>
</svg>