<?xml version="1.0" encoding="UTF-8"?>
<svg width="35px" height="34px" viewBox="0 0 35 34" version="1.1" xmlns="http://www.w3.org/2000/svg" xmlns:xlink="http://www.w3.org/1999/xlink">
    <title>Group</title>
    <g id="New" stroke="none" stroke-width="1" fill="none" fill-rule="evenodd" stroke-linecap="round" stroke-linejoin="round">
        <g id="Use-Case-page---Monitoring" transform="translate(-539, -753)" stroke-width="2.13327552">
            <g id="Group-16" transform="translate(402.5, 735)">
                <g id="desktop-monitor-warning" transform="translate(138, 20)">
                    <ellipse id="Oval" stroke="#FFAF24" fill="#FFAF24" cx="23.6438037" cy="12.9363452" rx="1" ry="1"></ellipse>
                    <line x1="23.4660307" y1="9.19169868" x2="23.4660307" y2="5.10662979" id="Shape" stroke="#FFAF24"></line>
                    <path d="M31.7331844,12.8437503 C32.124695,13.5927056 32.08309,14.4823861 31.6232378,15.1948433 C31.1633857,15.9073004 30.350914,16.3408562 29.4761789,16.3405694 L17.4558825,16.3405694 C16.5811474,16.3408562 15.7686757,15.9073004 15.3088236,15.1948433 C14.8489714,14.4823861 14.8073664,13.5927056 15.198877,12.8437503 L21.2090252,1.3361112 C21.6362315,0.517303333 22.5100783,0 23.4660307,0 C24.4219831,0 25.2958298,0.517303333 25.7230362,1.3361112 L31.7331844,12.8437503 Z" id="Shape" stroke="#FEB12C"></path>
                    <polygon id="Shape" stroke="#2A4BC2" points="21.3327552 30.6383104 10.6663776 30.6383104 11.7330153 26.5532415 20.2661174 26.5532415"></polygon>
                    <line x1="7.46646431" y1="30.6383104" x2="24.5326685" y2="30.6383104" id="Shape" stroke="#2A4BC2"></line>
                    <line x1="0" y1="22.4681726" x2="31.9991328" y2="22.4681726" id="Shape" stroke="#2A4BC2"></line>
                    <path d="M31.9991328,20.4256381 L31.9991328,22.4681726 C31.9991328,24.7242938 30.0889328,26.5532415 27.7325817,26.5532415 L4.26655104,26.5532415 C1.91019996,26.5532415 0,24.7242938 0,22.4681726 L0,8.17043146 C0,5.9143102 1.91019996,4.08536256 4.26655104,4.08536256 L13.8662909,4.08536256" id="Shape" stroke="#2A4BC2"></path>
                </g>
            </g>
        </g>
    </g>
</svg>