<?xml version="1.0" encoding="UTF-8"?>
<svg width="24px" height="22px" id="Layer_1" data-name="Layer 1" xmlns="http://www.w3.org/2000/svg" version="1.1" viewBox="0 0 24 22">
  <defs>
    <style>
      .cls-1 {
        fill: #3a56bc;
      }

      .cls-1, .cls-2 {
        stroke-width: 0px;
      }

      .cls-2 {
        fill: #ffaf24;
      }
    </style>
  </defs>
  <path class="cls-1" d="M17.581,4.654h-.246V1.398c0-.496-.263-.955-.69-1.206-.427-.251-.954-.256-1.386-.014-.771.434-1.573.808-2.4,1.119-1.703.659-3.501,1.036-5.325,1.119h-2.233C2.374,2.416,0,4.796,0,7.732c0,2.397,1.593,4.4,3.768,5.063l1.724,6.967c.36,1.314,1.547,2.226,2.905,2.237.917-.009,1.781-.434,2.346-1.159.568-.729.772-1.678.553-2.577l-1.226-4.915c.937.181,1.859.437,2.755.775.827.311,1.63.686,2.4,1.119.211.12.45.182.692.179.255.003.505-.062.726-.19.432-.247.697-.71.692-1.209v-3.212h.246c1.695,0,3.07-1.378,3.07-3.077s-1.374-3.077-3.07-3.077ZM1.674,7.732c0-2.009,1.624-3.637,3.628-3.637h1.395v7.274h-1.395c-2.004,0-3.628-1.628-3.628-3.637ZM9.7,18.688c.097.389.011.802-.234,1.119-.311.406-.827.598-1.327.493-.5-.105-.896-.488-1.018-.986l-1.56-6.267h1.973c.261.01.52.04.78.062l1.386,5.578ZM13.406,12.533c-1.62-.601-3.313-.977-5.034-1.119v-7.375c1.721-.142,3.415-.518,5.034-1.119.766-.281,1.512-.614,2.233-.996v3.517c-.001.018-.011.034-.011.053v4.476c0,.019.01.034.011.053v3.506c-.721-.382-1.467-.715-2.233-.996ZM17.581,9.131h-.246v-2.798h.246c.771,0,1.395.626,1.395,1.399s-.625,1.399-1.395,1.399Z"/>
  <path class="cls-2" d="M23.163,8.571h-1.116c-.462,0-.837-.376-.837-.839s.375-.839.837-.839h1.116c.462,0,.837.376.837.839s-.375.839-.837.839ZM20.082,3.826c-.221-.005-.432-.093-.592-.246-.326-.328-.326-.859,0-1.186l.793-.795c.209-.225.523-.317.82-.241.297.076.528.308.604.606.076.297-.016.612-.24.822l-.793.795c-.158.155-.37.244-.592.246h0ZM20.93,14.11c-.222.001-.435-.088-.592-.246l-.793-.795c-.307-.331-.298-.846.021-1.166.319-.32.833-.329,1.163-.021l.793.795c.326.328.326.859,0,1.186-.156.159-.369.247-.592.246h0Z"/>
</svg>