<?xml version="1.0" encoding="UTF-8"?>
<svg width="25px" height="22px" viewBox="0 0 25 22" version="1.1" xmlns="http://www.w3.org/2000/svg" xmlns:xlink="http://www.w3.org/1999/xlink">
    <title>Group 3</title>
    <g id="Page-1" stroke="none" stroke-width="1" fill="none" fill-rule="evenodd" stroke-linecap="round" stroke-linejoin="round">
        <g id="Products-dropdown-menu-V1" transform="translate(-747, -228)" stroke-width="1.5">
            <g id="cash-payment-bill-1" transform="translate(748, 229)">
                <path d="M3.13617778,14.2307692 L5.51897778,13.1610256 C5.99983051,12.8396452 6.32658634,12.3328349 6.4216,11.7610256 L6.79777778,9.51076923 L10.0188,7.20205128 C10.2934629,7.00522014 10.4564254,6.68737357 10.4563112,6.34871795 L10.4563112,5.75384615 C10.455763,5.41283551 10.2899168,5.09340674 10.0117103,4.8975212 C9.73350387,4.70163565 9.37771498,4.65378039 9.05791111,4.76923077 L4.76355556,6.30769231 C3.68724496,6.69299861 2.68716327,7.26588914 1.80933333,8 L0,9.51076923" id="Shape" stroke="#3A56BC"></path>
                <path d="M0,20 L2.35111111,18.2738462 C2.85369115,17.8989292 3.46262546,17.6951524 4.08888889,17.6923077 L10.7333333,17.6923077" id="Shape" stroke="#3A56BC"></path>
                <path d="M10.7333333,17.6923587 L14.4051556,17.6923587 C14.8493591,17.6966892 15.2476494,17.4184764 15.3977333,16.9989744 L17.2745333,11.5384615" id="Shape" stroke="#3A56BC"></path>
                <path d="M12.8585333,7.27589744 C13.3078248,7.86798235 14.0167264,8.20294649 14.7578222,8.17333333 C15.9221333,8.17333333 16.8666667,7.4625641 16.8666667,6.58666667 C16.8666667,5.71076923 15.9221333,5.00102564 14.7578222,5.00102564 C13.5935111,5.00102564 12.65,4.29025641 12.65,3.41333333 C12.65,2.53641026 13.5945333,1.82666667 14.7578222,1.82666667 C15.4990248,1.79652542 16.2081574,2.13159877 16.6571111,2.72410256" id="Shape" stroke="#FFAF24"></path>
                <line x1="14.7578222" y1="8.17333333" x2="14.7578222" y2="9.23076923" id="Shape" stroke="#FFAF24"></line>
                <line x1="14.7578222" y1="0.769230769" x2="14.7578222" y2="1.82666667" id="Shape" stroke="#FFAF24"></line>
                <path d="M13.0333333,14.6153846 L10.7333333,14.6153846 C9.88649672,14.6153846 9.2,15.3041773 9.2,16.1538462 L9.2,16.1538462 C9.2,17.003515 9.88649672,17.6923077 10.7333333,17.6923077" id="Shape" stroke="#3A56BC"></path>
                <path d="M17.6333333,11.5384615 L13.0333333,11.5384615 C12.1864967,11.5384615 11.5,12.2272542 11.5,13.0769231 L11.5,13.0769231 C11.5,13.9265919 12.1864967,14.6153846 13.0333333,14.6153846 L16.2165333,14.6153846" id="Shape" stroke="#3A56BC"></path>
                <path d="M18.4,0 L21.4666667,0 C22.3135033,0 23,0.688792693 23,1.53846154 L23,10 C23,10.8496688 22.3135033,11.5384615 21.4666667,11.5384615 L9.96666667,11.5384615" id="Shape" stroke="#FFAF24"></path>
                <path d="M4.6,3.07692308 L4.6,1.53846154 C4.6,0.688792693 5.28649672,0 6.13333333,0 L11.5,0" id="Shape" stroke="#FFAF24"></path>
            </g>
        </g>
    </g>
</svg>