<?xml version="1.0" encoding="UTF-8"?>
<!-- Generator: Adobe Illustrator 24.2.1, SVG Export Plug-In . SVG Version: 6.00 Build 0)  -->
<svg xmlns="http://www.w3.org/2000/svg" xmlns:xlink="http://www.w3.org/1999/xlink" version="1.1" id="Layer_1" x="0px" y="0px" viewBox="0 0 34.234 27.781" style="enable-background:new 0 0 34.234 27.781;" xml:space="preserve">
<style type="text/css">
	.st0{fill:#FFAF24;}
	.st1{fill:#3A56BC;}
	.st2{fill-rule:evenodd;clip-rule:evenodd;fill:#3A56BC;}
</style>
<g id="touchpad" transform="translate(793.000000, 2225.000000)">
	<path class="st0" d="M-772.665-2197.246c-0.219,0-0.439-0.071-0.624-0.22l-5.035-4.029c-1.161-0.928-1.678-2.46-1.318-3.903   c0.28-1.129,1.049-2.057,2.109-2.544c1.063-0.487,2.266-0.465,3.308,0.061l0.567,0.283v-7.406c0-1.973,1.605-3.578,3.578-3.578   s3.578,1.605,3.578,3.578v4.309l2.589,0.432c2.981,0.497,5.146,3.05,5.146,6.072v5.945c0,0.553-0.447,1-1,1s-1-0.447-1-1v-5.945   c0-2.04-1.461-3.765-3.474-4.1l-3.425-0.57c-0.482-0.081-0.836-0.498-0.836-0.987v-5.156c0-0.87-0.708-1.578-1.578-1.578   s-1.578,0.708-1.578,1.578v9.024c0,0.347-0.18,0.668-0.475,0.851s-0.663,0.198-0.973,0.044l-2.019-1.009   c-0.498-0.251-1.07-0.264-1.575-0.03c-0.503,0.231-0.869,0.673-1.002,1.21c-0.172,0.688,0.074,1.417,0.626,1.858l5.035,4.03   c0.431,0.345,0.501,0.974,0.155,1.405C-772.081-2197.374-772.371-2197.246-772.665-2197.246z"></path>
	<path class="st1" d="M-764.929-2225h-24.493c-1.973,0-3.578,1.605-3.578,3.578v20.625c0,1.973,1.605,3.578,3.582,3.578l7.734-0.027   c0.552-0.002,0.999-0.451,0.997-1.004c-0.002-0.551-0.449-0.996-1-0.996c-0.001,0-0.002,0-0.003,0l-7.731,0.027   c-0.87,0-1.578-0.708-1.578-1.578v-14.497h14.469c0.552,0,1-0.448,1-1s-0.448-1-1-1H-791v-4.128c0-0.87,0.708-1.578,1.578-1.578   h24.493c0.87,0,1.578,0.708,1.578,1.578v5.122c0,0.552,0.447,1,1,1s1-0.448,1-1v-5.122   C-761.351-2223.395-762.957-2225-764.929-2225z"></path>
	<circle class="st2" cx="-788.024" cy="-2220.298" r="1.375"></circle>
	<circle class="st2" cx="-783.441" cy="-2220.298" r="1.375"></circle>
	<circle class="st2" cx="-778.857" cy="-2220.298" r="1.375"></circle>
</g>
</svg>
