<?xml version="1.0" encoding="UTF-8"?>
<svg width="24px" height="24px" viewBox="0 0 24 24" version="1.1" xmlns="http://www.w3.org/2000/svg" xmlns:xlink="http://www.w3.org/1999/xlink">
    <title>Shape Copy 5</title>
    <g id="Page-1" stroke="none" stroke-width="1" fill="none" fill-rule="evenodd">
        <g id="Pricing---Anually-V2.3.3" transform="translate(-805, -803)" fill="#3A56BC" fill-rule="nonzero">
            <path d="M817,803 C810.382935,803 805,808.382935 805,815 C805,821.617065 810.382935,827 817,827 C823.617065,827 829,821.617065 829,815 C829,808.382935 823.617065,803 817,803 Z M823.082031,812.457031 L816.58197,818.956909 C816.386963,819.151917 816.130981,819.250061 815.875,819.250061 C815.619019,819.250061 815.363037,819.151917 815.16803,818.956909 L811.918091,815.70697 C811.526978,815.31604 811.526978,814.68396 811.918091,814.29303 C812.309021,813.901917 812.940918,813.901917 813.332031,814.29303 L815.875,816.835999 L821.668091,811.043091 C822.059021,810.651978 822.690918,810.651978 823.082031,811.043091 C823.472961,811.434021 823.472961,812.065918 823.082031,812.457031 Z" id="Shape-Copy-5"></path>
        </g>
    </g>
</svg>