<?xml version="1.0" encoding="UTF-8"?>
<svg width="27px" height="27px" viewBox="0 0 25 25" version="1.1" xmlns="http://www.w3.org/2000/svg" xmlns:xlink="http://www.w3.org/1999/xlink">
    <title>Group</title>
    <g id="New" stroke="none" stroke-width="1" fill="none" fill-rule="evenodd" stroke-linecap="round" stroke-linejoin="round">
        <g id="Company" transform="translate(-290, -57)" stroke-width="1.5">
            <g id="Group-5" transform="translate(26, 27)">
                <g id="Group" transform="translate(265, 31)">
                    <g id="laptop-help-message" transform="translate(0, -0)">
                        <line x1="21" y1="15.0056412" x2="21" y2="18.0056412" id="Shape" stroke="#3A56BC"></line>
                        <path d="M1.5,18.0056412 L1.5,7.50564125 C1.5,6.67721412 2.17157288,6.00564125 3,6.00564125 L6.75,6.00564125" id="Shape" stroke="#3A56BC"></path>
                        <path d="M13.834,18.0056412 C13.3041738,18.9329952 12.3180361,19.5053215 11.25,19.5053215 C10.1819639,19.5053215 9.1958262,18.9329952 8.666,18.0056412 L0,18.0056412 L0,19.5056412 C0,21.1624955 1.34314575,22.5056412 3,22.5056412 L19.5,22.5056412 C21.1568542,22.5056412 22.5,21.1624955 22.5,19.5056412 L22.5,18.0056412 L13.834,18.0056412 Z" id="Shape" stroke="#3A56BC"></path>
                        <path d="M17.909,0.266641246 C15.5053888,-0.451625194 12.9040889,0.309405231 11.2666224,2.20992024 C9.62915596,4.11043525 9.26117934,6.7956767 10.327,9.06664125 L8.263,13.2556412 L12.986,11.9656412 C13.4025969,12.2043401 13.8451429,12.3945778 14.305,12.5326412 C17.6697417,13.4630289 21.1585957,11.5217407 22.141791,8.17204893 C23.1249863,4.82235713 21.2388131,1.30340094 17.905,0.267641246 L17.909,0.266641246 Z" id="Shape" stroke="#FFAF24"></path>
                        <path d="M14.257,4.91264125 C14.257,3.87710734 15.0964661,3.03764125 16.132,3.03764125 C17.1675339,3.03764125 18.007,3.87710734 18.007,4.91264125 C18.007,5.94817515 17.1675339,6.78764125 16.132,6.78764125" id="Shape" stroke="#FFAF24"></path>
                        <path d="M16.132,9.0376399 C15.9248932,9.0376399 15.757,9.20553446 15.757,9.41264125 C15.757,9.61974803 15.9248932,9.78764125 16.132,9.78764125 C16.3391068,9.78764125 16.507,9.61974803 16.507,9.41264125 C16.5072665,9.3131036 16.4678433,9.21756596 16.3974593,9.14718197 C16.3270753,9.07679797 16.2315376,9.03737474 16.132,9.0376399 L16.132,9.0376399" id="Shape" stroke="#FFAF24"></path>
                    </g>
                </g>
            </g>
        </g>
    </g>
</svg>