<?xml version="1.0" encoding="UTF-8"?>
<svg width="25px" height="17px" viewBox="0 0 25 17" version="1.1" xmlns="http://www.w3.org/2000/svg" xmlns:xlink="http://www.w3.org/1999/xlink">
    <title>Shape</title>
    <g id="New" stroke="none" stroke-width="1" fill="none" fill-rule="evenodd">
        <g id="Product---Account-optimization-&amp;-automation" transform="translate(-435, -9922)" fill="#FFFFFF">
            <g id="Footer-Copy" transform="translate(0, 9632)">
                <g id="Follow-us" transform="translate(371, 276)">
                    <g id="twitter-copy" transform="translate(54, 0)">
                        <g id="noun-youtube-5288426" transform="translate(10, 14)">
                            <path d="M3.64311111,0.314985714 C1.70766667,0.462696825 0.244758333,1.99153651 0.150541667,3.87524444 C0.0729166667,5.42729048 0,7.21328889 0,8.44619365 C0,9.69321111 0.0745944444,11.5060587 0.153208333,13.0703556 C0.246666667,14.9299667 1.67608333,16.4486333 3.58455556,16.6197937 C5.69719444,16.8093032 8.75394444,17 12.5,17 C16.2363056,17 19.2869167,16.8102746 21.3989444,16.6212778 C23.3148056,16.4498206 24.7470556,14.9213317 24.83925,13.0544619 C24.9205556,11.4074857 25,9.52299524 25,8.44619365 C25,7.38096825 24.92225,5.52524286 24.8418611,3.89100317 C24.7488333,2 23.2836111,0.461671429 21.34075,0.313744444 C19.26125,0.155428571 16.2618333,0 12.5,0 C8.72841667,0 5.72322222,0.156238095 3.64311111,0.314985714 Z M10,4.8417619 L16.4444444,8.44619365 L10,12.0506254 L10,4.8417619 Z" id="Shape"></path>
                        </g>
                    </g>
                </g>
            </g>
        </g>
    </g>
</svg>