<?xml version="1.0" encoding="UTF-8"?>
<!-- Generator: Adobe Illustrator 24.2.1, SVG Export Plug-In . SVG Version: 6.00 Build 0)  -->
<svg xmlns="http://www.w3.org/2000/svg" xmlns:xlink="http://www.w3.org/1999/xlink" version="1.1" id="Layer_1" x="0px" y="0px" viewBox="0 0 32.452 30.289" style="enable-background:new 0 0 32.452 30.289;" xml:space="preserve">
<style type="text/css">
	.st0{fill:#FFAF24;}
	.st1{fill:#3A56BC;}
</style>
<g id="social-profile-click" transform="translate(423.000000, 315.000000)">
	<path class="st0" d="M-404.971-288.966c-0.598,0-1.082-0.484-1.082-1.082v-3.245c0-0.598,0.484-1.082,1.082-1.082   s1.082,0.484,1.082,1.082v3.245C-403.889-289.45-404.373-288.966-404.971-288.966z"></path>
	<path class="st0" d="M-396.317-288.966c-0.598,0-1.082-0.484-1.082-1.082v-3.245c0-0.598,0.484-1.082,1.082-1.082   s1.082,0.484,1.082,1.082v3.245C-395.235-289.45-395.72-288.966-396.317-288.966z"></path>
	<path class="st0" d="M-400.645-288.966c-0.598,0-1.082-0.484-1.082-1.082v-6.491c0-0.598,0.484-1.082,1.082-1.082   s1.082,0.484,1.082,1.082v6.491C-399.562-289.45-400.047-288.966-400.645-288.966z"></path>
	<path class="st1" d="M-393.793-315h-25.962c-1.79,0-3.245,1.456-3.245,3.245v23.798c0,1.79,1.456,3.246,3.245,3.246h25.817   c1.869,0,3.39-1.521,3.39-3.391v-23.653C-390.548-313.544-392.004-315-393.793-315z M-419.755-312.837h25.962   c0.597,0,1.081,0.485,1.081,1.082v3.245h-28.125v-3.245C-420.837-312.352-420.352-312.837-419.755-312.837z M-393.938-286.875   h-25.817c-0.597,0-1.082-0.485-1.082-1.082v-18.39h28.125v18.245C-392.712-287.425-393.262-286.875-393.938-286.875z"></path>
	<path class="st1" d="M-410.019-293.365h-6.491c-1.193,0-2.163-0.971-2.163-2.164v-6.49c0-1.193,0.97-2.163,2.163-2.163h6.491   c1.193,0,2.163,0.97,2.163,2.163v6.49C-407.856-294.336-408.826-293.365-410.019-293.365z M-410.019-302.02h-6.492l0.001,6.49   h6.491V-302.02z"></path>
	<path class="st0" d="M-395.955-302.02h-8.655c-0.598,0-1.082-0.484-1.082-1.082s0.484-1.082,1.082-1.082h8.655   c0.598,0,1.082,0.484,1.082,1.082S-395.357-302.02-395.955-302.02z"></path>
	<path class="st0" d="M-408.936-289.038h-8.655c-0.598,0-1.082-0.484-1.082-1.082s0.484-1.082,1.082-1.082h8.655   c0.598,0,1.082,0.484,1.082,1.082S-408.338-289.038-408.936-289.038z"></path>
</g>
</svg>
