<?xml version="1.0" encoding="UTF-8"?>
<svg xmlns="http://www.w3.org/2000/svg" id="tools-box" width="30" height="30" viewBox="0 0 30 30">
  <rect id="Rectangle" width="28.125" height="22.5" rx="3.75" transform="translate(.938 6.563)" fill="none" stroke="#3A56BC" stroke-linecap="round" stroke-linejoin="round" stroke-miterlimit="10" stroke-width="1.875"></rect>
  <path id="Path" d="M7.5,0H1.875A1.875,1.875,0,0,0,0,1.875v3.75H9.375V1.875A1.875,1.875,0,0,0,7.5,0Z" transform="translate(10.313 .938)" fill="none" stroke="#3A56BC" stroke-linecap="round" stroke-linejoin="round" stroke-miterlimit="10" stroke-width="1.875"></path>
  <circle id="Oval" cx="1.875" cy="1.875" r="1.875" transform="translate(13.125 15.938)" fill="none" stroke="#ffaf24" stroke-linecap="round" stroke-linejoin="round" stroke-miterlimit="10" stroke-width="1.875"></circle>
  <path id="Path-2" data-name="Path" d="M9.087,1.185,9.639,3a1.242,1.242,0,0,0,1.467.851l1.84-.426A1.674,1.674,0,0,1,14.541,6.2L13.252,7.588a1.25,1.25,0,0,0,0,1.7l1.289,1.389a1.674,1.674,0,0,1-1.594,2.773l-1.84-.426a1.242,1.242,0,0,0-1.467.851l-.553,1.816a1.662,1.662,0,0,1-3.185,0l-.553-1.816a1.242,1.242,0,0,0-1.467-.851l-1.84.426A1.674,1.674,0,0,1,.448,10.679L1.737,9.29a1.25,1.25,0,0,0,0-1.7L.448,6.2A1.674,1.674,0,0,1,2.042,3.426l1.84.426A1.243,1.243,0,0,0,5.349,3L5.9,1.185a1.662,1.662,0,0,1,3.185,0Z" transform="translate(7.506 9.374)" fill="none" stroke="#ffaf24" stroke-linecap="round" stroke-linejoin="round" stroke-miterlimit="10" stroke-width="1.875"></path>
</svg>
