<?xml version="1.0" encoding="UTF-8"?>
<!-- Generator: Adobe Illustrator 24.2.1, SVG Export Plug-In . SVG Version: 6.00 Build 0)  -->
<svg xmlns="http://www.w3.org/2000/svg" xmlns:xlink="http://www.w3.org/1999/xlink" version="1.1" id="Layer_1" x="0px" y="0px" viewBox="0 0 29.659 30.681" style="enable-background:new 0 0 29.659 30.681;" xml:space="preserve">
<style type="text/css">
	.st0{fill:#3A56BC;}
	.st1{fill:#FFAF24;}
</style>
<g id="discount-bubble" transform="translate(1199.000000, 2519.000000)">
	<path class="st0" d="M-1184.17-2488.319c-2.108,0-4.013-1.198-4.957-3.021c-1.948,0.572-4.108,0.026-5.549-1.492   c-1.466-1.546-1.972-3.754-1.388-5.754c-1.79-1.03-2.936-2.959-2.936-5.074s1.146-4.043,2.936-5.074   c-0.584-2-0.079-4.208,1.388-5.754c1.44-1.516,3.599-2.062,5.549-1.491c0.943-1.822,2.849-3.021,4.957-3.021   c2.108,0,4.014,1.199,4.956,3.021c1.952-0.57,4.108-0.025,5.549,1.491c1.465,1.543,1.972,3.747,1.391,5.746   c1.808,1.021,2.952,2.951,2.934,5.083c0.019,2.131-1.126,4.062-2.934,5.082c0.581,1.998,0.074,4.203-1.392,5.745   c-1.438,1.519-3.599,2.066-5.547,1.492C-1180.157-2489.518-1182.062-2488.319-1184.17-2488.319z M-1188.559-2493.695   c0.136,0,0.272,0.027,0.401,0.081c0.286,0.122,0.5,0.367,0.584,0.666c0.425,1.521,1.824,2.584,3.403,2.584   c1.58,0,2.979-1.062,3.402-2.583c0.084-0.3,0.299-0.545,0.584-0.666c0.287-0.122,0.613-0.107,0.886,0.04   c1.371,0.735,3.078,0.463,4.148-0.667c1.122-1.181,1.387-2.953,0.658-4.411c-0.132-0.264-0.144-0.571-0.031-0.844   c0.111-0.273,0.335-0.484,0.613-0.58c1.526-0.525,2.54-1.961,2.523-3.573c0-0.007,0-0.014,0-0.021   c0.017-1.614-0.997-3.05-2.522-3.574c-0.279-0.096-0.503-0.307-0.614-0.58c-0.112-0.272-0.101-0.581,0.031-0.844   c0.729-1.458,0.464-3.231-0.657-4.412c-1.073-1.129-2.778-1.403-4.149-0.666c-0.272,0.147-0.6,0.163-0.885,0.041   c-0.286-0.122-0.501-0.367-0.585-0.667c-0.424-1.521-1.823-2.583-3.402-2.583s-2.979,1.062-3.403,2.583   c-0.083,0.299-0.298,0.544-0.584,0.666c-0.286,0.122-0.611,0.107-0.885-0.04c-1.371-0.737-3.078-0.464-4.149,0.665   c-1.121,1.182-1.385,2.955-0.657,4.412c0.131,0.262,0.143,0.568,0.034,0.839c-0.11,0.271-0.331,0.483-0.606,0.582   c-1.515,0.538-2.532,1.979-2.532,3.587s1.018,3.05,2.532,3.588c0.276,0.099,0.497,0.31,0.606,0.582   c0.109,0.271,0.097,0.577-0.034,0.839c-0.728,1.457-0.464,3.229,0.657,4.411c1.072,1.131,2.778,1.402,4.149,0.667   C-1188.892-2493.654-1188.726-2493.695-1188.559-2493.695z"></path>
	<path class="st1" d="M-1188.772-2497.523c-0.262,0-0.523-0.1-0.723-0.299c-0.399-0.399-0.399-1.048,0-1.447l10.227-10.227   c0.4-0.399,1.047-0.399,1.447,0c0.399,0.399,0.399,1.047,0,1.446l-10.228,10.228   C-1188.249-2497.623-1188.511-2497.523-1188.772-2497.523z"></path>
	<path class="st1" d="M-1187.75-2504.682c-1.692,0-3.068-1.376-3.068-3.068s1.376-3.069,3.068-3.069s3.068,1.377,3.068,3.069   S-1186.058-2504.682-1187.75-2504.682z M-1187.75-2508.773c-0.564,0-1.022,0.459-1.022,1.023s0.458,1.022,1.022,1.022   s1.022-0.458,1.022-1.022S-1187.186-2508.773-1187.75-2508.773z"></path>
	<path class="st1" d="M-1179.568-2496.5c-1.692,0-3.068-1.376-3.068-3.068s1.376-3.068,3.068-3.068c1.691,0,3.067,1.376,3.067,3.068   S-1177.876-2496.5-1179.568-2496.5z M-1179.568-2500.592c-0.564,0-1.023,0.459-1.023,1.023s0.459,1.023,1.023,1.023   c0.563,0,1.022-0.459,1.022-1.023S-1179.004-2500.592-1179.568-2500.592z"></path>
</g>
</svg>
