<?xml version="1.0" encoding="UTF-8"?>
<!-- Generator: Adobe Illustrator 24.2.1, SVG Export Plug-In . SVG Version: 6.00 Build 0)  -->
<svg xmlns="http://www.w3.org/2000/svg" xmlns:xlink="http://www.w3.org/1999/xlink" version="1.1" id="Layer_1" x="0px" y="0px" viewBox="0 0 34 30" style="enable-background:new 0 0 34 30;" xml:space="preserve">
<style type="text/css">
	.st0{fill:#3A56BC;}
	.st1{fill:#FFAD00;}
</style>
<g id="database-connect" transform="translate(1196.000000, 2224.000000)">
	<path class="st0" d="M-1184.75-2220.25c-0.001-2.102-2.471-3.749-5.625-3.749s-5.624,1.646-5.625,3.749c0,0,0,0,0,0v5.625   c0,2.103,2.471,3.75,5.625,3.75s5.625-1.647,5.625-3.75L-1184.75-2220.25C-1184.75-2220.25-1184.75-2220.25-1184.75-2220.25z    M-1190.375-2222.124c2.146,0,3.75,0.99,3.75,1.875s-1.604,1.875-3.75,1.875s-3.75-0.99-3.75-1.875   S-1192.521-2222.124-1190.375-2222.124z M-1190.375-2212.75c-2.146,0-3.75-0.99-3.75-1.875v-2.812   c0.989,0.584,2.295,0.938,3.75,0.938s2.761-0.354,3.75-0.938v2.812C-1186.625-2213.74-1188.229-2212.75-1190.375-2212.75z"></path>
	<path class="st0" d="M-1184.75-2203.375c-0.001-2.102-2.471-3.749-5.625-3.749s-5.624,1.647-5.625,3.749c0,0,0,0,0,0v5.625   c0,2.103,2.471,3.75,5.625,3.75s5.625-1.647,5.625-3.75L-1184.75-2203.375C-1184.75-2203.375-1184.75-2203.375-1184.75-2203.375z    M-1190.375-2205.249c2.146,0,3.75,0.99,3.75,1.875s-1.604,1.875-3.75,1.875s-3.75-0.99-3.75-1.875   S-1192.521-2205.249-1190.375-2205.249z M-1190.375-2195.875c-2.146,0-3.75-0.99-3.75-1.875v-2.812   c0.989,0.584,2.295,0.938,3.75,0.938s2.761-0.354,3.75-0.938v2.812C-1186.625-2196.865-1188.229-2195.875-1190.375-2195.875z"></path>
	<path class="st0" d="M-1162-2220.25c-0.001-2.102-2.471-3.749-5.625-3.749s-5.624,1.646-5.625,3.749c0,0,0,0,0,0v5.625   c0,2.103,2.471,3.75,5.625,3.75s5.625-1.647,5.625-3.75L-1162-2220.25C-1162-2220.25-1162-2220.25-1162-2220.25z    M-1167.625-2222.124c2.146,0,3.75,0.99,3.75,1.875s-1.604,1.875-3.75,1.875s-3.75-0.99-3.75-1.875   S-1169.771-2222.124-1167.625-2222.124z M-1167.625-2212.75c-2.146,0-3.75-0.99-3.75-1.875v-2.812   c0.989,0.584,2.295,0.938,3.75,0.938s2.761-0.354,3.75-0.938v2.812C-1163.875-2213.74-1165.479-2212.75-1167.625-2212.75z"></path>
	<path class="st0" d="M-1162-2203.375c-0.001-2.102-2.471-3.749-5.625-3.749s-5.624,1.647-5.625,3.749c0,0,0,0,0,0v5.625   c0,2.103,2.471,3.75,5.625,3.75s5.625-1.647,5.625-3.75L-1162-2203.375C-1162-2203.375-1162-2203.375-1162-2203.375z    M-1167.625-2205.249c2.146,0,3.75,0.99,3.75,1.875s-1.604,1.875-3.75,1.875s-3.75-0.99-3.75-1.875   S-1169.771-2205.249-1167.625-2205.249z M-1167.625-2195.875c-2.146,0-3.75-0.99-3.75-1.875v-2.812   c0.989,0.584,2.295,0.938,3.75,0.938s2.761-0.354,3.75-0.938v2.812C-1163.875-2196.865-1165.479-2195.875-1167.625-2195.875z"></path>
	<path class="st1" d="M-1173.099-2213.963c-0.367-0.366-0.959-0.366-1.326,0l-4.233,4.233l-4.628-4.628   c-0.366-0.366-0.96-0.366-1.326,0c-0.366,0.366-0.366,0.96,0,1.326l4.628,4.628l-4.367,4.366c-0.366,0.366-0.366,0.96,0,1.326   c0.183,0.183,0.423,0.274,0.663,0.274s0.48-0.092,0.663-0.274l4.367-4.366l3.784,3.783c0.184,0.183,0.423,0.274,0.663,0.274   s0.479-0.092,0.663-0.274c0.366-0.366,0.366-0.96,0-1.326l-3.784-3.783l4.233-4.233   C-1172.732-2213.003-1172.732-2213.597-1173.099-2213.963z"></path>
</g>
</svg>
