<svg xmlns="http://www.w3.org/2000/svg" width="13.3" height="12.728" viewBox="0 0 13.3 12.728"><path id="Fill_1" data-name="Fill 1" d="M7.446,12.728H4.582V4.136H7.446V5.409l0-.006A3.49,3.49,0,0,1,9.991,3.946c2.1,0,3.309,1.415,3.309,3.882v4.9H10.436V8.146c0-1.232-.52-1.91-1.463-1.91A1.56,1.56,0,0,0,7.509,7.254a2.429,2.429,0,0,0-.063.7v4.773Zm-4.391,0H.191V4.136H3.055v8.59Zm-1.463-9.8A1.481,1.481,0,0,1,0,1.463,1.481,1.481,0,0,1,1.591,0a1.434,1.434,0,0,1,1.59,1.463A1.435,1.435,0,0,1,1.591,2.928Z" fill="#2A4BC2"/></svg>