<?xml version="1.0" encoding="utf-8"?>
<!-- Generator: Adobe Illustrator 24.2.1, SVG Export Plug-In . SVG Version: 6.00 Build 0)  -->
<svg version="1.1" id="Layer_1" xmlns="http://www.w3.org/2000/svg" xmlns:xlink="http://www.w3.org/1999/xlink" x="0px" y="0px"
	 viewBox="0 0 22.559 15.795" style="enable-background:new 0 0 22.559 15.795;" xml:space="preserve">
<style type="text/css">
	.st0{fill:#FFFFFF;}
</style>
<path id="Shape" class="st0" d="M22.095,2.472c-0.26-0.966-1.022-1.728-1.988-1.989C18.341,0,11.279,0,11.279,0S4.218,0,2.453,0.465
	c-0.948,0.26-1.728,1.041-1.988,2.007C0,4.237,0,7.898,0,7.898s0,3.679,0.465,5.426c0.26,0.966,1.022,1.728,1.988,1.988
	c1.784,0.483,8.827,0.483,8.827,0.483s7.061,0,8.827-0.465c0.966-0.26,1.728-1.022,1.989-1.988c0.465-1.765,0.465-5.426,0.465-5.426
	S22.578,4.237,22.095,2.472L22.095,2.472z M9.031,11.28V4.516l5.872,3.382L9.031,11.28z"/>
</svg>
