<?xml version="1.0" encoding="UTF-8"?>
<svg width="27px" height="26px" viewBox="0 0 27 26" version="1.1" xmlns="http://www.w3.org/2000/svg" xmlns:xlink="http://www.w3.org/1999/xlink">
    <title>B7384CC4-F7B9-403A-873E-06830C43EBC2</title>
    <g id="Page-1" stroke="none" stroke-width="1" fill="none" fill-rule="evenodd">
        <g id="Contact-V2" transform="translate(-907, -1276)" fill="#FFFFFF">
            <g id="Group-3" transform="translate(893, 1261)">
                <path d="M17.1818182,15.2727273 C15.2727273,15.2727273 14,16.5454545 14,18.2 C14,19.8545455 15.2727273,21.1272727 17.1818182,21.1272727 C19.2181818,21.1272727 20.3636364,19.8545455 20.3636364,18.2 C20.3636364,16.5454545 19.2181818,15.2727273 17.1818182,15.2727273 L17.1818182,15.2727273 Z M33.9818182,23.1636364 C30.9272727,23.1636364 28.8909091,26.0909091 28.8909091,26.0909091 L28.8909091,23.5454545 L23.1636364,23.5454545 L23.1636364,40.7272727 L28.8909091,40.7272727 L28.8909091,31.1818182 C28.8909091,30.6727273 28.8909091,30.1636364 29.0181818,29.7805455 C29.4,28.7636364 30.4181818,27.7454545 31.9454545,27.7454545 C33.9818182,27.7454545 34.8727273,29.2727273 34.8727273,31.5636364 L34.8727273,40.7272727 L40.6,40.7272727 L40.6,30.9272727 C40.6,25.5818182 37.8,23.1636364 33.9818182,23.1636364 L33.9818182,23.1636364 Z M14.3818182,40.7272727 L20.1090909,40.7272727 L20.1090909,23.5454545 L14.3818182,23.5454545 L14.3818182,40.7272727 Z" id="Fill-1"></path>
            </g>
        </g>
    </g>
</svg>