<svg xmlns="http://www.w3.org/2000/svg" width="219" height="150" viewBox="0 0 55.957 38.379"><path fill="#3A56BC" d="M0,25.781c0-1.822.562-3.743,1.686-5.762L11.206,0h6.744l-2.678,13.574c2.974.717,5.437,2.214,7.387,4.492,1.95,2.28,2.927,4.851,2.927,7.715,0,3.516-1.241,6.494-3.719,8.936-2.479,2.441-5.504,3.662-9.074,3.662-3.372,0-6.348-1.27-8.926-3.809S0,29.102,0,25.781ZM30.371,25.781c0-1.953.525-3.873,1.575-5.762L41.393,0h6.889l-2.855,13.574c2.951.717,5.444,2.214,7.479,4.492,2.034,2.28,3.052,4.851,3.052,7.715,0,3.516-1.264,6.494-3.789,8.936-2.527,2.441-5.561,3.662-9.102,3.662-3.348,0-6.3-1.27-8.858-3.809-2.559-2.539-3.837-5.469-3.837-8.789Z"/>
</svg>