<?xml version="1.0" encoding="UTF-8"?>
<svg width="198px" height="60px" viewBox="0 0 198 60" version="1.1" xmlns="http://www.w3.org/2000/svg" xmlns:xlink="http://www.w3.org/1999/xlink">
    <title>opteo-logo</title>
    <g id="New" stroke="none" stroke-width="1" fill="none" fill-rule="evenodd">
        <g id="Comparison-home-page-V1.1" transform="translate(-1265, -722)">
            <g id="opteo-logo" transform="translate(1265, 722)">
                <path d="M0,30.0211268 C0,28.3959 1.40334375,27 3.046875,27 C4.86960938,27 6.27121875,28.3959 6.328125,30.0211268 C6.27121875,43.1532211 16.9155469,53.754169 30,53.7253521 C43.0844531,53.754169 53.7285937,43.1532211 53.671875,30.0211268 C53.7285937,28.3959 55.130625,27 56.953125,27 C58.5965625,27 60,28.3959 60,30.0211268 C60,46.5966549 46.5419062,60 30,60 C13.4580937,60 0,46.5966549 0,30.0211268 Z" id="Path" fill="#0035EC"></path>
                <path d="M53.671875,29.9788732 C53.7285937,16.8467789 43.0844531,6.24569155 30,6.27464789 C16.9155469,6.24569155 6.27121875,16.8467789 6.328125,29.9788732 C6.27121875,31.6041 4.86960938,33 3.046875,33 C1.40334375,33 0,31.6041 0,29.9788732 C0,13.4033451 13.4580937,0 30,0 C46.5419062,0 60,13.4033451 60,29.9788732 C60,31.6041 58.5965625,33 56.953125,33 C55.130625,33 53.7285937,31.6041 53.671875,29.9788732 Z" id="Path" fill="#73D8FF"></path>
                <path d="M53.9113428,32.5681818 C49.0198279,23.4377636 39.4343715,19.3794659 29.5311285,19.4431818 C20.2111352,19.3794659 11.05749,23.3003568 6.08861483,32.5681818 C4.9673594,33.9339932 3.05309531,34.4479205 1.40009803,33.5227273 C0.0545146228,32.6794818 -0.45080517,30.7290591 0.46239842,28.9886364 C6.75700778,18.1361227 17.9880817,13 29.5311285,13 C41.6240899,13 53.3393454,18.3038364 59.537546,28.9886364 C60.4508664,30.7290591 59.9454458,32.6794818 58.5998455,33.5227273 C57.9504879,33.8590136 57.4084969,34 56.9588695,34 C55.7923701,34 54.7412077,33.4325227 53.9113428,32.5681818 Z" id="Path" fill="#3FBBFF"></path>
                <path d="M0.4620052,31.0062357 C-0.450624045,29.2648728 0.0547080291,27.3119626 1.39971154,26.4706906 C3.04634345,25.5411903 4.96764843,26.0552824 6.08825495,27.4255422 C10.9754891,36.5604642 20.5663074,40.6183448 30.4686319,40.5547517 C39.7882186,40.6183448 48.9438003,36.6961486 53.9113021,27.4255422 C55.0323306,26.0552824 56.9555673,25.5483039 58.5998361,26.4706906 C59.9454454,27.3119626 60.4508694,29.2648728 59.537543,31.0062357 C53.2459991,41.863901 42.0148503,47 30.4686319,47 C18.3730112,47 6.65734921,41.6943193 0.4620052,31.0062357 Z" id="Path" fill="#006DFF"></path>
                <path d="M86.2770919,29.9783491 C86.2770919,23.0500677 91.1934156,19.759134 95.9780521,19.759134 C100.806584,19.759134 105.722908,23.0500677 105.722908,29.9783491 C105.722908,36.9066306 100.806584,40.1975643 95.9780521,40.1975643 C91.1934156,40.1975643 86.2770919,36.9066306 86.2770919,29.9783491 Z M80,30.0216509 C80,39.894452 87.5500686,46 95.9780521,46 C104.449931,46 112,39.894452 112,30.0216509 C112,20.105548 104.449931,14 95.9780521,14 C87.5500686,14 80,20.105548 80,30.0216509 Z" id="Shape" fill="#010105" fill-rule="nonzero"></path>
                <path d="M120.42192,53 L120.42192,43.3709708 C121.419553,44.7758984 123.529584,45.9253846 126.356212,45.9253846 C132.134171,45.9253846 136,41.2422927 136,34.8988319 C136,28.6830918 132.549852,24 126.564052,24 C123.488016,24 121.336417,25.4049276 120.42192,27.0227229 L120.42192,24.7718772 L115,24.7718772 L115,53 L120.42192,53 Z M130.554585,34.9414055 C130.554585,38.687879 128.30991,40.8591307 125.483282,40.8591307 C122.656655,40.8591307 120.370412,38.6453054 120.370412,34.9414055 C120.370412,31.2375056 122.656655,29.0662539 125.483282,29.0662539 C128.30991,29.0662539 130.554585,31.2375056 130.554585,34.9414055 Z" id="Shape" fill="#010105" fill-rule="nonzero"></path>
                <path d="M146.333333,18 L141.246667,18 L141.246667,20.8106393 C141.246667,22.6552353 140.343667,23.9238507 138.111133,23.9238507 L137,23.9238507 L137,28.9363397 L140.733333,28.9363397 L140.733333,38.6277594 C140.733333,42.6104098 143.434867,45 147.556467,45 C149.230867,45 150.4848,44.6391008 151,44.4294876 L151,39.7815432 C150.699467,39.8653885 149.703133,40.053129 149.0162,40.053129 C147.384733,40.053129 146.333333,39.4662121 146.333333,37.6635388 L146.333333,28.9363397 L151,28.9363397 L151,23.9238507 L146.333333,23.9238507 L146.333333,18 Z" id="Path" fill="#010105" fill-rule="nonzero"></path>
                <path d="M157.802062,31.7204731 C157.931959,29.8239214 159.57732,27.5975346 162.564948,27.5975346 C165.85567,27.5975346 167.241237,29.655339 167.327835,31.7204731 L157.802062,31.7204731 Z M167.926961,37.1261036 C167.234177,38.9805097 165.725773,40.1954023 163.041237,40.1954023 C160.183505,40.1954023 157.802062,38.5828752 157.672165,35.8434116 L172.913402,35.8434116 C172.913402,35.7591204 173,34.5478927 173,33.7471264 C173,27.0881226 169.059794,23 162.478351,23 C157.02268,23 152,27.2988506 152,33.9157088 C152,40.9118774 157.152577,45 162.997938,45 C168.237113,45 171.614433,42.0827919 172.696907,38.5004165 L167.926961,37.1261036 Z" id="Shape" fill="#010105" fill-rule="nonzero"></path>
                <path d="M187.004404,39.9003831 C184.231977,39.9003831 181.672813,37.8773946 181.672813,34 C181.672813,30.0804598 184.231977,28.0996169 187.004404,28.0996169 C189.776832,28.0996169 192.335996,30.0804598 192.335996,34 C192.335996,37.9195402 189.776832,39.9003831 187.004404,39.9003831 Z M187.004404,23 C180.734453,23 176,27.5938697 176,34 C176,40.3639847 180.734453,45 187.004404,45 C193.274356,45 198,40.3639847 198,34 C198,27.5938697 193.274356,23 187.004404,23 Z" id="Shape" fill="#010105" fill-rule="nonzero"></path>
            </g>
        </g>
    </g>
</svg>