<svg xmlns="http://www.w3.org/2000/svg" width="25" height="25" viewBox="0 0 25 25"><g id="Group_38" data-name="Group 38" transform="translate(-307 -17.5)"><circle id="Oval" cx="12" cy="12" r="12" transform="translate(307.5 18)" fill="none" stroke="#2A4BC2" stroke-miterlimit="10" stroke-width="1"/><path id="Path" d="M0,.782A.779.779,0,0,1,.776,0a.892.892,0,0,1,.366.095L6.584,3.287A.9.9,0,0,1,7,3.961v.079a.9.9,0,0,1-.416.674L1.142,7.906A.891.891,0,0,1,.776,8,.779.779,0,0,1,0,7.218V.782Z" transform="translate(316.5 26)" fill="#2A4BC2"/></g></svg>