<svg xmlns="http://www.w3.org/2000/svg" width="20" height="19.984" viewBox="0 0 20 19.984"><g id="rss-feed-symbol" transform="translate(0 -.008)" fill="#fff"><circle id="Oval" cx="3.226" cy="3.226" r="3.226" transform="translate(.048 13.508)"/><path id="Path" d="M10.806,12.419a1.613,1.613,0,1,0,3.226,0A12.435,12.435,0,0,0,1.613,0a1.613,1.613,0,0,0,0,3.226A9.2,9.2,0,0,1,10.806,12.419Z" transform="translate(0 5.96)"/><path id="Path-2" data-name="Path" d="M18.371,19.984a1.618,1.618,0,0,0,1.613-1.613A18.393,18.393,0,0,0,1.613,0a1.613,1.613,0,0,0,0,3.226A15.157,15.157,0,0,1,16.758,18.371,1.607,1.607,0,0,0,18.371,19.984Z" transform="translate(.016 .008)"/></g></svg>