<?xml version="1.0" encoding="utf-8"?>
<!-- Generator: Adobe Illustrator 25.3.1, SVG Export Plug-In . SVG Version: 6.00 Build 0)  -->
<svg version="1.1" id="Layer_1" xmlns="http://www.w3.org/2000/svg" xmlns:xlink="http://www.w3.org/1999/xlink" x="0px" y="0px"
	 viewBox="0 0 20 24" style="enable-background:new 0 0 20 24;" xml:space="preserve">
<style type="text/css">
	.st0{fill:#2A4BC2;}
</style>
<path id="Shape" class="st0" d="M9.404,0.237c0.341-0.316,0.853-0.316,1.194,0c2.245,2.21,4.945,3.243,8.497,3.243
	c0.483,0,0.852,0.373,0.852,0.861c0,0.603,0,1.205,0.028,1.837c0.007,0.383,0.015,0.775,0.019,1.174l0.005,0.482
	c0.036,5.822-0.649,12.944-9.714,16.109l0,0L10,24l-0.284-0.057C0.988,20.904,0.028,14.196,0,8.529l0-0.483
	c0.002-0.64,0.014-1.266,0.026-1.868c0.028-0.631,0.028-1.234,0.028-1.837c0-0.488,0.369-0.861,0.853-0.861
	C4.459,3.48,7.159,2.447,9.404,0.237z M13.207,9.531l-4.6,3.692L6.908,11.26c-0.321-0.371-0.886-0.414-1.261-0.098
	c-0.376,0.316-0.42,0.873-0.099,1.244l2.266,2.617c0.177,0.204,0.428,0.309,0.681,0.309c0.199,0,0.398-0.065,0.564-0.198
	l5.278-4.235c0.384-0.307,0.441-0.863,0.13-1.241C14.154,9.281,13.59,9.224,13.207,9.531z"/>
</svg>
