<svg xmlns="http://www.w3.org/2000/svg" width="12.536" height="10.182" viewBox="0 0 12.536 10.182"><path id="Fill_1" data-name="Fill 1" d="M11.073,1.591a2.753,2.753,0,0,0,1.145-1.4,4.722,4.722,0,0,1-1.655.636A2.643,2.643,0,0,0,8.654,0,2.553,2.553,0,0,0,6.109,2.545a1.762,1.762,0,0,0,.064.573A6.948,6.948,0,0,1,.891.445,2.353,2.353,0,0,0,.509,1.782,2.655,2.655,0,0,0,1.655,3.945,3.476,3.476,0,0,1,.509,3.564,2.6,2.6,0,0,0,2.545,6.109a2.261,2.261,0,0,1-.636.127A1.4,1.4,0,0,1,1.4,6.173,2.54,2.54,0,0,0,3.818,7.955,5.062,5.062,0,0,1,.636,9.036,2.387,2.387,0,0,1,0,8.973a7.047,7.047,0,0,0,3.945,1.209,7.3,7.3,0,0,0,7.318-7.318V2.545a6.359,6.359,0,0,0,1.273-1.336A5.5,5.5,0,0,1,11.073,1.591Z" fill="#2A4BC2"/></svg>