<?xml version="1.0" encoding="UTF-8"?>
<svg width="122px" height="30px" viewBox="0 0 122 30" version="1.1" xmlns="http://www.w3.org/2000/svg" xmlns:xlink="http://www.w3.org/1999/xlink">
    <title>Group 14 Copy</title>
    <defs>
        <polygon id="path-1" points="0 30 122 30 122 0 0 0"></polygon>
    </defs>
    <g id="New" stroke="none" stroke-width="1" fill="none" fill-rule="evenodd">
        <g id="Comparison-page-Adabaduit-vs.-TrueClick" transform="translate(-1068, -816)">
            <g id="Group-14-Copy" transform="translate(1068, 816)">
                <path d="M34.1405194,20.7003 C31.1889065,20.7003 28.9260032,18.3003 28.9260032,15.2003 C28.9260032,12.2003 31.1889065,9.9003 34.0421323,9.9003 C36.9937452,9.9003 39.1582613,12.3003 39.2566484,15.3003 C39.2566484,18.3003 36.9937452,20.7003 34.1405194,20.7003 L34.1405194,20.7003 Z M38.9614871,0.9003 L38.9614871,8.3003 C37.6824548,6.9003 35.6163258,6.1003 33.4518097,6.1003 C28.5324548,6.1003 24.6953581,10.2003 24.6953581,15.4003 C24.6953581,20.5993 28.5324548,24.5993 33.4518097,24.5993 C35.8131,24.5993 37.5840677,23.8003 39.2566484,21.9003 L39.2566484,24.2003 L43.1921323,24.2003 L43.1921323,0.9003 L38.9614871,0.9003 Z" id="Fill-1" fill="#223D9E"></path>
                <path d="M54.4078677,20.7999 C51.2594806,20.7999 49.1933516,18.6999 49.1933516,15.6999 C49.1933516,12.4999 51.2594806,10.1999 54.3094806,10.1999 C57.3594806,10.1999 59.5239968,12.3999 59.5239968,15.5999 C59.5239968,18.4999 57.5562548,20.7999 54.4078677,20.7999 L54.4078677,20.7999 Z M59.6223839,6.6999 L59.6223839,8.9999 C58.1465774,7.0999 56.4739968,6.2999 53.9159323,6.2999 C48.7014161,6.2999 44.9627065,10.1999 44.9627065,15.4999 C44.9627065,20.7999 48.7014161,24.5999 53.8175452,24.5999 C56.2772226,24.5999 57.9498032,23.7999 59.6223839,21.9009 L59.6223839,24.1999 L63.4594806,24.0999 L63.4594806,6.6999 L59.6223839,6.6999 Z" id="Fill-3" fill="#223D9E"></path>
                <mask id="mask-2" fill="white">
                    <use xlink:href="#path-1"></use>
                </mask>
                <g id="Clip-6"></g>
                <polygon id="Fill-5" fill="#223D9E" mask="url(#mask-2)" points="66.0177419 24.2 70.249371 24.2 70.249371 0.9 66.0177419 0.9"></polygon>
                <polygon id="Fill-7" fill="#223D9E" mask="url(#mask-2)" points="79.2016129 30.0001 74.6758065 30.0001 77.9225806 22.5001 71.5274194 6.7001 76.3483871 6.7001 80.1854839 18.0001 84.416129 6.7001 89.2370968 6.7001"></polygon>
                <path d="M95.3374903,24.5997 C91.8939419,24.5997 89.3348935,22.7007 88.942329,18.5997 L93.1729742,18.5997 C93.5655387,20.0997 94.2542484,20.7007 95.5332806,20.7007 C96.6165226,20.7007 97.4036194,19.9997 97.4036194,18.9997 C97.4036194,17.9997 97.2058613,17.7007 94.4520065,16.7997 C91.0084581,15.5997 89.6300548,14.1997 89.6300548,11.5997 C89.6300548,8.5997 92.1891032,6.2997 95.4358774,6.2997 C98.3874903,6.2997 101.043942,8.2997 101.240716,11.4997 L97.1084581,11.4997 C96.9116839,10.5997 96.3213613,10.0997 95.4358774,10.0997 C94.5494097,10.0997 93.8616839,10.6997 93.8616839,11.5997 C93.8616839,12.4997 93.960071,12.5997 96.8132968,13.4997 C100.452635,14.5997 101.633281,15.9997 101.633281,18.5997 C101.633281,21.8997 98.8794258,24.5997 95.3374903,24.5997" id="Fill-8" fill="#223D9E" mask="url(#mask-2)"></path>
                <polygon id="Fill-9" fill="#223D9E" mask="url(#mask-2)" points="103.404445 24.2003 103.404445 6.7003 107.636074 6.7003 107.636074 24.0993 103.404445 24.0993"></polygon>
                <polygon id="Fill-10" fill="#223D9E" mask="url(#mask-2)" points="103.404839 4.2 107.636468 4.2 107.636468 0 103.404839 0"></polygon>
                <path d="M115.702832,24.5997 C112.259284,24.5997 109.701219,22.7007 109.307671,18.5997 L113.5393,18.5997 C113.931865,20.0997 114.620574,20.7007 115.899606,20.7007 C116.982848,20.7007 117.769945,19.9997 117.769945,18.9997 C117.769945,17.9997 117.572187,17.7007 114.818332,16.7997 C111.374784,15.5997 109.898977,14.1997 109.898977,11.5997 C109.898977,8.5997 112.456058,6.2997 115.702832,6.2997 C118.654445,6.2997 121.310897,8.2997 121.507671,11.4997 L117.375413,11.4997 C117.178639,10.5997 116.588316,10.0997 115.702832,10.0997 C114.818332,10.0997 114.128639,10.6997 114.128639,11.5997 C114.128639,12.4997 114.227026,12.5997 117.080252,13.4997 C120.721558,14.5997 121.999606,15.9997 121.999606,18.5997 C121.999606,21.8997 119.245752,24.5997 115.702832,24.5997" id="Fill-11" fill="#223D9E" mask="url(#mask-2)"></path>
                <path d="M11.7079661,1.0001 L8.85474032,8.1001 L12.2982887,10.2001 L13.3805468,7.0001 C14.4628048,9.8001 15.4466758,12.6001 16.5289339,15.4001 C11.609579,10.7001 5.11603065,6.7001 -9.83870964e-05,4.8001 L-9.83870964e-05,8.4001 C9.14990161,13.6001 15.0531274,19.5001 19.9724823,24.0001 L24.5966758,24.0001 L15.0531274,1.0001 L11.7079661,1.0001 Z" id="Fill-12" fill="#223D9E" mask="url(#mask-2)"></path>
                <polygon id="Fill-13" fill="#8592A6" mask="url(#mask-2)" points="6.88709677 14.0001 2.9516129 24.0001 7.18225806 24.0001 9.83870968 16.6001"></polygon>
            </g>
        </g>
    </g>
</svg>