<?xml version="1.0" encoding="UTF-8"?>
<svg width="119px" height="36px" viewBox="0 0 119 36" version="1.1" xmlns="http://www.w3.org/2000/svg" xmlns:xlink="http://www.w3.org/1999/xlink">
    <title>opteo-logo</title>
    <g id="New" stroke="none" stroke-width="1" fill="none" fill-rule="evenodd">
        <g id="Comparison-page-Adabaduit-vs.-Opteo" transform="translate(-1352, -920)">
            <g id="opteo-logo" transform="translate(1352, 920)">
                <path d="M0,16.9225352 C0,15.8883 0.84200625,15 1.828125,15 C2.92176562,15 3.76273125,15.8883 3.796875,16.9225352 C3.76273125,25.2793225 10.1493281,32.0253803 18,32.0070423 C25.8506719,32.0253803 32.2371562,25.2793225 32.203125,16.9225352 C32.2371562,15.8883 33.078375,15 34.171875,15 C35.1579375,15 36,15.8883 36,16.9225352 C36,27.4705986 27.9251438,36 18,36 C8.07485625,36 0,27.4705986 0,16.9225352 Z" id="Path" fill="#0035EC"></path>
                <path d="M32.203125,19.0774648 C32.2371562,10.7206775 25.8506719,3.97453099 18,3.99295775 C10.1493281,3.97453099 3.76273125,10.7206775 3.796875,19.0774648 C3.76273125,20.1117 2.92176562,21 1.828125,21 C0.84200625,21 0,20.1117 0,19.0774648 C0,8.52940141 8.07485625,0 18,0 C27.9251438,0 36,8.52940141 36,19.0774648 C36,20.1117 35.1579375,21 34.171875,21 C33.078375,21 32.2371562,20.1117 32.203125,19.0774648 Z" id="Path" fill="#73D8FF"></path>
                <path d="M32.3468057,18.1818182 C29.4118967,12.9644364 23.6606229,10.6454091 17.7186771,10.6818182 C12.1266811,10.6454091 6.63449402,12.8859182 3.6531689,18.1818182 C2.98041564,18.9622818 1.83185719,19.2559545 0.840058818,18.7272727 C0.0327087737,18.2454182 -0.270483102,17.1308909 0.277439052,16.1363636 C4.05420467,9.93492727 10.792849,7 17.7186771,7 C24.9744539,7 32.0036073,10.0307636 35.7225276,16.1363636 C36.2705198,17.1308909 35.9672675,18.2454182 35.1599073,18.7272727 C34.7702927,18.9194364 34.4450982,19 34.1753217,19 C33.475422,19 32.8447246,18.6757273 32.3468057,18.1818182 Z" id="Path" fill="#3FBBFF"></path>
                <path d="M0.27720312,19.8607061 C-0.270374427,18.8656416 0.0328248174,17.7496929 0.839826923,17.268966 C1.82780607,16.737823 2.98058906,17.0315899 3.65295297,17.8145955 C6.58529344,23.034551 12.3397844,25.3533399 18.2811792,25.317001 C23.8729311,25.3533399 29.3662802,23.1120849 32.3467813,17.8145955 C33.0193984,17.0315899 34.1733404,16.741888 35.1599017,17.268966 C35.9672672,17.7496929 36.2705216,18.8656416 35.7225258,19.8607061 C31.9475995,26.0650863 25.2089102,29 18.2811792,29 C11.0238067,29 3.99440953,25.9681825 0.27720312,19.8607061 Z" id="Path" fill="#006DFF"></path>
                <path d="M51.9231824,18.9864682 C51.9231824,14.6562923 54.9958848,12.5994587 57.9862826,12.5994587 C61.0041152,12.5994587 64.0768176,14.6562923 64.0768176,18.9864682 C64.0768176,23.3166441 61.0041152,25.3734777 57.9862826,25.3734777 C54.9958848,25.3734777 51.9231824,23.3166441 51.9231824,18.9864682 Z M48,19.0135318 C48,25.1840325 52.7187929,29 57.9862826,29 C63.2812071,29 68,25.1840325 68,19.0135318 C68,12.8159675 63.2812071,9 57.9862826,9 C52.7187929,9 48,12.8159675 48,19.0135318 Z" id="Shape" fill="#010105" fill-rule="nonzero"></path>
                <path d="M73.09824,32 L73.09824,26.6874322 C73.6683162,27.4625646 74.8740479,28.0967639 76.4892637,28.0967639 C79.7909549,28.0967639 82,25.5129891 82,22.0131487 C82,18.5837748 80.0284866,16 76.6080296,16 C74.8502948,16 73.6208098,16.7751324 73.09824,17.6677092 L73.09824,16.4258633 L70,16.4258633 L70,32 L73.09824,32 Z M78.8883343,22.0366375 C78.8883343,24.1036574 77.6056629,25.3015893 75.9904471,25.3015893 C74.3752313,25.3015893 73.0688067,24.0801685 73.0688067,22.0366375 C73.0688067,19.9931065 74.3752313,18.7951746 75.9904471,18.7951746 C77.6056629,18.7951746 78.8883343,19.9931065 78.8883343,22.0366375 Z" id="Shape" fill="#010105" fill-rule="nonzero"></path>
                <path d="M86.6666667,13 L84.1233333,13 L84.1233333,14.5614663 C84.1233333,15.5862418 83.6718333,16.2910282 82.5555667,16.2910282 L82,16.2910282 L82,19.0757443 L83.8666667,19.0757443 L83.8666667,24.4598663 C83.8666667,26.6724499 85.2174333,28 87.2782333,28 C88.1154333,28 88.7424,27.7995004 89,27.6830487 L89,25.1008574 C88.8497333,25.1474381 88.3515667,25.2517383 88.0081,25.2517383 C87.1923667,25.2517383 86.6666667,24.9256734 86.6666667,23.9241882 L86.6666667,19.0757443 L89,19.0757443 L89,16.2910282 L86.6666667,16.2910282 L86.6666667,13 Z" id="Path" fill="#010105" fill-rule="nonzero"></path>
                <path d="M95.3154639,20.1530068 C95.3896907,19.0323172 96.3298969,17.716725 98.0371134,17.716725 C99.9175258,17.716725 100.709278,18.9327003 100.758763,20.1530068 L95.3154639,20.1530068 Z M101.101121,23.347243 C100.705244,24.4430285 99.843299,25.1609195 98.3092784,25.1609195 C96.6762887,25.1609195 95.3154639,24.2080626 95.2412371,22.5892887 L103.950515,22.5892887 C103.950515,22.5394803 104,21.8237548 104,21.3505747 C104,17.4157088 101.748454,15 97.9876289,15 C94.8701031,15 92,17.5402299 92,21.4501916 C92,25.5842912 94.9443299,28 98.2845361,28 C101.278351,28 103.208247,26.2761952 103.826804,24.159337 L101.101121,23.347243 Z" id="Shape" fill="#010105" fill-rule="nonzero"></path>
                <path d="M112.502603,24.98659 C110.86435,24.98659 109.352117,23.7911877 109.352117,21.5 C109.352117,19.183908 110.86435,18.01341 112.502603,18.01341 C114.140855,18.01341 115.653088,19.183908 115.653088,21.5 C115.653088,23.816092 114.140855,24.98659 112.502603,24.98659 Z M112.502603,15 C108.797631,15 106,17.7145594 106,21.5 C106,25.2605364 108.797631,28 112.502603,28 C116.207574,28 119,25.2605364 119,21.5 C119,17.7145594 116.207574,15 112.502603,15 Z" id="Shape" fill="#010105" fill-rule="nonzero"></path>
            </g>
        </g>
    </g>
</svg>