<?xml version="1.0" encoding="UTF-8"?>
<svg width="133px" height="24px" viewBox="0 0 133 24" version="1.1" xmlns="http://www.w3.org/2000/svg" xmlns:xlink="http://www.w3.org/1999/xlink">
    <title>logo copy</title>
    <g id="New" stroke="none" stroke-width="1" fill="none" fill-rule="evenodd">
        <g id="Comparison-page-Adabaduit-vs.-Optmyzr" transform="translate(-1290, -956)">
            <g id="logo-copy" transform="translate(1290, 956)">
                <path d="M16.9589143,10.7846096 C16.9310883,10.8125843 16.9224065,10.854509 16.9363567,10.8915102 C17.2172887,11.6355622 17.371037,12.4425759 17.371037,13.2857702 C17.371037,17.0137141 14.3650793,20.035726 10.6570884,20.035726 C6.94906778,20.035726 3.94311009,17.0137141 3.94311009,13.2857702 C3.94311009,9.55782641 6.94906778,6.5357473 10.6570884,6.5357473 C11.5880374,6.5357473 12.4747615,6.72624371 13.280753,7.07058597 C13.3182996,7.08663971 13.3618567,7.07840397 13.3907216,7.04939981 L16.1682087,4.25696675 C16.2133982,4.21152095 16.2046423,4.13557154 16.1499548,4.10238237 C14.5458375,3.1305269 12.6663533,2.57142857 10.6570884,2.57142857 C4.77133269,2.57142857 0,7.36838582 0,13.2857702 C0,19.2031248 4.77133269,24 10.6570884,24 C16.5427847,24 21.3141026,19.2031248 21.3141026,13.2857702 C21.3141026,11.357009 20.8072229,9.54723333 19.9199793,7.98385873 C19.8877753,7.92723797 19.8109011,7.91731628 19.7650437,7.96341856 L16.9589143,10.7846096 Z" id="Path" fill="#2D3A48" fill-rule="nonzero"></path>
                <path d="M17.2820368,3.33490326 L15.8339227,3.14526112 C15.7354211,3.13237863 15.7173783,2.99771045 15.809059,2.95948806 L22.8843109,0.00776884483 C22.963743,-0.0253981029 23.0440552,0.0534978098 23.0120037,0.133382893 L20.1668233,7.23748495 C20.1298576,7.32978067 19.9943903,7.31349743 19.9803082,7.21514953 L19.760788,5.68020895 L11.3623277,14.0720518 C11.0423256,14.3918086 10.6083461,14.5714286 10.1558838,14.5714286 C9.70334816,14.5714286 9.26936867,14.3918086 8.94936656,14.0720518 L6.4676889,11.5922436 C5.80136866,10.926504 5.80136866,9.84698264 6.4676889,9.18117094 C7.13394314,8.51543129 8.21430783,8.51543129 8.88064275,9.18117094 L10.1558838,10.4554427 L17.2820368,3.33490326 Z" id="Path" fill="#069BA2"></path>
                <path d="M28.1707117,12.4932839 C28.1160372,12.4932839 28.0718513,12.4491485 28.0718513,12.3946631 L28.0718513,6.47458062 C28.0718513,6.42010997 28.1160372,6.37598934 28.1707117,6.37598934 L31.5589681,6.37598934 C33.6789251,6.37598934 34.9620276,7.57162298 34.9620276,9.46243012 C34.9620276,11.3254327 33.6789251,12.4932839 31.5589681,12.4932839 L28.1707117,12.4932839 Z M32.0610808,15.4406723 C35.8548212,15.4406723 38.3653846,12.9103156 38.3653846,9.43463294 C38.3653846,5.98671052 35.8548212,3.42857143 32.0610808,3.42857143 L24.8232938,3.42857143 C24.7686193,3.42857143 24.724359,3.47271424 24.724359,3.52714792 L24.724359,23.0443102 C24.724359,23.0987957 24.7686193,23.1428571 24.8232938,23.1428571 L27.9729165,23.1428571 C28.027591,23.1428571 28.0718513,23.0987957 28.0718513,23.0443102 L28.0718513,15.5392192 C28.0718513,15.4848077 28.1160372,15.4406723 28.1707117,15.4406723 L32.0610808,15.4406723 Z" id="Shape" fill="#2D3A48" fill-rule="nonzero"></path>
                <path d="M55.3178595,6.57062875 C55.3724302,6.57062875 55.4166667,6.52650812 55.4166667,6.47209661 L55.4166667,3.52714792 C55.4166667,3.47271424 55.3724302,3.42857143 55.3178595,3.42857143 L39.3167558,3.42857143 C39.2621108,3.42857143 39.2179487,3.47271424 39.2179487,3.52714792 L39.2179487,6.47209661 C39.2179487,6.52650812 39.2621108,6.57062875 39.3167558,6.57062875 L45.5316422,6.57062875 C45.5862872,6.57062875 45.6305236,6.61474938 45.6305236,6.66922003 L45.6305236,23.0443102 C45.6305236,23.0987957 45.6746857,23.1428571 45.7293307,23.1428571 L48.8773302,23.1428571 C48.9319009,23.1428571 48.9762116,23.0987957 48.9762116,23.0443102 L48.9762116,6.66922003 C48.9762116,6.61474938 49.0203737,6.57062875 49.0749444,6.57062875 L55.3178595,6.57062875 Z" id="Path" fill="#2D3A48" fill-rule="nonzero"></path>
                <path d="M79.1884277,23.1428571 C79.2437494,23.1428571 79.2884615,23.0987957 79.2884615,23.0443102 L79.2884615,3.52714792 C79.2884615,3.47271424 79.2437494,3.42857143 79.1884277,3.42857143 L74.7232806,3.42857143 C74.6831155,3.42857143 74.6459817,3.45240603 74.630825,3.48900073 L68.297849,18.2563197 C68.2632918,18.3366802 68.1468888,18.336902 68.1123317,18.2567633 L61.6950089,3.48857933 C61.679246,3.45220643 61.64287,3.42857143 61.6022502,3.42857143 L57.2225108,3.42857143 C57.1668859,3.42857143 57.1217949,3.47271424 57.1217949,3.52714792 L57.1217949,23.0443102 C57.1217949,23.0987957 57.1668859,23.1428571 57.2225108,23.1428571 L60.3460676,23.1428571 C60.4018441,23.1428571 60.4467077,23.0987957 60.4467077,23.0443102 L60.4467077,9.17189043 C60.4467077,9.06432421 60.5976679,9.03453096 60.6407128,9.13366931 L66.6445623,23.0825313 C66.6603252,23.119126 66.6973074,23.1428571 66.7379272,23.1428571 L69.559488,23.1428571 C69.6001078,23.1428571 69.6364837,23.1192 69.6522466,23.0827531 L75.7137672,9.07548744 C75.7562058,8.97657088 75.9070144,9.00651199 75.9070144,9.11385642 L75.9070144,23.0443102 C75.9070144,23.0987957 75.9517265,23.1428571 76.0078061,23.1428571 L79.1884277,23.1428571 Z" id="Path" fill="#2D3A48" fill-rule="nonzero"></path>
                <path d="M89.5124218,14.777606 C89.5213304,14.7929832 89.5265271,14.8106521 89.5265271,14.8286907 L89.5265271,23.0443102 C89.5265271,23.0987957 89.5710699,23.1428571 89.6252638,23.1428571 L92.768506,23.1428571 C92.8234422,23.1428571 92.8672427,23.0987957 92.8672427,23.0443102 L92.8672427,14.8288386 C92.8672427,14.8108 92.8724394,14.7929832 92.881348,14.7774581 L99.7350118,3.57855792 C99.7758427,3.51287969 99.7283303,3.42857143 99.6518651,3.42857143 L96.1262965,3.42857143 C96.0914045,3.42857143 96.0587398,3.44740845 96.0409226,3.47795578 L91.3943583,11.5381255 C91.3557545,11.6040698 91.2607297,11.603922 91.2228682,11.5378298 L86.603772,3.47818496 C86.5859549,3.44749717 86.5532901,3.42857143 86.5183982,3.42857143 L82.7975833,3.42857143 C82.7203757,3.42857143 82.6728633,3.5125544 82.7136942,3.57826221 L89.5124218,14.777606 Z" id="Path" fill="#2D3A48" fill-rule="nonzero"></path>
                <path d="M116.703597,23.1428571 C116.75762,23.1428571 116.801282,23.0987957 116.801282,23.0443102 L116.801282,20.0715643 C116.801282,20.0171528 116.75762,19.9730174 116.703597,19.9730174 L105.826529,19.9730174 C105.743644,19.9730174 105.697762,19.8758752 105.751045,19.8116311 L116.640694,6.62580911 C116.654755,6.60812537 116.662895,6.58588763 116.662895,6.56294017 L116.662895,3.52714792 C116.662895,3.47271424 116.618493,3.42857143 116.56447,3.42857143 L101.858449,3.42857143 C101.804426,3.42857143 101.760024,3.47271424 101.760024,3.52714792 L101.760024,6.47209661 C101.760024,6.52650812 101.804426,6.57062875 101.858449,6.57062875 L112.153108,6.57062875 C112.236732,6.57062875 112.281874,6.66750488 112.229332,6.73179326 L101.477329,19.834549 C101.462529,19.852144 101.455128,19.8743226 101.455128,19.8970927 L101.455128,23.0443102 C101.455128,23.0987957 101.49879,23.1428571 101.553553,23.1428571 L116.703597,23.1428571 Z" id="Path" fill="#2D3A48" fill-rule="nonzero"></path>
                <path d="M129.217331,23.0905896 C129.233531,23.1227485 129.267403,23.1428571 129.303485,23.1428571 L132.835056,23.1428571 C132.909428,23.1428571 132.956555,23.0626445 132.92121,22.9969219 L128.643708,15.1363818 C128.612045,15.0795307 128.644444,15.0084852 128.706298,14.9920731 C131.366759,14.2907857 133,12.1723596 133,9.40683576 C133,6.07012424 130.653228,3.42857143 126.869822,3.42857143 L119.45691,3.42857143 C119.402419,3.42857143 119.358974,3.47271424 119.358974,3.52714792 L119.358974,23.0443102 C119.358974,23.0987957 119.402419,23.1428571 119.45691,23.1428571 L122.60263,23.1428571 C122.656384,23.1428571 122.700565,23.0987957 122.700565,23.0443102 L122.700565,15.4558276 C122.700565,15.4013422 122.744011,15.3572807 122.797765,15.3572807 L125.071637,15.3572807 C125.106982,15.3572807 125.140855,15.3773893 125.157791,15.4095483 L129.217331,23.0905896 Z M122.797765,12.4098924 C122.744011,12.4098924 122.700565,12.365683 122.700565,12.3112715 L122.700565,6.47458062 C122.700565,6.42010997 122.744011,6.37598934 122.797765,6.37598934 L126.262327,6.37598934 C128.30572,6.37598934 129.631164,7.57162298 129.631164,9.40683576 C129.631164,11.21417 128.30572,12.4098924 126.262327,12.4098924 L122.797765,12.4098924 Z" id="Shape" fill="#2D3A48" fill-rule="nonzero"></path>
            </g>
        </g>
    </g>
</svg>