<?xml version="1.0" encoding="UTF-8"?>
<svg width="16px" height="17px" viewBox="0 0 16 17" version="1.1" xmlns="http://www.w3.org/2000/svg" xmlns:xlink="http://www.w3.org/1999/xlink">
    <title>963465B6-8091-4644-817E-63E5BFEA8313</title>
    <g id="Page-1" stroke="none" stroke-width="1" fill="none" fill-rule="evenodd">
        <g id="V7-Popup" transform="translate(-1300, -213)" fill="#001738" fill-rule="nonzero">
            <g id="Group-2" transform="translate(572, 181)">
                <path d="M737.05439,40.302267 L743.419607,33.8889497 C743.750042,33.556018 743.750042,33.0128135 743.419607,32.662359 C743.089172,32.3119045 742.550042,32.3294272 742.202216,32.662359 L735.836998,39.0756763 L729.471781,32.662359 C729.141346,32.3294272 728.602216,32.3294272 728.25439,32.662359 C727.906564,32.9952908 727.923955,33.5384952 728.25439,33.8889497 L734.619607,40.302267 L728.25439,46.7155843 C727.923955,47.048516 727.923955,47.5917205 728.25439,47.942175 C728.428303,48.1174023 728.636998,48.1874932 728.863085,48.1874932 C729.089172,48.1874932 729.297868,48.0998795 729.471781,47.942175 L735.836998,41.5288577 L742.202216,47.942175 C742.376129,48.1174023 742.584824,48.1874932 742.810911,48.1874932 C743.036998,48.1874932 743.245694,48.0998795 743.419607,47.942175 C743.750042,47.6092432 743.750042,47.0660388 743.419607,46.7155843 L737.05439,40.302267 Z" id="close-icon"></path>
            </g>
        </g>
    </g>
</svg>