<?xml version="1.0" encoding="UTF-8"?>
<svg width="21px" height="20px" viewBox="0 0 21 20" version="1.1" xmlns="http://www.w3.org/2000/svg" xmlns:xlink="http://www.w3.org/1999/xlink">
    <title>8EA3936E-E36B-4B49-AB86-560DBD7CCFB9</title>
    <g id="Page-1" stroke="none" stroke-width="1" fill="none" fill-rule="evenodd">
        <g id="Footer---V1" transform="translate(-382, -1613)" fill="#FFFFFF">
            <g id="linkedin" transform="translate(371, 1603)">
                <path d="M13.5,10.0001 C12,10.0001 11,11.0001 11,12.3001 C11,13.6001 12,14.6001 13.5,14.6001 C15.1,14.6001 16,13.6001 16,12.3001 C16,11.0001 15.1,10.0001 13.5,10.0001 L13.5,10.0001 Z M26.7,16.2001 C24.3,16.2001 22.7,18.5001 22.7,18.5001 L22.7,16.5001 L18.2,16.5001 L18.2,30.0001 L22.7,30.0001 L22.7,22.5001 C22.7,22.1001 22.7,21.7001 22.8,21.3991 C23.1,20.6001 23.9,19.8001 25.1,19.8001 C26.7,19.8001 27.4,21.0001 27.4,22.8001 L27.4,30.0001 L31.9,30.0001 L31.9,22.3001 C31.9,18.1001 29.7,16.2001 26.7,16.2001 L26.7,16.2001 Z M11.3,30.0001 L15.8,30.0001 L15.8,16.5001 L11.3,16.5001 L11.3,30.0001 Z" id="Fill-1"></path>
            </g>
        </g>
    </g>
</svg>