<?xml version="1.0" encoding="UTF-8"?>
<svg width="25px" height="25px" viewBox="0 0 25 25" version="1.1" xmlns="http://www.w3.org/2000/svg" xmlns:xlink="http://www.w3.org/1999/xlink">
    <title>Group</title>
    <g id="New" stroke="none" stroke-width="1" fill="none" fill-rule="evenodd" stroke-linecap="round" stroke-linejoin="round">
        <g id="Contact" transform="translate(-55, -105)" stroke-width="1.5">
            <g id="Group-5" transform="translate(26, 27)">
                <g id="meeting-headphones" transform="translate(29.25, 78.239)">
                    <path d="M4.5,18.011 L3.75,18.011 C2.09314575,18.011 0.75,16.6678542 0.75,15.011 L0.75,12.011 C0.75,10.3541458 2.09314575,9.011 3.75,9.011 L4.5,9.011 C4.914,9.011 6,9.347 6,9.761 L6,17.261 C6,17.675 4.914,18.011 4.5,18.011 Z" id="Shape" stroke="#3A56BC"></path>
                    <path d="M20.25,18.011 L19.5,18.011 C19.086,18.011 18,17.675 18,17.261 L18,9.761 C18,9.347 19.086,9.011 19.5,9.011 L20.25,9.011 C21.9068542,9.011 23.25,10.3541458 23.25,12.011 L23.25,15.011 C23.25,16.6678542 21.9068542,18.011 20.25,18.011 L20.25,18.011 Z" id="Shape" stroke="#3A56BC"></path>
                    <path d="M3.75,9.011 C3.75,4.45465081 7.44365081,0.761 12,0.761 L12,0.761 C14.188036,0.761 16.2864558,1.63019393 17.8336309,3.17736906 C19.3808061,4.72454418 20.25,6.82296396 20.25,9.011" id="Shape" stroke="#3A56BC"></path>
                    <path d="M15,21.761 L17.25,21.761 C18.9068542,21.761 20.25,20.4178542 20.25,18.761 L20.25,18.761 L20.25,18.011" id="Shape" stroke="#3A56BC"></path>
                    <path d="M13.5,23.261 L10.5,23.261 C9.67157288,23.261 9,22.5894271 9,21.761 L9,21.761 C9,20.9325729 9.67157288,20.261 10.5,20.261 L13.5,20.261 C14.3284271,20.261 15,20.9325729 15,21.761 L15,21.761 C15,22.1588247 14.8419647,22.5403556 14.5606602,22.8216602 C14.2793556,23.1029647 13.8978247,23.261 13.5,23.261 L13.5,23.261 Z" id="Shape" stroke="#FFAF24"></path>
                </g>
            </g>
        </g>
    </g>
</svg>