<?xml version="1.0" encoding="utf-8"?>
<!-- Generator: Adobe Illustrator 22.0.1, SVG Export Plug-In . SVG Version: 6.00 Build 0)  -->
<svg version="1.1"
	 id="svg8" inkscape:version="0.92.2 (5c3e80d, 2017-08-06)" sodipodi:docname="logo.svg" xmlns:cc="http://creativecommons.org/ns#" xmlns:dc="http://purl.org/dc/elements/1.1/" xmlns:inkscape="http://www.inkscape.org/namespaces/inkscape" xmlns:rdf="http://www.w3.org/1999/02/22-rdf-syntax-ns#" xmlns:sodipodi="http://sodipodi.sourceforge.net/DTD/sodipodi-0.dtd" xmlns:svg="http://www.w3.org/2000/svg"
	 xmlns="http://www.w3.org/2000/svg" xmlns:xlink="http://www.w3.org/1999/xlink" x="0px" y="0px" viewBox="0 0 778.3 230.3"
	 style="enable-background:new 0 0 778.3 230.3;" xml:space="preserve">
<style type="text/css">
	.st0{enable-background:new    ;}
	.st1{fill:#fff;}
	.st2{fill:#fff;}
</style>
<sodipodi:namedview  bordercolor="#666666" borderopacity="1.0" id="base" inkscape:current-layer="layer1" inkscape:cx="564.47153" inkscape:cy="330.00583" inkscape:document-units="mm" inkscape:guide-bbox="true" inkscape:pageopacity="0.0" inkscape:pageshadow="2" inkscape:window-height="1224" inkscape:window-maximized="1" inkscape:window-width="2100" inkscape:window-x="2391" inkscape:window-y="29" inkscape:zoom="1.2917998" pagecolor="#ffffff" showgrid="false" showguides="true">
	</sodipodi:namedview>
<g id="layer1" transform="translate(0,-230)" inkscape:groupmode="layer" inkscape:label="Layer 1">
	<g id="g4647" transform="translate(-1.0583333,1.0583333)">
		<g class="st0">
			<path class="st1" d="M250.5,399.6v-14.1c-10.7,11.8-21.8,16.7-37,16.7c-31.7,0-56.2-24.9-56.2-57.1c0-32.6,24.6-58.1,56-58.1
				c14.1,0,27.1,5.1,34.9,13.5v-45.9h26.9v145H250.5z M217.2,310.9c-18.4,0-32.7,14.5-32.7,33c0,19.2,14.5,34.3,33.3,34.3
				c18.2,0,32.5-14.7,32.5-33.6C250.3,325.6,236,310.9,217.2,310.9z"/>
			<path class="st1" d="M380.6,399.6v-14.1c-10.7,11.8-21.4,16.7-37.2,16.7c-32.7,0-56.4-23.7-56.4-56.5c0-33.2,23.8-57.3,57-57.3
				c16.2,0,27.3,5.1,36.6,17.1v-14.5h24.6v108.7H380.6z M346.9,312.3c-19.2,0-32.7,14.1-32.7,34c0,19,13.5,32,33.1,32
				c20.4,0,32.5-14.1,32.5-32.2C379.8,326.2,366,312.3,346.9,312.3z"/>
			<path class="st1" d="M421.6,399.6v-145h26.9v145H421.6z"/>
			<path class="st1" d="M505.6,435.9h-28.9l21-46.5l-41-98.5h30.7l24.8,70.5l27.1-70.5h30.9L505.6,435.9z"/>
			<path class="st1" d="M608.8,402.1c-22.2,0-38.2-11.8-41-37.1h27.1c2.6,9.2,7.1,13.2,14.9,13.2c6.9,0,12.1-4.5,12.1-10.6
				c0-6.3-1-8-19-13.9c-22.2-7.3-31.1-16.3-31.1-32.2c0-18.6,16.4-33.2,37.2-33.2c19,0,35.8,12.2,36.8,32.6h-26.3
				c-1.2-5.7-4.8-8.6-10.5-8.6c-5.9,0-10.3,3.9-10.3,9.2c0,5.7,0.6,6.1,19,11.8c23.4,7.1,31.1,15.7,31.1,31.8
				C648.8,385.8,631.3,402.1,608.8,402.1z"/>
			<path class="st1" d="M660.2,399.6V290.9H687v108.7H660.2z M660.4,275.2v-26.1h26.9v26.1H660.4z"/>
			<path class="st1" d="M738.9,402.1c-22.2,0-38.2-11.8-41-37.1H725c2.6,9.2,7.1,13.2,14.9,13.2c6.9,0,12.1-4.5,12.1-10.6
				c0-6.3-1-8-19-13.9c-22.2-7.3-31.1-16.3-31.1-32.2c0-18.6,16.4-33.2,37.2-33.2c19,0,35.8,12.2,36.8,32.6h-26.3
				c-1.2-5.7-4.8-8.6-10.5-8.6c-5.9,0-10.3,3.9-10.3,9.2c0,5.7,0.6,6.1,19,11.8c23.4,7.1,31.1,15.7,31.1,31.8
				C778.9,385.8,761.4,402.1,738.9,402.1z"/>
		</g>
		<path id="path53" inkscape:connector-curvature="0" class="st1" d="M74.2,258.1l-18,43.7l21.3,13l7.1-19.7
			c6.5,17.2,13,34.4,19.5,51.6c-30.4-28.7-71.2-53.3-103-65v22C58,336.1,95.1,372.4,125.5,400h29L95,258.1H74.2z"/>
		<path id="path53-8" inkscape:connector-curvature="0" sodipodi:nodetypes="ccccc" class="st2" d="M41.6,337.2l-26.5,62.2h29
			L62,353.6L41.6,337.2z"/>
	</g>
</g>
</svg>
