<?xml version="1.0" encoding="UTF-8"?>
<svg width="24px" height="24px" viewBox="0 0 24 24" version="1.1" xmlns="http://www.w3.org/2000/svg" xmlns:xlink="http://www.w3.org/1999/xlink">
    <title>noun-x-3922739 copy 2</title>
    <g id="New" stroke="none" stroke-width="1" fill="none" fill-rule="evenodd">
        <g id="Comparison-page-Adalysis-vs.-TrueClick" transform="translate(-1397, -1037)" fill="#DE4B4B" fill-rule="nonzero">
            <g id="noun-x-3922739-copy-2" transform="translate(1397, 1037)">
                <path d="M12,0 C5.372583,0 0,5.372583 0,12 C0,18.627417 5.372583,24 12,24 C18.627417,24 24,18.627417 24,12 C24,8.81740212 22.7357179,5.76515517 20.4852814,3.51471863 C18.2348448,1.26428208 15.1825979,0 12,0 L12,0 Z M16.61836,14.8508655 C16.9433047,15.1647076 17.0736243,15.6294604 16.9592303,16.0664958 C16.8448364,16.5035313 16.5035313,16.8448364 16.0664958,16.9592303 C15.6294604,17.0736243 15.1647076,16.9433047 14.8508655,16.61836 L11.9846244,13.7521189 L9.1183834,16.61836 C8.62791133,17.0920737 7.8482814,17.085299 7.36611566,16.6031332 C6.88394992,16.1209675 6.87717515,15.3413376 7.35088893,14.8508655 L10.21713,11.9846244 L7.35088893,9.1183834 C6.87717515,8.62791133 6.88394992,7.8482814 7.36611566,7.36611566 C7.8482814,6.88394992 8.62791133,6.87717515 9.1183834,7.35088893 L11.9846244,10.21713 L14.8508655,7.35088893 C15.3413376,6.87717515 16.1209675,6.88394992 16.6031332,7.36611566 C17.085299,7.8482814 17.0920737,8.62791133 16.61836,9.1183834 L13.7521189,11.9846244 L16.61836,14.8508655 Z" id="Shape"></path>
            </g>
        </g>
    </g>
</svg>