<?xml version="1.0" encoding="UTF-8"?>
<!-- Generator: Adobe Illustrator 25.3.1, SVG Export Plug-In . SVG Version: 6.00 Build 0)  -->
<svg xmlns="http://www.w3.org/2000/svg" xmlns:xlink="http://www.w3.org/1999/xlink" version="1.1" id="Layer_1" x="0px" y="0px" viewBox="0 0 43 38" style="enable-background:new 0 0 43 38;" xml:space="preserve">
<style type="text/css">
	.st0{fill:#FEB22D;}
	.st1{fill:#3A56BC;}
</style>
<path class="st0" d="M29.594,37.723c-4.479,0-8.123-3.679-8.123-8.201c-0.182-2.796,1.305-5.514,3.789-6.886  c0.167-0.091,0.354-0.14,0.542-0.14c0.173,0,0.348,0.041,0.505,0.12c0.331,0.166,0.56,0.487,0.613,0.857  c0.09,0.626,0.538,1.133,1.118,1.313c0.755-1.801,0.719-3.886-0.111-5.66c-0.223-0.44-0.23-0.994-0.012-1.468  c0.188-0.414,0.527-0.729,0.954-0.888c0.188-0.07,0.384-0.105,0.585-0.105c0.241,0,0.476,0.052,0.697,0.152  c5,2.153,8.037,7.283,7.55,12.765c-0.084,4.506-3.638,8.08-8.097,8.14C29.6,37.723,29.597,37.723,29.594,37.723z M25.297,25.412  c-1.074,1.035-1.666,2.528-1.568,4.035c0.003,3.32,2.63,5.992,5.859,5.992c3.236-0.044,5.81-2.651,5.854-5.933  c0-0.035,0.003-0.064,0.005-0.093c0.372-4.035-1.585-7.841-4.958-9.866c0.658,2.328,0.39,4.854-0.788,6.997  c-0.185,0.337-0.521,0.554-0.901,0.585c-0.099,0.008-0.2,0.012-0.301,0.012C27.195,27.142,26.004,26.481,25.297,25.412z"></path>
<path class="st1" d="M16.58,27.808c-0.077,0-0.155-0.007-0.233-0.021C9.771,26.544,5.004,20.47,5.258,13.659  C5.512,6.85,10.717,1.135,17.365,0.364c6.654-0.768,12.964,3.619,14.672,10.211c0.173,0.667-0.229,1.349-0.896,1.522  c-0.674,0.174-1.35-0.229-1.522-0.896C28.2,5.72,23.164,2.203,17.652,2.845c-5.434,0.63-9.69,5.319-9.898,10.907  c-0.208,5.587,3.685,10.565,9.057,11.58c0.678,0.129,1.123,0.781,0.995,1.459C17.692,27.39,17.168,27.808,16.58,27.808z"></path>
<path class="st1" d="M21.056,14.469l-3.415-1.382c-0.436-0.178-0.687-0.65-0.597-1.125c0.089-0.468,0.49-0.808,0.953-0.808h3.366  c0.689,0,1.249-0.559,1.249-1.249s-0.56-1.249-1.249-1.249H20.13V8.648c0-0.69-0.559-1.249-1.249-1.249s-1.249,0.559-1.249,1.249  V8.69c-1.499,0.163-2.75,1.285-3.04,2.805c-0.313,1.638,0.573,3.28,2.11,3.907l3.417,1.383c0.438,0.177,0.689,0.65,0.599,1.124  c-0.09,0.47-0.491,0.81-0.957,0.81H19.76h-3.362c-0.689,0-1.249,0.56-1.249,1.249s0.56,1.249,1.249,1.249h1.234v0.008  c0,0.689,0.559,1.249,1.249,1.249s1.249-0.56,1.249-1.249v-0.041c1.5-0.162,2.751-1.284,3.041-2.806  C23.484,16.736,22.595,15.093,21.056,14.469z"></path>
</svg>
