<?xml version="1.0" encoding="UTF-8"?>
<!-- Generator: Adobe Illustrator 25.3.1, SVG Export Plug-In . SVG Version: 6.00 Build 0)  -->
<svg xmlns="http://www.w3.org/2000/svg" xmlns:xlink="http://www.w3.org/1999/xlink" version="1.1" id="Layer_1" x="0px" y="0px" viewBox="0 0 43 38" style="enable-background:new 0 0 43 38;" xml:space="preserve">
<style type="text/css">
	.st0{fill:#3A56BC;}
	.st1{fill:#FFAF24;}
</style>
<path id="Shape" class="st0" d="M21.252,29.135c-3.025,0-6.05,0-9.075,0C11.713,31.093,9.988,32.5,8,32.5  c-1.984,0-3.715-1.399-4.178-3.365H2.43C1.1,29.135,0,28.009,0,26.649v-7.057c0-5.2,4.165-9.46,9.247-9.46h3.668v-0.75  C12.914,7.248,14.618,5.5,16.706,5.5h21.137C40.676,5.5,43,7.88,43,10.777v14.476c0,2.01-1.524,3.695-3.474,3.867  c-0.46,1.976-2.189,3.38-4.182,3.38c-1.981,0-3.716-1.402-4.175-3.365h-1.563c-0.463,1.966-2.195,3.365-4.179,3.365  C23.446,32.5,21.712,31.098,21.252,29.135L21.252,29.135z M39.486,26.924c0.791-0.143,1.375-0.838,1.375-1.671V10.777  c0-1.702-1.355-3.09-3.019-3.09H16.706c-0.912,0-1.653,0.761-1.653,1.694c0,5.854,0,11.711,0,17.565h6.227  c0.505-1.903,2.211-3.244,4.147-3.244s3.646,1.338,4.151,3.244h1.619c0.505-1.903,2.211-3.244,4.147-3.244  C37.278,23.703,38.97,25.026,39.486,26.924z M35.344,25.891c-1.195,0-2.158,0.988-2.158,2.21c0,1.223,0.963,2.211,2.158,2.211  c1.196,0,2.161-0.988,2.161-2.211C37.505,26.878,36.54,25.891,35.344,25.891z M25.427,25.891c-1.195,0-2.158,0.988-2.158,2.21  c0,1.223,0.963,2.211,2.158,2.211c1.196,0,2.161-0.988,2.161-2.211C27.588,26.878,26.623,25.891,25.427,25.891L25.427,25.891z   M12.145,26.947h0.769V12.319H9.247c-3.909,0-7.108,3.273-7.108,7.272v7.057c0,0.163,0.132,0.298,0.292,0.298h1.42  c0.505-1.906,2.214-3.244,4.15-3.244C9.945,23.703,11.638,25.047,12.145,26.947z M8,25.891c-1.195,0-2.16,0.988-2.16,2.21  c0,1.223,0.965,2.211,2.16,2.211c1.196,0,2.158-0.991,2.158-2.211C10.159,26.881,9.196,25.891,8,25.891z M9.154,13.711h2.472v7.749  H3.3v-1.757C3.3,16.41,5.932,13.711,9.154,13.711z M9.488,15.899H9.154c-1.886,0-3.483,1.465-3.691,3.374h4.024L9.488,15.899  L9.488,15.899z"></path>
<path id="Shape_1_" class="st1" d="M30.667,21.382h-1.25c-0.69,0-1.25-0.553-1.25-1.235v-7.412c0-0.682,0.56-1.235,1.25-1.235h1.25  c2.757,0,5,2.217,5,4.941S33.423,21.382,30.667,21.382z M30.667,13.971v4.941c1.378,0,2.5-1.108,2.5-2.471  S32.045,13.971,30.667,13.971z"></path>
<path class="st1" d="M22.333,11.5C20.495,11.5,19,12.977,19,14.794v5.353c0,0.682,0.56,1.235,1.25,1.235s1.25-0.553,1.25-1.235  v-1.235h1.667v1.235c0,0.682,0.56,1.235,1.25,1.235s1.25-0.553,1.25-1.235v-5.353C25.667,12.977,24.172,11.5,22.333,11.5z   M21.5,16.441v-1.647c0-0.453,0.375-0.824,0.833-0.824s0.833,0.371,0.833,0.824v1.647H21.5z"></path>
</svg>
