<?xml version="1.0" encoding="UTF-8"?>
<svg width="36px" height="36px" viewBox="0 0 36 36" version="1.1" xmlns="http://www.w3.org/2000/svg" xmlns:xlink="http://www.w3.org/1999/xlink">
    <title>Group</title>
    <g id="New" stroke="none" stroke-width="1" fill="none" fill-rule="evenodd" stroke-linecap="round" stroke-linejoin="round">
        <g id="Agency-V3" transform="translate(-1093, -7999)" stroke-width="2.13269675">
            <g id="accounting-coins" transform="translate(1095, 8001)">
                <ellipse id="Oval" stroke="#3A56BC" cx="21.3365163" cy="10.6631526" rx="10.6634837" ry="10.6631526"></ellipse>
                <path d="M8.00716158,18.9690376 C8.00722041,19.7486105 8.48189127,20.4496151 9.20573715,20.7391209 L12.1403279,21.9134894 C12.9879659,22.2545338 13.4748615,23.1485892 13.3014798,24.0456384 C13.1280981,24.9426877 12.3431073,25.5909281 11.429429,25.5915662 L8.54033577,25.5915662" id="Shape" stroke="#FFAF24"></path>
                <line x1="10.6730325" y1="27.7241967" x2="10.6730325" y2="25.5915662" id="Shape" stroke="#FFAF24"></line>
                <path d="M6.45171475,11.5403746 C2.05024444,13.4329113 -0.548597072,18.0285451 0.09812874,22.775671 C0.744854552,27.5227969 4.47834946,31.2557969 9.22568841,31.9020209 C13.9730274,32.5482448 18.5685401,29.9490175 20.4606888,25.5474918" id="Shape" stroke="#3A56BC"></path>
                <path d="M23.469213,6.39789155 L20.578698,6.39789155 C19.6650196,6.39852968 18.8800289,7.04677006 18.7066472,7.94381933 C18.5332654,8.8408686 19.0201611,9.73492399 19.8677991,10.0759683 L22.8023898,11.2503369 C23.6500278,11.5913812 24.1369235,12.4854366 23.9635417,13.3824858 C23.79016,14.2795351 23.0051693,14.9277755 22.0914909,14.9284136 L19.2038195,14.9284136" id="Shape" stroke="#FFAF24"></path>
                <line x1="21.3365163" y1="6.39789155" x2="21.3365163" y2="4.26526103" id="Shape" stroke="#FFAF24"></line>
                <line x1="21.3365163" y1="17.0610441" x2="21.3365163" y2="14.9284136" id="Shape" stroke="#FFAF24"></line>
            </g>
        </g>
    </g>
</svg>