<?xml version="1.0" encoding="UTF-8"?>
<!-- Generator: Adobe Illustrator 25.3.1, SVG Export Plug-In . SVG Version: 6.00 Build 0)  -->
<svg xmlns="http://www.w3.org/2000/svg" xmlns:xlink="http://www.w3.org/1999/xlink" version="1.1" id="Layer_1" x="0px" y="0px" viewBox="0 0 43 38" style="enable-background:new 0 0 43 38;" xml:space="preserve">
<style type="text/css">
	.st0{fill:#3A56BC;}
	.st1{fill:#FEB22D;}
</style>
<path class="st0" d="M37.452,34.96l-7.227-7.227c3.254-2.785,5.327-6.913,5.327-11.523C35.551,7.843,28.746,1.036,20.378,1.036  S5.204,7.843,5.204,16.21s6.807,15.174,15.174,15.174c2.905,0,5.612-0.835,7.921-2.256l7.493,7.493  c0.229,0.229,0.529,0.344,0.83,0.344c0.301,0,0.601-0.114,0.83-0.344C37.911,36.162,37.911,35.418,37.452,34.96z M7.553,16.21  c0-7.072,5.753-12.826,12.826-12.826S33.203,9.138,33.203,16.21s-5.753,12.826-12.826,12.826S7.553,23.283,7.553,16.21z"></path>
<path id="Shape_1_" class="st1" d="M23.683,20.73h-1.25c-0.69,0-1.25-0.553-1.25-1.235v-7.412c0-0.682,0.56-1.235,1.25-1.235h1.25  c2.757,0,5,2.217,5,4.941S26.439,20.73,23.683,20.73z M23.683,13.319v4.941c1.378,0,2.5-1.108,2.5-2.471  S25.061,13.319,23.683,13.319z"></path>
<path class="st1" d="M15.349,10.848c-1.838,0-3.333,1.477-3.333,3.294v5.353c0,0.682,0.56,1.235,1.25,1.235s1.25-0.553,1.25-1.235  V18.26h1.667v1.235c0,0.682,0.56,1.235,1.25,1.235s1.25-0.553,1.25-1.235v-5.353C18.683,12.325,17.188,10.848,15.349,10.848z   M14.516,15.789v-1.647c0-0.453,0.375-0.824,0.833-0.824s0.833,0.371,0.833,0.824v1.647H14.516z"></path>
</svg>
