<?xml version="1.0" encoding="UTF-8"?>
<!-- Generator: Adobe Illustrator 25.3.1, SVG Export Plug-In . SVG Version: 6.00 Build 0)  -->
<svg xmlns="http://www.w3.org/2000/svg" xmlns:xlink="http://www.w3.org/1999/xlink" version="1.1" id="Layer_1" x="0px" y="0px" viewBox="0 0 43 38" style="enable-background:new 0 0 43 38;" xml:space="preserve">
<style type="text/css">
	.st0{fill:#3A56BC;}
	.st1{fill:#FEB22D;}
</style>
<path class="st0" d="M36.955,9.619c-0.252-0.495-0.86-0.693-1.353-0.439c-0.495,0.252-0.692,0.857-0.44,1.353  c0.218,0.427,0.333,0.908,0.332,1.39v11.125H7.506V11.924c0-1.675,1.343-3.038,2.994-3.038h8c0.556,0,1.006-0.45,1.006-1.006  s-0.45-1.006-1.006-1.006h-8c-2.76,0.001-5.006,2.266-5.006,5.05v12.131c0,2.784,2.246,5.049,5.006,5.049h5.815l-0.668,4.054H13.5  c-0.556,0-1.006,0.45-1.006,1.006s0.45,1.006,1.006,1.006h3h10h3c0.556,0,1.006-0.45,1.006-1.006s-0.45-1.006-1.006-1.006h-2.147  l-0.668-4.054H32.5c2.76,0,5.006-2.265,5.006-5.049V11.925C37.507,11.127,37.316,10.33,36.955,9.619z M25.314,33.158h-7.629  l0.668-4.054h6.293L25.314,33.158z M32.5,27.091h-7h-8h-7c-1.302,0-2.401-0.852-2.812-2.031h27.625  C34.901,26.24,33.802,27.091,32.5,27.091z"></path>
<path class="st1" d="M33.297,6.6c-0.111-0.353-0.406-0.616-0.769-0.686l-1.874-0.363L30.295,3.65  c-0.069-0.366-0.335-0.663-0.69-0.773c-0.354-0.112-0.742-0.015-1.007,0.247l-3.149,3.13c-0.153,0.152-0.254,0.351-0.286,0.564  l-0.502,3.351l-4.872,4.925c-0.391,0.395-0.387,1.032,0.007,1.422c0.196,0.194,0.452,0.291,0.708,0.291  c0.259,0,0.519-0.1,0.715-0.298l4.87-4.923l3.305-0.507c0.217-0.033,0.416-0.136,0.569-0.293l3.095-3.184  C33.315,7.337,33.407,6.953,33.297,6.6z M28.756,9.142l-1.952,0.299l0.299-1.996l1.568-1.559l0.134,0.709  c0.076,0.405,0.393,0.722,0.797,0.8l0.717,0.139L28.756,9.142z"></path>
<path class="st1" d="M20.5,22.028c-3.312,0-6.006-2.719-6.006-6.06s2.694-6.06,6.006-6.06c0.556,0,1.006,0.45,1.006,1.006  s-0.45,1.006-1.006,1.006c-2.203,0-3.994,1.816-3.994,4.048s1.792,4.048,3.994,4.048s3.994-1.816,3.994-4.048  c0-0.556,0.45-1.006,1.006-1.006s1.006,0.45,1.006,1.006C26.506,19.309,23.811,22.028,20.5,22.028z"></path>
</svg>
