<?xml version="1.0" encoding="UTF-8"?>
<svg width="36px" height="25px" viewBox="0 0 36 25" version="1.1" xmlns="http://www.w3.org/2000/svg" xmlns:xlink="http://www.w3.org/1999/xlink">
    <title>Group</title>
    <g id="New" stroke="none" stroke-width="1" fill="none" fill-rule="evenodd" stroke-linecap="round" stroke-linejoin="round">
        <g id="Use-Case-page---Optimization" transform="translate(-540, -1014)" stroke-width="2.13327103">
            <g id="Group-31" transform="translate(401, 992)">
                <g id="Group-26-Copy-3" transform="translate(121, 0)">
                    <g id="gauge-dashboard" transform="translate(20, 24)">
                        <path d="M11.7334697,21 L11.7334697,19.95 C11.7334697,17.6304041 13.6436656,15.75 16.0000117,15.75 C18.3563578,15.75 20.2665538,17.6304041 20.2665538,19.95 L20.2665538,21" id="Shape" stroke="#FFAF24"></path>
                        <line x1="19.1999183" y1="6.3042" x2="16.0000117" y2="15.7542" id="Shape" stroke="#FFAF24"></line>
                        <path d="M5.86697433,14.7 C5.57243106,14.7 5.33365657,14.9350505 5.33365657,15.225 C5.33365657,15.5149495 5.57243106,15.75 5.86697433,15.75 C6.16151759,15.75 6.40029208,15.5149495 6.40029208,15.225 C6.40029208,14.9350505 6.16151759,14.7 5.86697433,14.7" id="Shape" stroke="#3A56BC"></path>
                        <path d="M8.00024536,9.4542 C7.70570209,9.4542 7.4669276,9.68925051 7.4669276,9.9792 C7.4669276,10.2691495 7.70570209,10.5042 8.00024536,10.5042 C8.29478862,10.5042 8.53356311,10.2691495 8.53356311,9.9792 C8.53356311,9.68925051 8.29478862,9.4542 8.00024536,9.4542" id="Shape" stroke="#3A56BC"></path>
                        <path d="M26.1330491,14.7 C25.8385058,14.7 25.5997314,14.9350505 25.5997314,15.225 C25.5997314,15.5149495 25.8385058,15.75 26.1330491,15.75 C26.4275924,15.75 26.6663669,15.5149495 26.6663669,15.225 C26.6663669,14.9350505 26.4275924,14.7 26.1330491,14.7" id="Shape" stroke="#3A56BC"></path>
                        <path d="M23.9997781,9.4542 C23.7052348,9.4542 23.4664603,9.68925051 23.4664603,9.9792 C23.4664603,10.2691495 23.7052348,10.5042 23.9997781,10.5042 C24.2943213,10.5042 24.5330958,10.2691495 24.5330958,9.9792 C24.5330958,9.68925051 24.2943213,9.4542 23.9997781,9.4542" id="Shape" stroke="#3A56BC"></path>
                        <path d="M12.2667874,5.2542 C11.9722442,5.2542 11.7334697,5.48925051 11.7334697,5.7792 C11.7334697,6.06914949 11.9722442,6.3042 12.2667874,6.3042 C12.5613307,6.3042 12.8001052,6.06914949 12.8001052,5.7792 C12.8001052,5.48925051 12.5613307,5.2542 12.2667874,5.2542" id="Shape" stroke="#3A56BC"></path>
                        <path d="M16.0000117,0 C11.7239469,0.0318102236 7.63589102,1.73464382 4.63532924,4.73383042 C1.63476746,7.73301701 -0.0324614051,11.7828304 0.000478993657,15.9922 L0.000478993657,18.9 C0.000478993657,20.059798 0.955576967,21 2.13375002,21 L29.8662734,21 C31.0444465,21 31.9995444,20.059798 31.9995444,18.9 L31.9995444,15.988 C32.0657709,7.22400753 24.9028471,0.066246955 16.0000117,0 Z" id="Shape" stroke="#3A56BC"></path>
                    </g>
                </g>
            </g>
        </g>
    </g>
</svg>