<?xml version="1.0" encoding="UTF-8"?>
<svg width="24px" height="25px" viewBox="0 0 24 25" version="1.1" xmlns="http://www.w3.org/2000/svg" xmlns:xlink="http://www.w3.org/1999/xlink">
    <title>E2BFFD9C-9B05-4515-9A47-2AC8D577D12C</title>
    <g id="Page-1" stroke="none" stroke-width="1" fill="none" fill-rule="evenodd" stroke-linecap="round" stroke-linejoin="round">
        <g id="Products-dropdown-menu-V1" transform="translate(-748, -132)" stroke-width="1.5">
            <g id="startup-launch-1" transform="translate(749, 133)">
                <path d="M4.22867259,22.0907755 C2.86692435,23.4750428 0.131905382,22.86703 0.131905382,22.86703 C0.131905382,22.86703 -0.469358841,20.089977 0.895531895,18.7025153 C1.30854557,18.2488094 1.90116329,18.0091748 2.5079017,18.0505272 C3.11464011,18.0918797 3.67048458,18.4097882 4.02022035,18.9154795 C4.51716797,19.271197 4.82943539,19.836088 4.86990547,20.4525576 C4.91037554,21.0690272 4.67471631,21.671088 4.22867259,22.0907755 L4.22867259,22.0907755 Z" id="Shape" stroke="#3A56BC"></path>
                <line x1="18.7616688" y1="3.92386522" x2="20.1307495" y2="2.53214423" id="Shape" stroke="#3A56BC"></line>
                <path d="M18.9439336,8.78690253 L18.7616688,3.92386522 L13.9777425,3.73858638 C12.541679,3.76970226 11.2150628,4.52541961 10.4392921,5.75429245 L5.23846128,14.5039262 L8.34534226,17.6664445 L16.9526386,12.3838677 C18.1654183,11.5979162 18.9124024,10.2486053 18.9439336,8.78690253 L18.9439336,8.78690253 Z" id="Shape" stroke="#3A56BC"></path>
                <path d="M7.41411597,10.8483959 L6.26186746,10.4331157 C5.54139897,10.1497491 4.7247038,10.3157892 4.16687016,10.8590441 L2.15148277,12.9024355 C2.02033697,13.0424767 1.97963142,13.2464737 2.04673291,13.4273923 C2.11308173,13.6204192 2.27058041,13.7665133 2.46573236,13.8160519 L5.24160378,14.5081855" id="Shape" stroke="#3A56BC"></path>
                <path d="M11.9099802,15.4814319 L12.3541196,16.6293089 C12.6347736,17.3602759 12.4743298,18.1902864 11.9424526,18.7589508 L9.92916021,20.8129904 C9.79131171,20.9469669 9.58995035,20.9884023 9.41169588,20.9194725 C9.2223208,20.8515637 9.07910712,20.6915835 9.03040638,20.4935441 L8.34953226,17.6717686" id="Shape" stroke="#3A56BC"></path>
                <ellipse id="Oval" stroke="#3A56BC" cx="14.0196424" cy="8.74430969" rx="1.57124797" ry="1.59723143"></ellipse>
                <path d="M21.7365649,17.0371353 L19.9034423,17.0371353 C19.3547622,17.0719742 18.9365509,17.5503612 18.9669785,18.1083452 C18.9556548,18.5284562 19.1853985,18.9170017 19.5556728,19.1039528 L21.4097454,19.7620121 C21.7798356,19.9491659 22.0095009,20.3375788 21.9984396,20.7576197 C22.0288673,21.3156037 21.610656,21.7939907 21.0619758,21.8288296 L18.8559437,21.8288296" id="Shape" stroke="#FFAF24"></path>
                <line x1="20.4271916" y1="17.0371353" x2="20.4271916" y2="15.9723143" id="Shape" stroke="#FFAF24"></line>
                <line x1="20.4271916" y1="22.8936505" x2="20.4271916" y2="21.8288296" id="Shape" stroke="#FFAF24"></line>
                <path d="M2.88054183,1.06482096 L1.0484667,1.06482096 C0.499369088,1.09910056 0.0805421101,1.5776565 0.110955409,2.13603084 C0.0996317268,2.55614185 0.329375347,2.94468734 0.699649648,3.13163843 L2.55372225,3.78969778 C2.9238125,3.97685154 3.15347775,4.36526449 3.14241649,4.78530538 C3.17284417,5.34328932 2.75463284,5.82167632 2.2059527,5.85651526 L0.000968051339,5.85651526" id="Shape" stroke="#FFAF24"></path>
                <line x1="1.57116852" y1="1.06482096" x2="1.57116852" y2="0" id="Shape" stroke="#FFAF24"></line>
                <line x1="1.57116852" y1="6.92133621" x2="1.57116852" y2="5.85651526" id="Shape" stroke="#FFAF24"></line>
            </g>
        </g>
    </g>
</svg>