<?xml version="1.0" encoding="UTF-8"?>
<svg width="210px" height="38px" viewBox="0 0 210 38" version="1.1" xmlns="http://www.w3.org/2000/svg" xmlns:xlink="http://www.w3.org/1999/xlink">
    <title>logo copy</title>
    <g id="New" stroke="none" stroke-width="1" fill="none" fill-rule="evenodd">
        <g id="Comparison-home-page-V1.1" transform="translate(-452, -724)">
            <g id="Group-5" transform="translate(371, 533)">
                <g id="logo-copy" transform="translate(81, 191)">
                    <path d="M26.2569898,17.0315806 C26.2139075,17.0759671 26.2004658,17.1424876 26.2220644,17.2011962 C26.6570232,18.3817587 26.8950672,19.6622205 26.8950672,21.0000888 C26.8950672,26.915093 22.2410311,31.7100186 16.5000574,31.7100186 C10.7590379,31.7100186 6.10500172,26.915093 6.10500172,21.0000888 C6.10500172,15.0850846 10.7590379,10.2900524 16.5000574,10.2900524 C17.9414185,10.2900524 19.3143075,10.5923067 20.5622004,11.1386631 C20.6203328,11.164135 20.6877709,11.1510676 20.7324616,11.1050477 L25.0327634,6.67438725 C25.1027291,6.6022799 25.0891725,6.48177351 25.0045014,6.42911337 C22.5208936,4.88710268 19.6109434,4 16.5000574,4 C7.38731449,4 0,11.6111722 0,21.0000888 C0,30.388958 7.38731449,38 16.5000574,38 C25.6127085,38 33,30.388958 33,21.0000888 C33,17.9397875 32.215213,15.0682769 30.8415198,12.5877225 C30.7916593,12.4978842 30.6726373,12.4821418 30.6016376,12.5552908 L26.2569898,17.0315806 Z" id="Path" fill="#2D3A48" fill-rule="nonzero"></path>
                    <path d="M27.9153907,5.49278184 L25.6223619,5.18043009 C25.4663885,5.15921186 25.4378186,4.93740545 25.5829911,4.87445092 L36.7863599,0.0127957444 C36.9121374,-0.0418321694 37.0393085,0.0881140397 36.9885562,0.219689471 L32.4833307,11.9205634 C32.4247971,12.0725799 32.2102902,12.0457605 32.1879917,11.8837757 L31.8403907,9.35563826 L18.5417761,23.1774971 C18.035066,23.7041553 17.3478774,24 16.631422,24 C15.9148506,24 15.227662,23.7041553 14.7209519,23.1774971 L10.7913179,19.0931072 C9.73622736,17.9965948 9.73622736,16.2185596 10.7913179,15.1219286 C11.8463039,14.0254162 13.5570168,14.0254162 14.6121305,15.1219286 L16.631422,17.2207292 L27.9153907,5.49278184 Z" id="Path" fill="#069BA2"></path>
                    <path d="M44.3055693,20.253932 C44.2213994,20.253932 44.1533763,20.1845306 44.1533763,20.0988543 L44.1533763,10.7897391 C44.1533763,10.704086 44.2213994,10.6347079 44.3055693,10.6347079 L49.521701,10.6347079 C52.7853189,10.6347079 54.7606214,12.5147985 54.7606214,15.4880242 C54.7606214,18.4175282 52.7853189,20.253932 49.521701,20.253932 L44.3055693,20.253932 Z M50.2946902,24.8885933 C56.1350536,24.8885933 60,20.9096991 60,15.4443141 C60,10.022581 56.1350536,6 50.2946902,6 L39.1523075,6 C39.0681376,6 39,6.06941297 39,6.15500796 L39,36.8450385 C39,36.9307149 39.0681376,37 39.1523075,37 L44.0010688,37 C44.0852388,37 44.1533763,36.9307149 44.1533763,36.8450385 L44.1533763,25.0435548 C44.1533763,24.9579947 44.2213994,24.8885933 44.3055693,24.8885933 L50.2946902,24.8885933 Z" id="Shape" fill="#2D3A48" fill-rule="nonzero"></path>
                    <path d="M86.8414081,10.9407713 C86.9289976,10.9407713 87,10.8713932 87,10.7858331 L87,6.15500796 C87,6.06941297 86.9289976,6 86.8414081,6 L61.1585919,6 C61.0708831,6 61,6.06941297 61,6.15500796 L61,10.7858331 C61,10.8713932 61.0708831,10.9407713 61.1585919,10.9407713 L71.1338902,10.9407713 C71.221599,10.9407713 71.2926014,11.0101494 71.2926014,11.0958025 L71.2926014,36.8450385 C71.2926014,36.9307149 71.3634845,37 71.4511933,37 L76.5039379,37 C76.5915274,37 76.6626492,36.9307149 76.6626492,36.8450385 L76.6626492,11.0958025 C76.6626492,11.0101494 76.7335322,10.9407713 76.8211217,10.9407713 L86.8414081,10.9407713 Z" id="Path" fill="#2D3A48" fill-rule="nonzero"></path>
                    <path d="M124.846565,37 C124.931419,37 125,36.9307149 125,36.8450385 L125,6.15500796 C125,6.06941297 124.931419,6 124.846565,6 L117.997768,6 C117.936161,6 117.879204,6.03747905 117.855956,6.09502288 L108.142218,29.3160969 C108.089213,29.4424609 107.91067,29.4428096 107.857665,29.3167944 L98.0145538,6.09436025 C97.9903761,6.03716518 97.9345814,6 97.8722774,6 L91.1544815,6 C91.0691622,6 91,6.06941297 91,6.15500796 L91,36.8450385 C91,36.9307149 91.0691622,37 91.1544815,37 L95.945501,37 C96.0310529,37 96.0998663,36.9307149 96.0998663,36.8450385 L96.0998663,15.031161 C96.0998663,14.8620171 96.3314143,14.8151682 96.397438,14.9710597 L105.60635,36.9051399 C105.630528,36.9626837 105.687252,37 105.749556,37 L110.077364,37 C110.139668,37 110.195463,36.9627999 110.21964,36.9054886 L119.51701,14.8795708 C119.582104,14.7240281 119.813419,14.7711094 119.813419,14.9399047 L119.813419,36.8450385 C119.813419,36.9307149 119.882,37 119.968017,37 L124.846565,37 Z" id="Path" fill="#2D3A48" fill-rule="nonzero"></path>
                    <path d="M139.789218,23.8459457 C139.803325,23.8701257 139.811553,23.8979095 139.811553,23.9262745 L139.811553,36.8450385 C139.811553,36.9307149 139.882085,37 139.967899,37 L144.945093,37 C145.032082,37 145.101438,36.9307149 145.101438,36.8450385 L145.101438,23.926507 C145.101438,23.898142 145.109667,23.8701257 145.123774,23.8457132 L155.976267,6.23584832 C156.040921,6.13257168 155.965687,6 155.844607,6 L150.262015,6 C150.206765,6 150.155042,6.02962054 150.126829,6.07765511 L142.769187,18.7519799 C142.708059,18.8556751 142.557592,18.8554426 142.497639,18.7515149 L135.183492,6.07801548 C135.155279,6.02976004 135.103556,6 135.048306,6 L129.156549,6 C129.034294,6 128.95906,6.13206018 129.023714,6.23538332 L139.789218,23.8459457 Z" id="Path" fill="#2D3A48" fill-rule="nonzero"></path>
                    <path d="M182.84723,37 C182.931716,37 183,36.9307149 183,36.8450385 L183,32.1705034 C183,32.0849432 182.931716,32.0155419 182.84723,32.0155419 L165.836476,32.0155419 C165.706852,32.0155419 165.635097,31.8627892 165.718426,31.7617678 L182.748855,11.0275404 C182.770844,10.9997334 182.783575,10.9647653 182.783575,10.9286813 L182.783575,6.15500796 C182.783575,6.06941297 182.714134,6 182.629647,6 L159.630757,6 C159.54627,6 159.476829,6.06941297 159.476829,6.15500796 L159.476829,10.7858331 C159.476829,10.8713932 159.54627,10.9407713 159.630757,10.9407713 L175.730675,10.9407713 C175.861455,10.9407713 175.932054,11.0931055 175.849882,11.1941966 L159.034721,31.7978053 C159.011574,31.8254729 159,31.8603479 159,31.896153 L159,36.8450385 C159,36.9307149 159.068284,37 159.153928,37 L182.84723,37 Z" id="Path" fill="#2D3A48" fill-rule="nonzero"></path>
                    <path d="M203.899379,36.9178111 C203.925506,36.96838 203.980135,37 204.038327,37 L209.733981,37 C209.853927,37 209.929933,36.8738686 209.872928,36.7705222 L202.974251,24.4101077 C202.923185,24.3207113 202.975439,24.2089949 203.075196,24.1831874 C207.365938,23.0804384 210,19.74929 210,15.4006041 C210,10.1537461 206.215169,6 200.11336,6 L188.157949,6 C188.070067,6 188,6.06941297 188,6.15500796 L188,36.8450385 C188,36.9307149 188.070067,37 188.157949,37 L193.231309,37 C193.318003,37 193.389258,36.9307149 193.389258,36.8450385 L193.389258,24.9124246 C193.389258,24.8267483 193.459325,24.7574632 193.546019,24.7574632 L197.213279,24.7574632 C197.270283,24.7574632 197.324912,24.7890832 197.352227,24.839652 L203.899379,36.9178111 Z M193.546019,20.1228018 C193.459325,20.1228018 193.389258,20.0532842 193.389258,19.9677241 L193.389258,10.7897391 C193.389258,10.704086 193.459325,10.6347079 193.546019,10.6347079 L199.133603,10.6347079 C202.42915,10.6347079 204.566802,12.5147985 204.566802,15.4006041 C204.566802,18.2425717 202.42915,20.1228018 199.133603,20.1228018 L193.546019,20.1228018 Z" id="Shape" fill="#2D3A48" fill-rule="nonzero"></path>
                </g>
            </g>
        </g>
    </g>
</svg>