<?xml version="1.0" encoding="UTF-8"?>
<svg width="34px" height="30px" viewBox="0 0 34 30" version="1.1" xmlns="http://www.w3.org/2000/svg" xmlns:xlink="http://www.w3.org/1999/xlink">
    <title>Shopping-Web-Advertising-Browser--Streamline-Ultimate</title>
    <g id="New" stroke="none" stroke-width="1" fill="none" fill-rule="evenodd" stroke-linecap="round" stroke-linejoin="round">
        <g id="Use-Case-page---Optimization" transform="translate(-540, -756)" stroke-width="2.13">
            <g id="Group-16" transform="translate(407, 735)">
                <g id="Group-26" transform="translate(114, 0)">
                    <g id="Shopping-Web-Advertising-Browser--Streamline-Ultimate" transform="translate(21, 23)">
                        <path d="M2.66666667,0 L27.3333333,0 C27.3333333,0 30,0 30,2.66666667 L30,24 C30,24 30,26.6666667 27.3333333,26.6666667 L2.66666667,26.6666667 C2.66666667,26.6666667 0,26.6666667 0,24 L0,2.66666667 C0,2.66666667 0,0 2.66666667,0" id="Path" stroke="#2A4BC2"></path>
                        <line x1="0" y1="5.33333333" x2="30" y2="5.33333333" id="Path" stroke="#2A4BC2"></line>
                        <line x1="24.6666667" y1="4.4408921e-16" x2="24.6666667" y2="5.33333333" id="Path" stroke="#2A4BC2"></line>
                        <line x1="20" y1="4.4408921e-16" x2="20" y2="5.33333333" id="Path" stroke="#2A4BC2"></line>
                        <path d="M13.3333333,20.6666667 L13.3333333,13.3333333 C13.3333333,11.860574 12.139426,10.6666667 10.6666667,10.6666667 C9.19390733,10.6666667 8,11.860574 8,13.3333333 L8,20.6666667" id="Path" stroke="#FFAF24"></path>
                        <line x1="8" y1="16.6666667" x2="13.3333333" y2="16.6666667" id="Path" stroke="#FFAF24"></line>
                        <path d="M18,10.6666667 L20,10.6666667 C21.4727593,10.6666667 22.6666667,11.860574 22.6666667,13.3333333 L22.6666667,18 C22.6666667,18.707244 22.3857151,19.3855211 21.8856181,19.8856181 C21.3855211,20.3857151 20.707244,20.6666667 20,20.6666667 L18,20.6666667 L18,10.6666667 Z" id="Path" stroke="#FFAF24"></path>
                    </g>
                </g>
            </g>
        </g>
    </g>
</svg>