<?xml version="1.0" encoding="UTF-8"?>
<svg width="34px" height="29px" viewBox="0 0 34 29" version="1.1" xmlns="http://www.w3.org/2000/svg" xmlns:xlink="http://www.w3.org/1999/xlink">
    <title>Shopping-Broadcast-Advertising-Monitor-Megaphone--Streamline-Ultimate</title>
    <g id="New" stroke="none" stroke-width="1" fill="none" fill-rule="evenodd" stroke-linecap="round" stroke-linejoin="round">
        <g id="Use-Case-page---Optimization" transform="translate(-1347, -1013)" stroke-width="2.13">
            <g id="Shopping-Broadcast-Advertising-Monitor-Megaphone--Streamline-Ultimate" transform="translate(1349, 1015)">
                <path d="M1.364,0 L28.636,0 C28.636,0 30,0 30,1.364 L30,20.4546667 C30,20.4546667 30,21.8186667 28.636,21.8186667 L1.364,21.8186667 C1.364,21.8186667 0,21.8186667 0,20.4546667 L0,1.364 C0,1.364 0,0 1.364,0" id="Path" stroke="#3A56BC"></path>
                <line x1="14.3186667" y1="21.8186667" x2="14.3186667" y2="25.9093333" id="Path" stroke="#3A56BC"></line>
                <line x1="8.864" y1="25.9093333" x2="19.7733333" y2="25.9093333" id="Path" stroke="#3A56BC"></line>
                <path d="M13.0733333,15.2586667 L11.5986667,15.956 C10.2418871,16.5981231 8.6214564,16.0187795 7.97933333,14.662 C7.33721026,13.3052205 7.9165538,11.6847897 9.27333333,11.0426667 L10.748,10.344 L13.0733333,15.2586667 Z" id="Path" stroke="#FFAF24"></path>
                <path d="M13.0733333,15.2586667 C15.9560505,13.8944977 19.1779853,13.4138751 22.3333333,13.8773333 L23.3106667,14.0213333 L18.2,3.20933333 L17.6906667,4.056 C16.0487675,6.79160958 13.6334081,8.97963012 10.7493333,10.344 L13.0733333,15.2586667 Z" id="Path" stroke="#FFAF24"></path>
                <path d="M13.0733333,15.2586667 C13.688014,16.5594371 14.8096327,17.5509153 16.176,18.0013333" id="Path" stroke="#FFAF24"></path>
            </g>
        </g>
    </g>
</svg>