<?xml version="1.0" encoding="UTF-8"?>
<svg id="Layer_1" data-name="Layer 1" xmlns="http://www.w3.org/2000/svg" version="1.1" width="24px" height="24px" viewBox="0 0 24 24">
  <defs>
    <style>
      .cls-1 {
        fill: #3a56bc;
      }

      .cls-1, .cls-2 {
        stroke-width: 0px;
      }

      .cls-2 {
        fill: #ffaf24;
      }
    </style>
  </defs>
  <path class="cls-2" d="M12.831,11.302v-1.849c.286.176.48.427.48.711,0,.462.375.837.838.837s.838-.375.838-.837c-.087-1.257-.991-2.253-2.156-2.536v-.645c0-.462-.375-.837-.838-.837s-.838.375-.838.837v.646c-.446.109-.866.312-1.215.623-.562.501-.901,1.205-.941,1.956.087,1.259.99,2.257,2.156,2.544v1.805c-.286-.176-.48-.427-.48-.711,0-.462-.375-.837-.838-.837s-.838.375-.838.837c.087,1.257.991,2.253,2.156,2.536v.645c.006.46.378.831.838.837.46-.006.832-.377.838-.837v-.645c1.165-.283,2.068-1.278,2.156-2.536-.087-1.258-.99-2.257-2.156-2.544ZM10.676,10.163c0-.284.194-.535.48-.711v1.427c-.286-.179-.48-.433-.48-.717ZM12.831,14.556v-1.427c.286.179.48.433.48.717s-.194.535-.48.711Z"/>
  <path class="cls-1" d="M23.164,13.991h-.089c-.457-.03-.811-.413-.804-.87.298-2.723-.501-5.452-2.219-7.587-1.718-2.135-4.215-3.5-6.941-3.795-3.687-.393-7.303,1.211-9.484,4.207-.176.243-.468.374-.766.344-.299-.03-.558-.217-.681-.491-.123-.274-.091-.592.085-.835C5.453.563,11.203-1.148,16.281.792c5.079,1.94,8.218,7.048,7.653,12.45-.042.403-.367.717-.771.748h0ZM11.994,24c-.41,0-.821-.023-1.229-.067C4.174,23.242-.613,17.351.064,10.766c.053-.456.458-.787.916-.748.458.058.788.467.748.926-.586,5.666,3.534,10.734,9.204,11.326,3.668.372,7.258-1.23,9.428-4.207.176-.243.468-.374.766-.344.299.03.558.217.681.491.123.274.091.592-.085.835-2.266,3.107-5.881,4.948-9.729,4.955h0ZM11.994,21.21c-4.705-.005-8.649-3.555-9.143-8.229-.494-4.675,2.621-8.969,7.221-9.955s9.205,1.652,10.676,6.117c1.47,4.465-.667,9.319-4.956,11.253-.423.191-.92.004-1.111-.418-.191-.422-.004-.919.419-1.11,3.512-1.587,5.26-5.566,4.053-9.223-1.208-3.657-4.983-5.815-8.751-5.003-3.768.812-6.316,4.334-5.907,8.163.41,3.829,3.645,6.733,7.5,6.732.463,0,.838.375.838.837s-.375.837-.838.837h0Z"/>
</svg>