<?xml version="1.0" encoding="utf-8" ?>
<svg xmlns="http://www.w3.org/2000/svg" xmlns:xlink="http://www.w3.org/1999/xlink" width="25" height="25">
	<path fill="none" stroke="#3A56BC" stroke-width="1.3999451" stroke-linecap="round" stroke-linejoin="round" transform="translate(1.12305 1.11823)" d="M7.0699258 9.02526L6.0905833 8.0919628C4.462513 8.8792953 2.5146828 8.547884 1.2381709 7.2663565C-0.038341086 5.9848285 -0.3631334 4.034687 0.42905191 2.408186L1.7628229 3.7334673C2.1193726 4.0902424 2.6390553 4.229579 3.1261115 4.0989904C3.6131675 3.9684014 3.9936016 3.5877268 4.1241078 3.1003628C4.2546144 2.6129987 4.1153655 2.0929875 3.7588158 1.7362121L2.4343719 0.41093072C4.0587745 -0.35926902 5.9914589 -0.026995515 7.2657943 1.2415649" fill-rule="evenodd"/>
	<path fill="none" stroke="#FFAF24" stroke-width="1.3999451" stroke-linecap="round" stroke-linejoin="round" transform="translate(13.1923 13.1487)" d="M2.0053201 0L2.8634105 0.84930009C4.4830513 0.078148291 6.412312 0.40915817 7.6827011 1.6761625C8.9530907 2.9431667 9.2902565 4.8725443 8.5249414 6.4957457L7.1911707 5.170464C6.6399927 4.6189375 5.746356 4.6189375 5.195178 5.170464C4.6439996 5.7219911 4.6439996 6.6161923 5.195178 7.1677194L6.5196218 8.493001C4.8952193 9.2632008 2.9625347 8.9309273 1.6881996 7.6623664C0.4190037 6.3950758 0.089735568 4.4631467 0.86741751 2.8465552L0 1.9879222" fill-rule="evenodd"/>
	<path fill="none" stroke="#3A56BC" stroke-width="1.3999451" stroke-linecap="round" stroke-linejoin="round" transform="translate(1.17699 13.976)" d="M0.60828471 7.5257039L0.60828471 7.5257039C-0.20276158 6.7101235 -0.20276158 5.3920665 0.60828471 4.5764861L4.9920077 0.20865712C5.121922 0.075244404 5.3001857 0 5.4863424 0C5.6724987 0 5.8507624 0.075244404 5.9806771 0.20865712L7.9580159 2.1779134C8.0884504 2.3075633 8.1618004 2.4839275 8.1618004 2.6678941C8.1618004 2.851861 8.0884504 3.0282252 7.9580159 3.1578751L3.5742929 7.5257039C2.7549541 8.3445415 1.4276236 8.3445415 0.60828471 7.5257039L0.60828471 7.5257039Z" fill-rule="evenodd"/>
	<path fill="none" stroke="#3A56BC" stroke-width="1.3999451" stroke-linecap="round" stroke-linejoin="round" transform="translate(11.5566 1.11584)" d="M4.3592019 0.41332078L10.160639 6.1997609C10.700005 6.7452431 10.700005 7.6235347 10.160639 8.1690168L8.1833 10.138273C7.6349807 10.679079 6.754281 10.679079 6.2059617 10.138273L0.40452406 4.3518333C-0.13484135 3.8063509 -0.13484135 2.9280593 0.40452406 2.3825769L2.3818629 0.41332078C2.6429591 0.14885056 2.999012 0 3.3705323 0C3.7420526 0 4.0981054 0.14885056 4.3592019 0.41332078L4.3592019 0.41332078Z" fill-rule="evenodd"/>
	<path fill="none" stroke="#3A56BC" stroke-width="1.3999451" stroke-linecap="round" stroke-linejoin="round" transform="translate(8.05307 8.42623)" d="M6.8740506 0L0 6.6450729" fill-rule="evenodd"/>
</svg>
