<?xml version="1.0" encoding="UTF-8"?>
<svg width="25px" height="25px" viewBox="0 0 25 25" version="1.1" xmlns="http://www.w3.org/2000/svg" xmlns:xlink="http://www.w3.org/1999/xlink">
    <title>Group</title>
    <g id="New" stroke="none" stroke-width="1" fill="none" fill-rule="evenodd" stroke-linecap="round" stroke-linejoin="round">
        <g id="Products-dropdown-menu" transform="translate(-397, -131)" stroke-width="1.5">
            <g id="optimization-graph" transform="translate(398, 132)">
                <path d="M9.79271832,1.68789712 C10.1638276,2.09984409 10.6922615,2.3350372 11.2467183,2.3350372 C11.8011751,2.3350372 12.3296091,2.09984409 12.7007183,1.68789712 L13.6407183,0.646897119 C14.196123,0.0312151495 15.0789915,-0.168110594 15.8450442,0.149225192 C16.6110968,0.466560978 17.0943895,1.23181632 17.0517183,2.05989712 L16.9797183,3.45989712 C16.9515651,4.01359913 17.1592281,4.55332285 17.5512604,4.94535507 C17.9432926,5.33738729 18.4830163,5.54505039 19.0367183,5.51689712 L20.4367183,5.44589712 C21.2637605,5.40512308 22.0271179,5.88875139 22.3435248,6.65396246 C22.6599318,7.41917353 22.4610438,8.30068043 21.8467183,8.85589712 L20.8047183,9.79689712 C20.393345,10.1683344 20.1585645,10.6966466 20.1585645,11.2508971 C20.1585645,11.8051477 20.393345,12.3334598 20.8047183,12.7048971 L21.8467183,13.6448971 C22.4624003,14.2003018 22.661726,15.0831703 22.3443902,15.849223 C22.0270545,16.6152756 21.2617991,17.0985683 20.4337183,17.0558971 L19.0337183,16.9838971 C18.480199,16.9557675 17.9406457,17.1632978 17.5486481,17.5551048 C17.1566505,17.9469119 16.9488579,18.4863642 16.9767183,19.0398971 L17.0487183,20.4398971 C17.0889131,21.2661683 16.6057474,22.0286305 15.8414189,22.3450822 C15.0770905,22.6615339 14.1963618,22.4637592 13.6407183,21.8508971 L12.7007183,20.8098971 C12.329281,20.3985238 11.8009689,20.1637433 11.2467183,20.1637433 C10.6924678,20.1637433 10.1641556,20.3985238 9.79271832,20.8098971 L8.85271832,21.8508971 C8.29700032,22.4617776 7.41787224,22.6585536 6.65476014,22.3428681 C5.89164804,22.0271825 5.40846165,21.2668419 5.44671832,20.4418971 L5.51871832,19.0418971 C5.54792666,18.4869365 5.33993573,17.9457066 4.94659483,17.5531287 C4.55325392,17.1605508 4.01162122,16.9536112 3.45671832,16.9838971 L2.05671832,17.0558971 C1.22919654,17.0971916 0.465183134,16.6134128 0.148662599,15.8477025 C-0.167857935,15.0819922 0.0315708568,14.1999567 0.646718321,13.6448971 L1.68871832,12.7048971 C2.10009163,12.3334598 2.33487218,11.8051477 2.33487218,11.2508971 C2.33487218,10.6966466 2.10009163,10.1683344 1.68871832,9.79689712 L0.646718321,8.85589712 C0.0366508385,8.30002757 -0.159591846,7.42142261 0.155982006,6.65880447 C0.471555857,5.89618633 1.23124969,5.41315099 2.05571832,5.45089712 L3.45571832,5.52189712 C4.01049557,5.5510803 4.5515538,5.34322199 4.94409672,4.95010684 C5.33663964,4.5569917 5.5437096,4.01563127 5.51371832,3.46089712 L5.44671832,2.05989712 C5.40846165,1.23495236 5.89164804,0.474611713 6.65476014,0.158926175 C7.41787224,-0.156759364 8.29700032,0.0400166604 8.85271832,0.650897119 L9.79271832,1.68789712 Z" id="Shape" stroke="#3A56BC"></path>
                <line x1="5.99671832" y1="15.0008971" x2="17.2467183" y2="15.0008971" id="Shape" stroke="#FFAF24"></line>
                <rect id="Rectangle-path" stroke="#FFAF24" x="6.74671832" y="7.50089712" width="3" height="7.5"></rect>
                <rect id="Rectangle-path" stroke="#FFAF24" x="12.7467183" y="10.5008971" width="3" height="4.5"></rect>
            </g>
        </g>
    </g>
</svg>