<?xml version="1.0" encoding="UTF-8"?>
<svg width="25px" height="25px" viewBox="0 0 25 25" version="1.1" xmlns="http://www.w3.org/2000/svg" xmlns:xlink="http://www.w3.org/1999/xlink">
    <title>Group 2</title>
    <g id="Page-1" stroke="none" stroke-width="1" fill="none" fill-rule="evenodd" stroke-linecap="round" stroke-linejoin="round">
        <g id="Products-dropdown-menu-V1" transform="translate(-747, -179)" stroke-width="1.545">
            <g id="accounting-coins" transform="translate(748, 180)">
                <ellipse id="Oval" stroke="#3A56BC" cx="15.3356211" cy="7.66414092" rx="7.66437894" ry="7.66414092"></ellipse>
                <path d="M5.75514739,13.6339958 C5.75518967,14.1943138 6.09635935,14.6981608 6.61662358,14.9062431 L8.72586066,15.7503205 C9.33510046,15.9954461 9.68505673,16.6380485 9.5604386,17.2828026 C9.43582048,17.9275568 8.87160841,18.3934796 8.21490207,18.3939382 L6.13836633,18.3939382" id="Shape" stroke="#FFAF24"></path>
                <line x1="7.67124212" y1="19.9267664" x2="7.67124212" y2="18.3939382" id="Shape" stroke="#FFAF24"></line>
                <path d="M4.63716998,8.29464425 C1.47361319,9.65490498 -0.394304146,12.9580168 0.0705300319,16.3700135 C0.53536421,19.7820103 3.21881367,22.4651041 6.63096354,22.9295775 C10.0431134,23.3940509 13.3461382,21.5258563 14.7061201,18.3622598" id="Shape" stroke="#3A56BC"></path>
                <path d="M16.8684968,4.59848455 L14.7909392,4.59848455 C14.1342329,4.59894321 13.5700208,5.06486598 13.4454027,5.70962014 C13.3207845,6.3543743 13.6707408,6.99697662 14.2799806,7.24210223 L16.3892177,8.08617961 C16.9984575,8.33130522 17.3484138,8.97390754 17.2237956,9.6186617 C17.0991775,10.2634159 16.5349654,10.7293386 15.8782591,10.7297973 L13.8027453,10.7297973" id="Shape" stroke="#FFAF24"></path>
                <line x1="15.3356211" y1="4.59848455" x2="15.3356211" y2="3.06565637" id="Shape" stroke="#FFAF24"></line>
                <line x1="15.3356211" y1="12.2626255" x2="15.3356211" y2="10.7297973" id="Shape" stroke="#FFAF24"></line>
            </g>
        </g>
    </g>
</svg>