<?xml version="1.0" encoding="UTF-8"?>
<svg width="24px" height="24px" viewBox="0 0 24 24" version="1.1" xmlns="http://www.w3.org/2000/svg" xmlns:xlink="http://www.w3.org/1999/xlink">
    <title>Group 26</title>
    <g id="Page-1" stroke="none" stroke-width="1" fill="none" fill-rule="evenodd" stroke-linecap="round" stroke-linejoin="round">
        <g id="Products-dropdown-menu-V1" transform="translate(-1006, -133)" stroke-width="1.498">
            <g id="task-list-check-1" transform="translate(1007, 134)">
                <line x1="4.4" y1="9.53333333" x2="9.53333333" y2="9.53333333" id="Shape" stroke="#3A56BC"></line>
                <line x1="4.4" y1="13.2" x2="7.33333333" y2="13.2" id="Shape" stroke="#3A56BC"></line>
                <line x1="4.4" y1="16.8666667" x2="7.33333333" y2="16.8666667" id="Shape" stroke="#3A56BC"></line>
                <path d="M8.8,22 L1.46666667,22 C0.656649034,22 0,21.343351 0,20.5333333 L0,5.13333333 C0,4.3233157 0.656649034,3.66666667 1.46666667,3.66666667 L5.13333333,3.66666667 C5.13333333,1.64162258 6.77495592,0 8.8,0 C10.8250441,0 12.4666667,1.64162258 12.4666667,3.66666667 L16.1333333,3.66666667 C16.943351,3.66666667 17.6,4.3233157 17.6,5.13333333 L17.6,7.33333333" id="Shape" stroke="#3A56BC"></path>
                <path d="M8.8,2.93333333 C9.00250441,2.93333333 9.16666667,3.09749559 9.16666667,3.3 C9.16666667,3.50250441 9.00250441,3.66666667 8.8,3.66666667 C8.59749559,3.66666667 8.43333333,3.50250441 8.43333333,3.3 C8.43333333,3.09749559 8.59749559,2.93333333 8.8,2.93333333" id="Shape" stroke="#3A56BC"></path>
                <circle id="Oval" stroke="#FFAF24" cx="16.1333333" cy="16.1333333" r="5.86666667"></circle>
                <path d="M18.7479111,14.4271111 L15.9074667,18.2150222 C15.7796736,18.3849835 15.5844784,18.4912013 15.3723633,18.506205 C15.1602483,18.5212087 14.952045,18.4435249 14.8016,18.2932444 L13.3349333,16.8265778" id="Shape" stroke="#FFAF24"></path>
            </g>
        </g>
    </g>
</svg>