<?xml version="1.0" encoding="UTF-8"?>
<svg width="22px" height="21px" viewBox="0 0 22 21" version="1.1" xmlns="http://www.w3.org/2000/svg" xmlns:xlink="http://www.w3.org/1999/xlink">
    <title>Fill 1</title>
    <g id="Page-1" stroke="none" stroke-width="1" fill="none" fill-rule="evenodd">
        <g id="About-Us---V2" transform="translate(-1281, -1206)" fill="#6A7A8E">
            <g id="Group-12" transform="translate(1010, 1192)">
                <g id="Group-2" transform="translate(0.2535, 0)">
                    <g id="Group-9" transform="translate(205, 2.75)">
                        <g id="Group-14" transform="translate(54, 0)">
                            <path d="M14.5,12 C13,12 12,13 12,14.3 C12,15.6 13,16.6 14.5,16.6 C16.1,16.6 17,15.6 17,14.3 C17,13 16.1,12 14.5,12 L14.5,12 Z M27.7,18.2 C25.3,18.2 23.7,20.5 23.7,20.5 L23.7,18.5 L19.2,18.5 L19.2,32 L23.7,32 L23.7,24.5 C23.7,24.1 23.7,23.7 23.8,23.399 C24.1,22.6 24.9,21.8 26.1,21.8 C27.7,21.8 28.4,23 28.4,24.8 L28.4,32 L32.9,32 L32.9,24.3 C32.9,20.1 30.7,18.2 27.7,18.2 L27.7,18.2 Z M12.3,32 L16.8,32 L16.8,18.5 L12.3,18.5 L12.3,32 Z" id="Fill-1"></path>
                        </g>
                    </g>
                </g>
            </g>
        </g>
    </g>
</svg>