<?xml version="1.0" encoding="UTF-8"?>
<svg width="148px" height="30px" viewBox="0 0 148 30" version="1.1" xmlns="http://www.w3.org/2000/svg" xmlns:xlink="http://www.w3.org/1999/xlink">
    <title>trueclicks</title>
    <g id="New" stroke="none" stroke-width="1" fill="none" fill-rule="evenodd">
        <g id="Comparison-page-Adalysis-vs.-TrueClick" transform="translate(-1335, -816)" fill-rule="nonzero">
            <g id="trueclicks" transform="translate(1335, 816)">
                <path d="M28.8405903,12.9421137 L28.8405903,6.7136352 C28.8405903,5.58554211 27.9272767,4.6734665 26.7976242,4.6734665 L20.5485466,4.6734665 L28.8405903,12.9541474 C28.8405903,12.948171 28.8405903,12.948171 28.8405903,12.9421137 Z" id="Path" fill="#FF76DF"></path>
                <path d="M3.24315736,4.6734665 C2.11351299,4.6734665 1.20018315,5.58554211 1.20018315,6.7136352 L1.20018315,12.9421137 C1.20018315,12.948171 1.20018315,12.9541474 1.20018315,12.9541474 L9.49221877,4.6734665 L3.24315736,4.6734665 Z" id="Path" fill="#FF76DF"></path>
                <path d="M29.4414056,13.5601141 L28.8405095,12.9600432 C28.8345248,14.0821678 27.9211302,14.9882508 26.7975433,14.9882508 L20.1818625,14.9882508 L20.1818625,24.8350686 C20.1818625,25.9631698 19.2685488,26.8752292 18.1388964,26.8752292 L11.901869,26.8752292 C10.7722166,26.8752292 9.85882205,25.9631698 9.85882205,24.8350686 L9.85882205,14.9821936 L3.24322206,14.9821936 C2.11958665,14.9821936 1.20625681,14.0761914 1.20024785,12.9540667 L0.599372704,13.5541377 C-0.199790901,14.3521594 -0.199790901,15.6422717 0.599372704,16.4403742 L13.5783128,29.4014231 C14.3774319,30.1995256 15.6693182,30.1995256 16.4685182,29.4014231 L29.4473903,16.4403742 C30.2405248,15.6482481 30.2405248,14.3521594 29.4414056,13.5601141 Z" id="Path" fill="#00CDFA"></path>
                <path d="M20.5483849,4.67364418 L16.4623718,0.593298698 C15.6692373,-0.19876352 14.3713663,-0.19876352 13.5782319,0.599299408 L9.49221877,4.67964489 L1.20018315,12.9603662 C1.20619211,14.0824101 2.11952195,14.9884931 3.24315736,14.9884931 L9.86480675,14.9884931 L9.86480675,24.8353109 C9.86480675,25.9634121 10.7781204,26.8754715 11.9077729,26.8754715 L18.1448811,26.8754715 C19.2745335,26.8754715 20.1878472,25.9634121 20.1878472,24.8353109 L20.1878472,14.9825166 L26.7974625,14.9825166 C27.9211302,14.9825166 28.8344439,14.0764336 28.8404286,12.954309 L20.5483849,4.67364418 Z" id="Path" fill="#3A00FF"></path>
                <polygon id="Path" fill="#0D1247" points="50.3457182 11.7004594 45.4004963 11.7004594 45.4004963 24.4575004 42.2339433 24.4575004 42.2339433 11.7004594 37.3127411 11.7004594 37.3127411 8.97623399 50.3457182 8.97623399"></polygon>
                <path d="M53.2600242,14.2029897 C54.0711936,13.0809457 55.32701,12.3368739 57.0214886,12.3128872 C57.2438121,12.3128872 57.5262253,12.3548841 57.7665837,12.4448543 L57.7665837,15.757117 C57.7665837,15.757117 56.9313947,15.583153 56.2944285,15.583153 C54.0952132,15.583153 53.2600242,17.1432568 53.2600242,18.6973841 L53.2600242,24.4518469 L50.1835652,24.4518469 L50.1835652,12.5349054 L53.2600242,12.5349054 L53.2600242,14.2029897 Z" id="Path" fill="#0D1247"></path>
                <path d="M70.4928854,12.5349054 L70.4928854,24.4578234 L67.4344613,24.4578234 L67.4344613,23.6657782 C66.5331171,24.2778829 65.4095302,24.6318682 64.1837181,24.6318682 C60.6866318,24.6318682 59.0822471,23.0057001 59.0822471,19.1414205 L59.0822471,12.5349054 L62.140752,12.5349054 L62.140752,19.1414205 C62.140752,20.9835496 63.0420154,21.8836561 64.7364941,21.8836561 C65.8361422,21.8836561 66.7374056,21.52959 67.440446,20.9415528 L67.440446,12.5349054 L70.4928854,12.5349054 Z" id="Path" fill="#0D1247"></path>
                <path d="M75.5284438,19.3569777 C75.8588963,20.9170815 77.108728,22.0151387 78.9354362,22.0151387 C80.1912526,22.0151387 81.3506668,21.4451117 82.0122187,20.5450859 L83.9709946,22.1711733 C82.8711039,23.6652936 80.912328,24.6313837 78.5868679,24.6313837 C74.9816526,24.6313837 72.4760045,21.889148 72.4760045,18.4869151 C72.4760045,15.0606147 74.9816526,12.3183791 78.5868679,12.3183791 C82.2580766,12.3183791 84.3915411,14.9766209 84.3915411,18.6848658 C84.3915411,18.9248942 84.3672788,19.1649226 84.3672788,19.3629541 L75.5284438,19.3629541 L75.5284438,19.3569777 Z M75.5464788,17.4067873 L81.4590383,17.4067873 C81.3506668,16.044715 80.6238493,14.7485455 78.5808832,14.7485455 C76.9765793,14.7485455 75.8348766,15.9366537 75.5464788,17.4067873 Z" id="Shape" fill="#0D1247"></path>
                <path d="M98.0067323,19.6205082 L100.44671,21.6846555 C98.9327432,23.4848685 96.6431913,24.6249226 94.0471258,24.6249226 C89.5408088,24.6249226 85.8691148,21.0906417 85.8691148,16.7223187 C85.8691148,12.3539149 89.5408088,8.79564735 94.0471258,8.79564735 C96.6431913,8.79564735 98.9262733,9.95968817 100.44671,11.7599012 L98.0067323,13.8240485 C97.1300547,12.5699566 95.6759345,11.7838878 94.0471258,11.7838878 C91.3434973,11.7838878 89.1259236,13.7580649 89.1259236,16.7223187 C89.1259236,19.6444949 91.3491585,21.6606688 94.0471258,21.6606688 C95.6759345,21.666726 97.1300547,20.8746 98.0067323,19.6205082 Z" id="Path" fill="#0D1247"></path>
                <polygon id="Path" fill="#0D1247" points="102.044787 7.9015981 105.121246 7.9015981 105.121246 24.4510393 102.044787 24.4510393"></polygon>
                <path d="M107.530492,9.46162116 C107.530492,8.4715444 108.323869,7.66146471 109.291126,7.66146471 C110.258383,7.66146471 111.027497,8.4715444 111.027497,9.46162116 C111.027497,10.4516979 110.258383,11.2377667 109.291126,11.2377667 C108.323869,11.2377667 107.530492,10.4457214 107.530492,9.46162116 Z M107.777159,12.5338554 L110.835825,12.5338554 L110.835825,24.4568543 L107.777159,24.4568543 L107.777159,12.5338554 Z" id="Shape" fill="#0D1247"></path>
                <path d="M123.862251,22.2371569 C122.787432,23.7072905 121.092306,24.6313837 119.247563,24.6313837 C115.642995,24.6313837 112.716153,21.889148 112.716153,18.4869151 C112.716153,15.0606147 115.642995,12.3183791 119.247563,12.3183791 C121.158623,12.3183791 122.829486,13.2424723 123.910776,14.6885384 L121.934208,16.512738 C121.338973,15.6366182 120.353924,15.0665912 119.254033,15.0665912 C117.31871,15.0665912 115.738426,16.6027083 115.738426,18.4928916 C115.738426,20.3590074 117.31871,21.8951245 119.254033,21.8951245 C120.353924,21.8951245 121.344634,21.3250975 121.934208,20.4250717 L123.862251,22.2371569 Z" id="Path" fill="#0D1247"></path>
                <polygon id="Path" fill="#0D1247" points="137.370689 24.4510393 133.987716 24.4510393 130.929049 19.578592 128.621705 21.798774 128.621705 24.4570158 125.563038 24.4570158 125.563038 7.9015981 128.621705 7.9015981 128.621705 17.6464119 133.723257 12.534017 137.304372 12.534017 132.954142 17.1904225"></polygon>
                <path d="M139.184699,21.2230935 C140.657421,21.8591849 141.780765,22.1891835 143.271279,22.1891835 C144.676874,22.1891835 145.230055,21.6611534 145.230055,21.0491294 C145.230055,20.3710411 144.55071,20.0589719 142.700306,19.6689661 C140.128503,19.0989391 138.259497,18.2648969 138.259497,15.9606404 C138.259497,13.8065228 140.037924,12.3183791 142.808678,12.3183791 C144.676874,12.3183791 146.173049,12.756439 147.471082,13.2844692 L146.46177,15.5226613 C145.296372,15.0846014 143.932022,14.7546027 142.748022,14.7546027 C141.582623,14.7546027 140.987388,15.1745716 140.987388,15.8106631 C140.987388,16.4707412 141.714448,16.7767531 143.625508,17.1727354 C146.395454,17.7428432 148,18.7089333 148,20.8810611 C148,23.1432399 146.263628,24.6373601 143.204962,24.6373601 C141.137814,24.6373601 139.797727,24.3493584 138.037093,23.497306 L139.184699,21.2230935 Z" id="Path" fill="#0D1247"></path>
            </g>
        </g>
    </g>
</svg>