<?xml version="1.0" encoding="UTF-8"?>
<svg xmlns="http://www.w3.org/2000/svg" version="1.1" viewBox="0 0 21.6 21.6">
  <defs>
    <style>
      .cls-1 {
        fill: #3a56bc;
      }

      .cls-2 {
        fill: #ffaf24;
      }
    </style>
  </defs>
  <!-- Generator: Adobe Illustrator 28.7.1, SVG Export Plug-In . SVG Version: 1.2.0 Build 142)  -->
  <g>
    <g id="Layer_1">
      <path class="cls-1" d="M19.467,21.6H2.133c-1.176,0-2.133-.968-2.133-2.157V3.157C0,1.967.957,1,2.133,1h2.667c.442,0,.8.358.8.8s-.358.8-.8.8h-2.667c-.294,0-.534.25-.534.557v16.286c0,.308.24.558.534.558h17.333c.294,0,.533-.25.533-.558V3.157c0-.307-.239-.557-.533-.557h-9.333c-.442,0-.8-.358-.8-.8s.358-.8.8-.8h9.333c1.176,0,2.133.967,2.133,2.157v16.286c0,1.189-.957,2.157-2.133,2.157ZM14.6,16.3c0-.441-.358-.8-.8-.8H4.8c-.442,0-.8.358-.8.8s.358.8.8.8h9c.441,0,.8-.358.8-.8ZM17.6,12.3c0-.442-.358-.8-.8-.8H4.8c-.442,0-.8.358-.8.8s.358.8.8.8h12c.441,0,.8-.358.8-.8ZM17.6,8.3c0-.442-.358-.8-.8-.8h-4c-.441,0-.8.358-.8.8s.358.8.8.8h4c.441,0,.8-.358.8-.8Z"/>
      <path class="cls-2" d="M4.8,10.6c-.12,0-.241-.027-.353-.082-.273-.134-.447-.413-.447-.718V1.443c0-.382.145-.741.409-1.013.266-.274.636-.431,1.016-.431h3.75c.786,0,1.425.647,1.425,1.442v8.356c0,.305-.173.583-.447.718-.274.134-.601.102-.841-.084l-2.012-1.551-2.011,1.552c-.143.11-.315.167-.489.167ZM5.6,1.6v6.573l1.211-.935c.288-.223.69-.223.977,0l1.212.934V1.6h-3.4Z"/>
    </g>
  </g>
</svg>