<svg xmlns="http://www.w3.org/2000/svg" viewBox="0 0 512 512">
  <path d="M477.867 136.533h-9.359c-3.86-19.681-20.878-34.133-41.841-34.133H294.4l-40.107-47.787c-1.707-2.56-4.267-3.413-6.827-3.413H59.733C40.96 51.2 25.6 66.56 25.6 85.333v52.288C10.921 141.435 0 154.837 0 170.667v256C0 445.44 15.36 460.8 34.133 460.8h443.733c18.773 0 34.133-15.36 34.133-34.133v-256c.001-18.774-15.359-34.134-34.132-34.134zm-435.2-51.2c0-9.387 7.68-17.067 17.067-17.067H243.2l40.107 47.787c1.707 2.56 4.267 3.413 6.827 3.413h136.533c11.093 0 20.48 6.827 23.893 17.067H42.667v-51.2zm452.266 341.334c0 9.387-7.68 17.067-17.067 17.067H34.133c-9.387 0-17.067-7.68-17.067-17.067v-256c0-9.387 7.68-17.067 17.067-17.067h443.734c9.387 0 17.067 7.68 17.067 17.067v256z"/>
  <path d="M162.133 187.733h-102.4c-5.12 0-8.533 3.413-8.533 8.533s3.413 8.533 8.533 8.533h102.4c5.12 0 8.533-3.413 8.533-8.533s-3.413-8.533-8.533-8.533zM162.133 221.867h-102.4c-5.12 0-8.533 3.413-8.533 8.533 0 5.12 3.413 8.533 8.533 8.533h102.4c5.12 0 8.533-3.413 8.533-8.533.001-5.12-3.413-8.533-8.533-8.533z"/>
</svg>
